<?xml version="1.0" standalone="no"?><svg xmlns:xlink="http://www.w3.org/1999/xlink" xmlns="http://www.w3.org/2000/svg" viewBox="0 0 1000 583.335126070392" preserveAspectRatio="xMaxYMax slice"><g transform="scale(1.0244211764247906)"><rect x="0" y="0" width="976.164" height="569.429" fill="#ffffff"/><rect x="0" y="0" width="81.347" height="81.347" fill="#ffffff"/><rect x="0" y="0" width="40.67" height="40.67" fill="#f0daa3"/><polygon points="40.67,0 40.67,40.67 0,40.67" fill="#fcf8fc"/><rect x="40.67" y="0" width="40.67" height="40.67" fill="#9c259c"/><polygon points="40.67,0 81.34,40.67 40.67,40.67" fill="#f9f2de"/><rect x="0" y="40.67" width="40.67" height="40.67" fill="#ba68ba"/><polygon points="0,40.67 40.67,40.67 40.67,81.34" fill="#e2b84f"/><rect x="40.67" y="40.67" width="40.67" height="40.67" fill="#e9cee9"/><polygon points="40.67,40.67 81.34,40.67 40.67,81.34" fill="#dfb03b"/><rect x="81.347" y="0" width="81.347" height="81.347" fill="#ffffff"/><rect x="81.35" y="0" width="40.67" height="40.67" fill="#fcf9fc"/><path d="M 81.35 0 A 40.67 40.67 0 0 1 122.02 40.67 L 81.35 40.67" fill="#edd392"/><rect x="122.02" y="0" width="40.67" height="40.67" fill="#ca8aca"/><path d="M 122.02 40.67 A 40.67 40.67 0 0 1  162.69 0 L 162.69 40.67" fill="#931393"/><rect x="81.35" y="40.67" width="40.67" height="40.67" fill="#a83fa8"/><path d="M 81.35 81.34 A 40.67 40.67 0 0 0 122.02 40.67 L 81.35 40.67" fill="#fdf9f1"/><rect x="122.02" y="40.67" width="40.67" height="40.67" fill="#9f2c9f"/><path d="M 122.02 40.67 A 40.67 40.67 0 0 0 162.69 81.34 L 162.69 40.67" fill="#fdfaf2"/><rect x="162.69" y="0" width="81.35" height="81.35" fill="#fbf6fb"/><path d="M 162.69 0 A 81.35 81.35 0 0 0 244.04 81.35 L 244.04 0" fill="#e8cce8"/><rect x="244.041" y="0" width="81.347" height="81.347" fill="#ffffff"/><rect x="244.04" y="0" width="40.67" height="40.67" fill="#e8c775"/><polygon points="284.71,0 284.71,40.67 244.04,40.67" fill="#fdfaf3"/><rect x="284.71" y="0" width="40.67" height="40.67" fill="#e5c6e5"/><polygon points="284.71,0 325.38,40.67 284.71,40.67" fill="#dcb3dc"/><rect x="244.04" y="40.67" width="40.67" height="40.67" fill="#e7c46d"/><polygon points="244.04,40.67 284.71,40.67 244.04,81.34" fill="#ebce86"/><rect x="284.71" y="40.67" width="40.67" height="40.67" fill="#e1b549"/><polygon points="284.71,40.67 325.38,40.67 325.38,81.34" fill="#e2b84f"/><rect x="325.39" y="0" width="81.35" height="81.35" fill="#9e2a9e"/><polygon points="325.39,0 406.74,81.35 325.39,81.35" fill="#deaf39"/><rect x="406.73499999999996" y="0" width="81.347" height="81.347" fill="#ffffff"/><rect x="406.73" y="0" width="40.67" height="40.67" fill="#c47ec4"/><polygon points="447.40000000000003,0 447.40000000000003,40.67 406.73,40.67" fill="#fcf8fc"/><rect x="447.41" y="0" width="40.67" height="40.67" fill="#f0d9a2"/><polygon points="447.41,0 488.08000000000004,40.67 447.41,40.67" fill="#deaf39"/><rect x="406.73" y="40.67" width="40.67" height="40.67" fill="#f3e3b9"/><polygon points="406.73,40.67 447.40000000000003,40.67 447.40000000000003,81.34" fill="#e3bb56"/><rect x="447.41" y="40.67" width="40.67" height="40.67" fill="#8f098f"/><polygon points="447.41,40.67 488.08000000000004,40.67 447.41,81.34" fill="#dfb8df"/><rect x="488.08" y="0" width="81.35" height="81.35" fill="#a840a8"/><path d="M 488.08 81.35 A 81.35 81.35 0 0 1  569.43 0 L 569.43 81.35" fill="#fbf6fb"/><rect x="569.429" y="0" width="81.347" height="81.347" fill="#ffffff"/><rect x="569.43" y="0" width="40.67" height="40.67" fill="#b760b7"/><polygon points="610.0999999999999,0 610.0999999999999,40.67 569.43,40.67" fill="#d7a8d7"/><rect x="610.1" y="0" width="40.67" height="40.67" fill="#ecd28f"/><polygon points="610.1,0 650.77,0 610.1,40.67" fill="#a840a8"/><rect x="569.43" y="40.67" width="40.67" height="40.67" fill="#dcb2dc"/><polygon points="569.43,40.67 610.0999999999999,40.67 610.0999999999999,81.34" fill="#fcf7ea"/><rect x="610.1" y="40.67" width="40.67" height="40.67" fill="#971997"/><polygon points="610.1,40.67 650.77,81.34 610.1,81.34" fill="#e3bc59"/><rect x="650.776" y="0" width="81.347" height="81.347" fill="#ffffff"/><rect x="650.78" y="0" width="40.67" height="40.67" fill="#f5e6c2"/><path d="M 650.78 40.67 A 40.67 40.67 0 0 1  691.4499999999999 0 L 691.4499999999999 40.67" fill="#dca92a"/><rect x="691.45" y="0" width="40.67" height="40.67" fill="#ba68ba"/><path d="M 691.45 0 A 40.67 40.67 0 0 1 732.12 40.67 L 691.45 40.67" fill="#dfb9df"/><rect x="650.78" y="40.67" width="40.67" height="40.67" fill="#a840a8"/><path d="M 650.78 40.67 A 40.67 40.67 0 0 0 691.4499999999999 81.34 L 691.4499999999999 40.67" fill="#ca8aca"/><rect x="691.45" y="40.67" width="40.67" height="40.67" fill="#c784c7"/><path d="M 691.45 81.34 A 40.67 40.67 0 0 0 732.12 40.67 L 691.45 40.67" fill="#ecd08a"/><rect x="732.1229999999999" y="0" width="81.347" height="81.347" fill="#ffffff"/><rect x="732.12" y="0" width="40.67" height="40.67" fill="#a539a5"/><path d="M 732.12 40.67 A 40.67 40.67 0 0 1  772.79 0 L 772.79 40.67" fill="#eed79b"/><rect x="772.8" y="0" width="40.67" height="40.67" fill="#eacb7e"/><path d="M 772.8 0 A 40.67 40.67 0 0 1 813.4699999999999 40.67 L 772.8 40.67" fill="#ecd5ec"/><rect x="732.12" y="40.67" width="40.67" height="40.67" fill="#f3e2b6"/><path d="M 732.12 40.67 A 40.67 40.67 0 0 0 772.79 81.34 L 772.79 40.67" fill="#c886c8"/><rect x="772.8" y="40.67" width="40.67" height="40.67" fill="#9d279d"/><path d="M 772.8 81.34 A 40.67 40.67 0 0 0 813.4699999999999 40.67 L 772.8 40.67" fill="#ecd5ec"/><rect x="813.47" y="0" width="81.35" height="81.35" fill="#981c98"/><rect x="813.47" y="0" width="81.35" height="81.35" fill="#ebcf88"/><rect x="894.82" y="0" width="81.35" height="81.35" fill="#dfb9df"/><path d="M 894.82 0 A 81.35 81.35 0 0 1  976.1700000000001 81.35 L 894.82 0 A 81.35 81.35 0 0 0 976.1700000000001 81.35" fill="#e8cde8"/><rect x="0" y="81.35" width="81.35" height="81.35" fill="#bf73bf"/><rect x="0" y="81.35" width="81.35" height="81.35" fill="#eed597"/><rect x="81.35" y="81.35" width="81.35" height="81.35" fill="#dca929"/><polygon points="81.35,81.35 162.7,162.7 81.35,162.7" fill="#eacb7e"/><rect x="162.694" y="81.347" width="81.347" height="81.347" fill="#ffffff"/><rect x="162.69" y="81.35" width="40.67" height="40.67" fill="#fdfaf3"/><path d="M 162.69 122.02 A 40.67 40.67 0 0 1  203.36 81.35 L 203.36 122.02" fill="#faf4e3"/><rect x="203.37" y="81.35" width="40.67" height="40.67" fill="#fefcf7"/><path d="M 203.37 81.35 A 40.67 40.67 0 0 1 244.04000000000002 122.02 L 203.37 122.02" fill="#8e078e"/><rect x="162.69" y="122.02" width="40.67" height="40.67" fill="#fcf8ef"/><path d="M 162.69 122.02 A 40.67 40.67 0 0 0 203.36 162.69 L 203.36 122.02" fill="#dcab2e"/><rect x="203.37" y="122.02" width="40.67" height="40.67" fill="#dfb13d"/><path d="M 203.37 162.69 A 40.67 40.67 0 0 0 244.04000000000002 122.02 L 203.37 122.02" fill="#f1dca8"/><rect x="244.04" y="81.35" width="81.35" height="81.35" fill="#e1b64a"/><polygon points="244.04,81.35 325.39,162.7 244.04,162.7" fill="#a73da7"/><rect x="325.39" y="81.35" width="81.35" height="81.35" fill="#fcf7ea"/><polygon points="325.39,81.35 406.74,162.7 325.39,162.7" fill="#efd89e"/><rect x="406.73499999999996" y="81.347" width="81.347" height="81.347" fill="#ffffff"/><rect x="406.73" y="81.35" width="40.67" height="40.67" fill="#c47dc4"/><path d="M 406.73 81.35 A 40.67 40.67 0 0 0 447.40000000000003 122.02 L 447.40000000000003 81.35" fill="#8d058d"/><rect x="447.41" y="81.35" width="40.67" height="40.67" fill="#af4faf"/><path d="M 447.41 122.02 A 40.67 40.67 0 0 0 488.08000000000004 81.35 L 447.41 81.35" fill="#e8c876"/><rect x="406.73" y="122.02" width="40.67" height="40.67" fill="#e1bde1"/><path d="M 406.73 162.69 A 40.67 40.67 0 0 1  447.40000000000003 122.02 L 447.40000000000003 162.69" fill="#f6eacb"/><rect x="447.41" y="122.02" width="40.67" height="40.67" fill="#eacc81"/><path d="M 447.41 122.02 A 40.67 40.67 0 0 1 488.08000000000004 162.69 L 447.41 162.69" fill="#faf5fa"/><rect x="488.08" y="81.35" width="81.35" height="81.35" fill="#b65fb6"/><rect x="488.08" y="81.35" width="81.35" height="81.35" fill="#b65eb6"/><rect x="569.43" y="81.35" width="81.35" height="81.35" fill="#efdcef"/><polygon points="650.78,81.35 650.78,162.7 569.43,162.7" fill="#f3e2b7"/><rect x="650.78" y="81.35" width="81.35" height="81.35" fill="#f2deae"/><path d="M 650.78 81.35 A 81.35 81.35 0 0 0 732.13 162.7 L 732.13 81.35" fill="#f0ddf0"/><rect x="732.1229999999999" y="81.347" width="81.347" height="81.347" fill="#ffffff"/><rect x="732.12" y="81.35" width="40.67" height="40.67" fill="#f0daa3"/><path d="M 732.12 122.02 A 40.67 40.67 0 0 1  772.79 81.35 L 772.79 122.02" fill="#e2b850"/><rect x="772.8" y="81.35" width="40.67" height="40.67" fill="#e6c36b"/><path d="M 772.8 81.35 A 40.67 40.67 0 0 1 813.4699999999999 122.02 L 772.8 122.02" fill="#dfb9df"/><rect x="732.12" y="122.02" width="40.67" height="40.67" fill="#f1dca9"/><path d="M 732.12 122.02 A 40.67 40.67 0 0 0 772.79 162.69 L 772.79 122.02" fill="#e7cbe7"/><rect x="772.8" y="122.02" width="40.67" height="40.67" fill="#dba725"/><path d="M 772.8 162.69 A 40.67 40.67 0 0 0 813.4699999999999 122.02 L 772.8 122.02" fill="#a335a3"/><rect x="813.4699999999999" y="81.347" width="81.347" height="81.347" fill="#ffffff"/><rect x="813.47" y="81.35" width="40.67" height="40.67" fill="#8d048d"/><path d="M 813.47 81.35 A 40.67 40.67 0 0 0 854.14 122.02 L 854.14 81.35" fill="#deae37"/><rect x="854.14" y="81.35" width="40.67" height="40.67" fill="#dfb03c"/><path d="M 854.14 122.02 A 40.67 40.67 0 0 0 894.81 81.35 L 854.14 81.35" fill="#dcaa2c"/><rect x="813.47" y="122.02" width="40.67" height="40.67" fill="#ba68ba"/><path d="M 813.47 162.69 A 40.67 40.67 0 0 1  854.14 122.02 L 854.14 162.69" fill="#edd6ed"/><rect x="854.14" y="122.02" width="40.67" height="40.67" fill="#eed596"/><path d="M 854.14 122.02 A 40.67 40.67 0 0 1 894.81 162.69 L 854.14 162.69" fill="#9b239b"/><rect x="894.82" y="81.35" width="81.35" height="81.35" fill="#9c269c"/><rect x="894.82" y="81.35" width="81.35" height="81.35" fill="#efd9a0"/><rect x="0" y="162.69" width="81.35" height="81.35" fill="#edd494"/><polygon points="0,162.69 81.35,162.69 0,244.04" fill="#dba726"/><rect x="81.347" y="162.694" width="81.347" height="81.347" fill="#ffffff"/><rect x="81.35" y="162.69" width="40.67" height="40.67" fill="#f6e8c6"/><polygon points="122.02,162.69 122.02,203.36 81.35,203.36" fill="#d6a5d6"/><rect x="122.02" y="162.69" width="40.67" height="40.67" fill="#faf3e2"/><polygon points="122.02,162.69 162.69,203.36 122.02,203.36" fill="#fefcfe"/><rect x="81.35" y="203.37" width="40.67" height="40.67" fill="#eacc81"/><polygon points="81.35,203.37 122.02,203.37 122.02,244.04000000000002" fill="#c176c1"/><rect x="122.02" y="203.37" width="40.67" height="40.67" fill="#cc8fcc"/><polygon points="122.02,203.37 162.69,203.37 122.02,244.04000000000002" fill="#f8eed4"/><rect x="162.694" y="162.694" width="81.347" height="81.347" fill="#ffffff"/><rect x="162.69" y="162.69" width="40.67" height="40.67" fill="#f7edf7"/><polygon points="203.36,162.69 203.36,203.36 162.69,203.36" fill="#f3e4f3"/><rect x="203.37" y="162.69" width="40.67" height="40.67" fill="#ecd28e"/><polygon points="203.37,162.69 244.04000000000002,162.69 203.37,203.36" fill="#e7c570"/><rect x="162.69" y="203.37" width="40.67" height="40.67" fill="#a73da7"/><polygon points="162.69,203.37 203.36,203.37 203.36,244.04000000000002" fill="#d29cd2"/><rect x="203.37" y="203.37" width="40.67" height="40.67" fill="#8e068e"/><polygon points="203.37,203.37 244.04000000000002,244.04000000000002 203.37,244.04000000000002" fill="#ddac31"/><rect x="244.04" y="162.69" width="81.35" height="81.35" fill="#edd7ed"/><rect x="244.04" y="162.69" width="81.35" height="81.35" fill="#dfb8df"/><rect x="325.39" y="162.69" width="81.35" height="81.35" fill="#e6c36a"/><polygon points="325.39,162.69 406.74,162.69 406.74,244.04" fill="#c176c1"/><rect x="406.73" y="162.69" width="81.35" height="81.35" fill="#b760b7"/><path d="M 406.73 244.04 A 81.35 81.35 0 0 1  488.08000000000004 162.69 L 488.08000000000004 244.04" fill="#dca92b"/><rect x="488.08" y="162.69" width="81.35" height="81.35" fill="#ba67ba"/><rect x="488.08" y="162.69" width="81.35" height="81.35" fill="#e9c979"/><rect x="569.429" y="162.694" width="81.347" height="81.347" fill="#ffffff"/><rect x="569.43" y="162.69" width="40.67" height="40.67" fill="#f1dca8"/><path d="M 569.43 203.36 A 40.67 40.67 0 0 1 610.0999999999999 162.69 L 610.0999999999999 172.8575 A 30.5025 30.5025 0 0 0 579.5975 203.36" fill="#e2b84e"/><rect x="610.1" y="162.69" width="40.67" height="40.67" fill="#8f088f"/><path d="M 610.1 162.69 A 40.67 40.67 0 0 1 650.77 203.36 L 640.6025000000001 203.36 A 30.5025 30.5025 0 0 0 610.1 172.8575" fill="#ddad34"/><rect x="569.43" y="203.37" width="40.67" height="40.67" fill="#f6eacb"/><path d="M 569.43 203.37 A 40.67 40.67 0 0 0 610.0999999999999 244.04000000000002 L 610.0999999999999 233.8725 A 30.5025 30.5025 0 0 1 579.5975 203.37" fill="#f3e2b7"/><rect x="610.1" y="203.37" width="40.67" height="40.67" fill="#d19ad1"/><path d="M 610.1 244.04000000000002 A 40.67 40.67 0 0 0 650.77 203.37 L 640.6025000000001 203.37 A 30.5025 30.5025 0 0 1 610.1 233.8725" fill="#ebce85"/><rect x="650.78" y="162.69" width="81.35" height="81.35" fill="#931293"/><polygon points="732.13,162.69 732.13,244.04 650.78,244.04" fill="#a73ea7"/><rect x="732.1229999999999" y="162.694" width="81.347" height="81.347" fill="#ffffff"/><rect x="732.12" y="162.69" width="40.67" height="40.67" fill="#f0def0"/><path d="M 732.12 203.36 A 40.67 40.67 0 0 0 772.79 162.69 L 732.12 162.69" fill="#dcb2dc"/><rect x="772.8" y="162.69" width="40.67" height="40.67" fill="#be6fbe"/><path d="M 772.8 162.69 A 40.67 40.67 0 0 0 813.4699999999999 203.36 L 813.4699999999999 162.69" fill="#e6c36a"/><rect x="732.12" y="203.37" width="40.67" height="40.67" fill="#e1b64a"/><path d="M 732.12 203.37 A 40.67 40.67 0 0 1 772.79 244.04000000000002 L 732.12 244.04000000000002" fill="#961796"/><rect x="772.8" y="203.37" width="40.67" height="40.67" fill="#e2b952"/><path d="M 772.8 244.04000000000002 A 40.67 40.67 0 0 1  813.4699999999999 203.37 L 813.4699999999999 244.04000000000002" fill="#c47dc4"/><rect x="813.4699999999999" y="162.694" width="81.347" height="81.347" fill="#ffffff"/><rect x="813.47" y="162.69" width="40.67" height="40.67" fill="#f6e8c7"/><path d="M 813.47 162.69 A 40.67 40.67 0 0 0 854.14 203.36 L 854.14 162.69" fill="#e2c0e2"/><rect x="854.14" y="162.69" width="40.67" height="40.67" fill="#deae37"/><path d="M 854.14 203.36 A 40.67 40.67 0 0 0 894.81 162.69 L 854.14 162.69" fill="#f5e8c6"/><rect x="813.47" y="203.37" width="40.67" height="40.67" fill="#b153b1"/><path d="M 813.47 244.04000000000002 A 40.67 40.67 0 0 1  854.14 203.37 L 854.14 244.04000000000002" fill="#f4e4bd"/><rect x="854.14" y="203.37" width="40.67" height="40.67" fill="#fbf4e4"/><path d="M 854.14 203.37 A 40.67 40.67 0 0 1 894.81 244.04000000000002 L 854.14 244.04000000000002" fill="#9b249b"/><rect x="894.8169999999999" y="162.694" width="81.347" height="81.347" fill="#ffffff"/><rect x="894.82" y="162.69" width="40.67" height="40.67" fill="#ebd3eb"/><path d="M 894.82 203.36 A 40.67 40.67 0 0 0 935.49 162.69 L 894.82 162.69" fill="#b358b3"/><rect x="935.49" y="162.69" width="40.67" height="40.67" fill="#f4e3bb"/><path d="M 935.49 162.69 A 40.67 40.67 0 0 0 976.16 203.36 L 976.16 162.69" fill="#c47dc4"/><rect x="894.82" y="203.37" width="40.67" height="40.67" fill="#f4e3ba"/><path d="M 894.82 203.37 A 40.67 40.67 0 0 1 935.49 244.04000000000002 L 894.82 244.04000000000002" fill="#b964b9"/><rect x="935.49" y="203.37" width="40.67" height="40.67" fill="#faf4fa"/><path d="M 935.49 244.04000000000002 A 40.67 40.67 0 0 1  976.16 203.37 L 976.16 244.04000000000002" fill="#f7eef7"/><rect x="0" y="244.041" width="81.347" height="81.347" fill="#ffffff"/><rect x="0" y="244.04" width="40.67" height="40.67" fill="#910d91"/><polygon points="40.67,244.04 40.67,284.71 0,284.71" fill="#fefdf9"/><rect x="40.67" y="244.04" width="40.67" height="40.67" fill="#a436a4"/><polygon points="40.67,244.04 81.34,244.04 40.67,284.71" fill="#f1ddab"/><rect x="0" y="284.71" width="40.67" height="40.67" fill="#981d98"/><polygon points="0,284.71 40.67,284.71 40.67,325.38" fill="#b45ab4"/><rect x="40.67" y="284.71" width="40.67" height="40.67" fill="#deaf38"/><polygon points="40.67,284.71 81.34,325.38 40.67,325.38" fill="#a840a8"/><rect x="81.347" y="244.041" width="81.347" height="81.347" fill="#ffffff"/><rect x="81.35" y="244.04" width="40.67" height="40.67" fill="#f8efd7"/><path d="M 81.35 284.71 A 40.67 40.67 0 0 1 122.02 244.04 L 122.02 254.20749999999998 A 30.5025 30.5025 0 0 0 91.5175 284.71" fill="#cd91cd"/><rect x="122.02" y="244.04" width="40.67" height="40.67" fill="#bb68bb"/><path d="M 122.02 244.04 A 40.67 40.67 0 0 1 162.69 284.71 L 152.5225 284.71 A 30.5025 30.5025 0 0 0 122.02 254.20749999999998" fill="#dba828"/><rect x="81.35" y="284.71" width="40.67" height="40.67" fill="#fefdfa"/><path d="M 81.35 284.71 A 40.67 40.67 0 0 0 122.02 325.38 L 122.02 315.2125 A 30.5025 30.5025 0 0 1 91.5175 284.71" fill="#ecd18c"/><rect x="122.02" y="284.71" width="40.67" height="40.67" fill="#e5c062"/><path d="M 122.02 325.38 A 40.67 40.67 0 0 0 162.69 284.71 L 152.5225 284.71 A 30.5025 30.5025 0 0 1 122.02 315.2125" fill="#dfb13e"/><rect x="162.69" y="244.04" width="81.35" height="81.35" fill="#d6a4d6"/><rect x="162.69" y="244.04" width="81.35" height="81.35" fill="#f5e6c2"/><rect x="244.04" y="244.04" width="81.35" height="81.35" fill="#f4e3ba"/><rect x="244.04" y="244.04" width="81.35" height="81.35" fill="#a130a1"/><rect x="325.39" y="244.04" width="81.35" height="81.35" fill="#fdfaf3"/><polygon points="406.74,244.04 406.74,325.39 325.39,325.39" fill="#fdfbf5"/><rect x="406.73" y="244.04" width="81.35" height="81.35" fill="#e7c46c"/><path d="M 406.73 244.04 A 81.35 81.35 0 0 0 488.08000000000004 325.39 L 488.08000000000004 244.04" fill="#e4c3e4"/><rect x="488.08" y="244.04" width="81.35" height="81.35" fill="#e9cfe9"/><polygon points="569.43,244.04 569.43,325.39 488.08,325.39" fill="#ffffff"/><rect x="569.429" y="244.041" width="81.347" height="81.347" fill="#ffffff"/><rect x="569.43" y="244.04" width="40.67" height="40.67" fill="#8c018c"/><path d="M 569.43 284.71 A 40.67 40.67 0 0 1  610.0999999999999 244.04 L 610.0999999999999 284.71" fill="#931293"/><rect x="610.1" y="244.04" width="40.67" height="40.67" fill="#d5a2d5"/><path d="M 610.1 244.04 A 40.67 40.67 0 0 1 650.77 284.71 L 610.1 284.71" fill="#f7ebce"/><rect x="569.43" y="284.71" width="40.67" height="40.67" fill="#ebcf89"/><path d="M 569.43 284.71 A 40.67 40.67 0 0 0 610.0999999999999 325.38 L 610.0999999999999 284.71" fill="#fefcf8"/><rect x="610.1" y="284.71" width="40.67" height="40.67" fill="#c178c1"/><path d="M 610.1 325.38 A 40.67 40.67 0 0 0 650.77 284.71 L 610.1 284.71" fill="#dfb8df"/><rect x="650.78" y="244.04" width="81.35" height="81.35" fill="#e0b446"/><rect x="650.78" y="244.04" width="81.35" height="81.35" fill="#f4e4bd"/><rect x="732.1229999999999" y="244.041" width="81.347" height="81.347" fill="#ffffff"/><rect x="732.12" y="244.04" width="40.67" height="40.67" fill="#fefcf8"/><polygon points="772.79,244.04 772.79,284.71 732.12,284.71" fill="#cb8dcb"/><rect x="772.8" y="244.04" width="40.67" height="40.67" fill="#e6c36b"/><polygon points="772.8,244.04 813.4699999999999,244.04 772.8,284.71" fill="#dfb03c"/><rect x="732.12" y="284.71" width="40.67" height="40.67" fill="#f6e9c8"/><polygon points="732.12,284.71 772.79,284.71 772.79,325.38" fill="#f5e6c0"/><rect x="772.8" y="284.71" width="40.67" height="40.67" fill="#dcab2e"/><polygon points="772.8,284.71 813.4699999999999,325.38 772.8,325.38" fill="#e1bde1"/><rect x="813.47" y="244.04" width="81.35" height="81.35" fill="#fdfafd"/><polygon points="813.47,244.04 894.82,244.04 813.47,325.39" fill="#fffefd"/><rect x="894.8169999999999" y="244.041" width="81.347" height="81.347" fill="#ffffff"/><rect x="894.82" y="244.04" width="40.67" height="40.67" fill="#bf72bf"/><path d="M 894.82 244.04 A 40.67 40.67 0 0 0 935.49 284.71 L 935.49 244.04" fill="#ac49ac"/><rect x="935.49" y="244.04" width="40.67" height="40.67" fill="#e4c3e4"/><path d="M 935.49 284.71 A 40.67 40.67 0 0 0 976.16 244.04 L 935.49 244.04" fill="#f3e1b4"/><rect x="894.82" y="284.71" width="40.67" height="40.67" fill="#dbb0db"/><path d="M 894.82 325.38 A 40.67 40.67 0 0 1  935.49 284.71 L 935.49 325.38" fill="#c074c0"/><rect x="935.49" y="284.71" width="40.67" height="40.67" fill="#ebce86"/><path d="M 935.49 284.71 A 40.67 40.67 0 0 1 976.16 325.38 L 935.49 325.38" fill="#9d289d"/><rect x="0" y="325.388" width="81.347" height="81.347" fill="#ffffff"/><rect x="0" y="325.39" width="40.67" height="40.67" fill="#bf72bf"/><circle cx="20.335" cy="345.72499999999997" r="20.335" fill="#f3e1b5"/><rect x="40.67" y="325.39" width="40.67" height="40.67" fill="#d9acd9"/><rect x="40.67" y="325.39" width="40.67" height="40.67" fill="#e2b952"/><rect x="0" y="366.06" width="40.67" height="40.67" fill="#edd391"/><circle cx="20.335" cy="386.395" r="20.335" fill="#941494"/><rect x="40.67" y="366.06" width="40.67" height="40.67" fill="#c074c0"/><rect x="40.67" y="366.06" width="40.67" height="40.67" fill="#b863b8"/><rect x="81.35" y="325.39" width="81.35" height="81.35" fill="#ebd2eb"/><path d="M 81.35 406.74 A 81.35 81.35 0 0 0 162.7 325.39 L 81.35 325.39" fill="#f1dff1"/><rect x="162.694" y="325.388" width="81.347" height="81.347" fill="#ffffff"/><rect x="162.69" y="325.39" width="40.67" height="40.67" fill="#f4e7f4"/><path d="M 162.69 325.39 A 40.67 40.67 0 0 1 203.36 366.06 L 162.69 366.06" fill="#b052b0"/><rect x="203.37" y="325.39" width="40.67" height="40.67" fill="#f1dca8"/><path d="M 203.37 366.06 A 40.67 40.67 0 0 1  244.04000000000002 325.39 L 244.04000000000002 366.06" fill="#e6c267"/><rect x="162.69" y="366.06" width="40.67" height="40.67" fill="#b761b7"/><path d="M 162.69 406.73 A 40.67 40.67 0 0 0 203.36 366.06 L 162.69 366.06" fill="#daafda"/><rect x="203.37" y="366.06" width="40.67" height="40.67" fill="#f7edd2"/><path d="M 203.37 366.06 A 40.67 40.67 0 0 0 244.04000000000002 406.73 L 244.04000000000002 366.06" fill="#eed597"/><rect x="244.04" y="325.39" width="81.35" height="81.35" fill="#e6c268"/><polygon points="244.04,325.39 325.39,406.74 244.04,406.74" fill="#efd9a0"/><rect x="325.388" y="325.388" width="81.347" height="81.347" fill="#ffffff"/><rect x="325.39" y="325.39" width="40.67" height="40.67" fill="#d098d0"/><path d="M 325.39 325.39 A 40.67 40.67 0 0 1 366.06 366.06 L 325.39 366.06" fill="#fcf9ef"/><rect x="366.06" y="325.39" width="40.67" height="40.67" fill="#daadda"/><path d="M 366.06 366.06 A 40.67 40.67 0 0 1  406.73 325.39 L 406.73 366.06" fill="#fcf9fc"/><rect x="325.39" y="366.06" width="40.67" height="40.67" fill="#c886c8"/><path d="M 325.39 406.73 A 40.67 40.67 0 0 0 366.06 366.06 L 325.39 366.06" fill="#eacc7f"/><rect x="366.06" y="366.06" width="40.67" height="40.67" fill="#d7a8d7"/><path d="M 366.06 366.06 A 40.67 40.67 0 0 0 406.73 406.73 L 406.73 366.06" fill="#f1ddab"/><rect x="406.73499999999996" y="325.388" width="81.347" height="81.347" fill="#ffffff"/><rect x="406.73" y="325.39" width="40.67" height="40.67" fill="#e8c672"/><polygon points="447.40000000000003,325.39 447.40000000000003,366.06 406.73,366.06" fill="#8e068e"/><rect x="447.41" y="325.39" width="40.67" height="40.67" fill="#faf4fa"/><polygon points="447.41,325.39 488.08000000000004,366.06 447.41,366.06" fill="#d39fd3"/><rect x="406.73" y="366.06" width="40.67" height="40.67" fill="#a63aa6"/><polygon points="406.73,366.06 447.40000000000003,366.06 447.40000000000003,406.73" fill="#f9f0da"/><rect x="447.41" y="366.06" width="40.67" height="40.67" fill="#fdfbf6"/><polygon points="447.41,366.06 488.08000000000004,366.06 447.41,406.73" fill="#e1b64b"/><rect x="488.082" y="325.388" width="81.347" height="81.347" fill="#ffffff"/><rect x="488.08" y="325.39" width="40.67" height="40.67" fill="#e8cde8"/><path d="M 488.08 366.06 A 40.67 40.67 0 0 1  528.75 325.39 L 528.75 366.06" fill="#f8eed5"/><rect x="528.76" y="325.39" width="40.67" height="40.67" fill="#cb8dcb"/><path d="M 528.76 325.39 A 40.67 40.67 0 0 1 569.43 366.06 L 528.76 366.06" fill="#ba68ba"/><rect x="488.08" y="366.06" width="40.67" height="40.67" fill="#c37bc3"/><path d="M 488.08 366.06 A 40.67 40.67 0 0 0 528.75 406.73 L 528.75 366.06" fill="#e4be5f"/><rect x="528.76" y="366.06" width="40.67" height="40.67" fill="#e2c0e2"/><path d="M 528.76 406.73 A 40.67 40.67 0 0 0 569.43 366.06 L 528.76 366.06" fill="#dcaa2b"/><rect x="569.429" y="325.388" width="81.347" height="81.347" fill="#ffffff"/><rect x="569.43" y="325.39" width="40.67" height="40.67" fill="#bd6fbd"/><circle cx="589.765" cy="345.72499999999997" r="20.335" fill="#e5c6e5"/><rect x="610.1" y="325.39" width="40.67" height="40.67" fill="#ba67ba"/><rect x="610.1" y="325.39" width="40.67" height="40.67" fill="#f4e5bf"/><rect x="569.43" y="366.06" width="40.67" height="40.67" fill="#f5e6c2"/><circle cx="589.765" cy="386.395" r="20.335" fill="#c075c0"/><rect x="610.1" y="366.06" width="40.67" height="40.67" fill="#f8edd4"/><rect x="610.1" y="366.06" width="40.67" height="40.67" fill="#f3e1b4"/><rect x="650.78" y="325.39" width="81.35" height="81.35" fill="#b45ab4"/><rect x="650.78" y="325.39" width="81.35" height="81.35" fill="#ddad34"/><rect x="732.12" y="325.39" width="81.35" height="81.35" fill="#bf71bf"/><polygon points="732.12,325.39 813.47,325.39 732.12,406.74" fill="#f4e4bd"/><rect x="813.4699999999999" y="325.388" width="81.347" height="81.347" fill="#ffffff"/><rect x="813.47" y="325.39" width="40.67" height="40.67" fill="#8f088f"/><polygon points="854.14,325.39 854.14,366.06 813.47,366.06" fill="#f6e8c6"/><rect x="854.14" y="325.39" width="40.67" height="40.67" fill="#fdf9f1"/><polygon points="854.14,325.39 894.81,366.06 854.14,366.06" fill="#e6c268"/><rect x="813.47" y="366.06" width="40.67" height="40.67" fill="#b863b8"/><polygon points="813.47,366.06 854.14,366.06 813.47,406.73" fill="#bb69bb"/><rect x="854.14" y="366.06" width="40.67" height="40.67" fill="#c37bc3"/><polygon points="854.14,366.06 894.81,366.06 894.81,406.73" fill="#f5e6c0"/><rect x="894.82" y="325.39" width="81.35" height="81.35" fill="#f3e3b9"/><polygon points="894.82,325.39 976.1700000000001,406.74 894.82,406.74" fill="#a131a1"/><rect x="0" y="406.73" width="81.35" height="81.35" fill="#d5a3d5"/><rect x="0" y="406.73" width="81.35" height="81.35" fill="#e2bfe2"/><rect x="81.35" y="406.73" width="81.35" height="81.35" fill="#d7a7d7"/><path d="M 81.35 406.73 A 81.35 81.35 0 0 1  162.7 488.08000000000004 L 81.35 406.73 A 81.35 81.35 0 0 0 162.7 488.08000000000004" fill="#deb03b"/><rect x="162.694" y="406.73499999999996" width="81.347" height="81.347" fill="#ffffff"/><rect x="162.69" y="406.73" width="40.67" height="40.67" fill="#e9cee9"/><circle cx="183.025" cy="427.065" r="20.335" fill="#fcf8ed"/><rect x="203.37" y="406.73" width="40.67" height="40.67" fill="#e0b342"/><rect x="203.37" y="406.73" width="40.67" height="40.67" fill="#ffffff"/><rect x="162.69" y="447.41" width="40.67" height="40.67" fill="#ddb3dd"/><circle cx="183.025" cy="467.745" r="20.335" fill="#daa622"/><rect x="203.37" y="447.41" width="40.67" height="40.67" fill="#e0bbe0"/><rect x="203.37" y="447.41" width="40.67" height="40.67" fill="#b051b0"/><rect x="244.04" y="406.73" width="81.35" height="81.35" fill="#cb8ccb"/><path d="M 244.04 406.73 A 81.35 81.35 0 0 1  325.39 488.08000000000004 L 244.04 406.73 A 81.35 81.35 0 0 0 325.39 488.08000000000004" fill="#efd9a0"/><rect x="325.388" y="406.73499999999996" width="81.347" height="81.347" fill="#ffffff"/><rect x="325.39" y="406.73" width="40.67" height="40.67" fill="#dbafdb"/><path d="M 325.39 406.73 A 40.67 40.67 0 0 0 366.06 447.40000000000003 L 366.06 406.73" fill="#f0daa3"/><rect x="366.06" y="406.73" width="40.67" height="40.67" fill="#ce93ce"/><path d="M 366.06 447.40000000000003 A 40.67 40.67 0 0 0 406.73 406.73 L 366.06 406.73" fill="#ecd18d"/><rect x="325.39" y="447.41" width="40.67" height="40.67" fill="#9c249c"/><path d="M 325.39 488.08000000000004 A 40.67 40.67 0 0 1  366.06 447.41 L 366.06 488.08000000000004" fill="#dfb23f"/><rect x="366.06" y="447.41" width="40.67" height="40.67" fill="#e6c7e6"/><path d="M 366.06 447.41 A 40.67 40.67 0 0 1 406.73 488.08000000000004 L 366.06 488.08000000000004" fill="#deb03b"/><rect x="406.73" y="406.73" width="81.35" height="81.35" fill="#e4c3e4"/><path d="M 406.73 406.73 A 81.35 81.35 0 0 0 488.08000000000004 488.08000000000004 L 488.08000000000004 406.73" fill="#cb8ecb"/><rect x="488.082" y="406.73499999999996" width="81.347" height="81.347" fill="#ffffff"/><rect x="488.08" y="406.73" width="40.67" height="40.67" fill="#ddad33"/><path d="M 488.08 406.73 A 40.67 40.67 0 0 1 528.75 447.40000000000003 L 488.08 447.40000000000003" fill="#ddac31"/><rect x="528.76" y="406.73" width="40.67" height="40.67" fill="#dfb13e"/><path d="M 528.76 447.40000000000003 A 40.67 40.67 0 0 1  569.43 406.73 L 569.43 447.40000000000003" fill="#b761b7"/><rect x="488.08" y="447.41" width="40.67" height="40.67" fill="#ead0ea"/><path d="M 488.08 488.08000000000004 A 40.67 40.67 0 0 0 528.75 447.41 L 488.08 447.41" fill="#e5c165"/><rect x="528.76" y="447.41" width="40.67" height="40.67" fill="#e4c3e4"/><path d="M 528.76 447.41 A 40.67 40.67 0 0 0 569.43 488.08000000000004 L 569.43 447.41" fill="#fefdfe"/><rect x="569.429" y="406.73499999999996" width="81.347" height="81.347" fill="#ffffff"/><rect x="569.43" y="406.73" width="40.67" height="40.67" fill="#f7eacc"/><path d="M 569.43 447.40000000000003 A 40.67 40.67 0 0 1 610.0999999999999 406.73 L 610.0999999999999 416.89750000000004 A 30.5025 30.5025 0 0 0 579.5975 447.40000000000003" fill="#e5c165"/><rect x="610.1" y="406.73" width="40.67" height="40.67" fill="#efd79c"/><path d="M 610.1 406.73 A 40.67 40.67 0 0 1 650.77 447.40000000000003 L 640.6025000000001 447.40000000000003 A 30.5025 30.5025 0 0 0 610.1 416.89750000000004" fill="#931293"/><rect x="569.43" y="447.41" width="40.67" height="40.67" fill="#f7ecd0"/><path d="M 569.43 447.41 A 40.67 40.67 0 0 0 610.0999999999999 488.08000000000004 L 610.0999999999999 477.9125 A 30.5025 30.5025 0 0 1 579.5975 447.41" fill="#a131a1"/><rect x="610.1" y="447.41" width="40.67" height="40.67" fill="#f5e8c6"/><path d="M 610.1 488.08000000000004 A 40.67 40.67 0 0 0 650.77 447.41 L 640.6025000000001 447.41 A 30.5025 30.5025 0 0 1 610.1 477.9125" fill="#e4c3e4"/><rect x="650.78" y="406.73" width="81.35" height="81.35" fill="#eed79b"/><polygon points="732.13,406.73 732.13,488.08000000000004 650.78,488.08000000000004" fill="#fcf7ec"/><rect x="732.1229999999999" y="406.73499999999996" width="81.347" height="81.347" fill="#ffffff"/><rect x="732.12" y="406.73" width="40.67" height="40.67" fill="#fcf8ef"/><path d="M 732.12 447.40000000000003 A 40.67 40.67 0 0 0 772.79 406.73 L 732.12 406.73" fill="#d4a0d4"/><rect x="772.8" y="406.73" width="40.67" height="40.67" fill="#ca8aca"/><path d="M 772.8 406.73 A 40.67 40.67 0 0 0 813.4699999999999 447.40000000000003 L 813.4699999999999 406.73" fill="#992099"/><rect x="732.12" y="447.41" width="40.67" height="40.67" fill="#ab47ab"/><path d="M 732.12 447.41 A 40.67 40.67 0 0 1 772.79 488.08000000000004 L 732.12 488.08000000000004" fill="#a233a2"/><rect x="772.8" y="447.41" width="40.67" height="40.67" fill="#daadda"/><path d="M 772.8 488.08000000000004 A 40.67 40.67 0 0 1  813.4699999999999 447.41 L 813.4699999999999 488.08000000000004" fill="#e4bd5b"/><rect x="813.4699999999999" y="406.73499999999996" width="81.347" height="81.347" fill="#ffffff"/><rect x="813.47" y="406.73" width="40.67" height="40.67" fill="#e7c46e"/><path d="M 813.47 447.40000000000003 A 40.67 40.67 0 0 0 854.14 406.73 L 813.47 406.73" fill="#e8c877"/><rect x="854.14" y="406.73" width="40.67" height="40.67" fill="#991f99"/><path d="M 854.14 406.73 A 40.67 40.67 0 0 0 894.81 447.40000000000003 L 894.81 406.73" fill="#b256b2"/><rect x="813.47" y="447.41" width="40.67" height="40.67" fill="#e7cbe7"/><path d="M 813.47 447.41 A 40.67 40.67 0 0 1 854.14 488.08000000000004 L 813.47 488.08000000000004" fill="#edd8ed"/><rect x="854.14" y="447.41" width="40.67" height="40.67" fill="#fcf9fc"/><path d="M 854.14 488.08000000000004 A 40.67 40.67 0 0 1  894.81 447.41 L 894.81 488.08000000000004" fill="#b357b3"/><rect x="894.8169999999999" y="406.73499999999996" width="81.347" height="81.347" fill="#ffffff"/><rect x="894.82" y="406.73" width="40.67" height="40.67" fill="#eacb7e"/><path d="M 894.82 406.73 A 40.67 40.67 0 0 0 935.49 447.40000000000003 L 935.49 406.73" fill="#d9abd9"/><rect x="935.49" y="406.73" width="40.67" height="40.67" fill="#910e91"/><path d="M 935.49 447.40000000000003 A 40.67 40.67 0 0 0 976.16 406.73 L 935.49 406.73" fill="#c074c0"/><rect x="894.82" y="447.41" width="40.67" height="40.67" fill="#ddad35"/><path d="M 894.82 488.08000000000004 A 40.67 40.67 0 0 1  935.49 447.41 L 935.49 488.08000000000004" fill="#faf3fa"/><rect x="935.49" y="447.41" width="40.67" height="40.67" fill="#ebd2eb"/><path d="M 935.49 447.41 A 40.67 40.67 0 0 1 976.16 488.08000000000004 L 935.49 488.08000000000004" fill="#ffffff"/><rect x="0" y="488.08" width="81.35" height="81.35" fill="#f3e2b7"/><path d="M 0 569.43 A 81.35 81.35 0 0 1  81.35 488.08 L 0 569.43 A 81.35 81.35 0 0 0 81.35 488.08" fill="#e8c877"/><rect x="81.347" y="488.082" width="81.347" height="81.347" fill="#ffffff"/><rect x="81.35" y="488.08" width="40.67" height="40.67" fill="#ebce86"/><circle cx="101.685" cy="508.41499999999996" r="20.335" fill="#f1ddac"/><rect x="122.02" y="488.08" width="40.67" height="40.67" fill="#ecd28f"/><rect x="122.02" y="488.08" width="40.67" height="40.67" fill="#e6c8e6"/><rect x="81.35" y="528.76" width="40.67" height="40.67" fill="#ca8aca"/><circle cx="101.685" cy="549.095" r="20.335" fill="#ab47ab"/><rect x="122.02" y="528.76" width="40.67" height="40.67" fill="#daaeda"/><rect x="122.02" y="528.76" width="40.67" height="40.67" fill="#f2dfaf"/><rect x="162.694" y="488.082" width="81.347" height="81.347" fill="#ffffff"/><rect x="162.69" y="488.08" width="40.67" height="40.67" fill="#fffffe"/><polygon points="203.36,488.08 203.36,528.75 162.69,528.75" fill="#eed79b"/><rect x="203.37" y="488.08" width="40.67" height="40.67" fill="#dba828"/><polygon points="203.37,488.08 244.04000000000002,528.75 203.37,528.75" fill="#a130a1"/><rect x="162.69" y="528.76" width="40.67" height="40.67" fill="#e3ba54"/><polygon points="162.69,528.76 203.36,528.76 162.69,569.43" fill="#951695"/><rect x="203.37" y="528.76" width="40.67" height="40.67" fill="#dba828"/><polygon points="203.37,528.76 244.04000000000002,528.76 244.04000000000002,569.43" fill="#fcf7ea"/><rect x="244.041" y="488.082" width="81.347" height="81.347" fill="#ffffff"/><rect x="244.04" y="488.08" width="40.67" height="40.67" fill="#d8aad8"/><polygon points="284.71,488.08 284.71,528.75 244.04,528.75" fill="#e1bde1"/><rect x="284.71" y="488.08" width="40.67" height="40.67" fill="#ecd08b"/><polygon points="284.71,488.08 325.38,528.75 284.71,528.75" fill="#f6e9c8"/><rect x="244.04" y="528.76" width="40.67" height="40.67" fill="#d39dd3"/><polygon points="244.04,528.76 284.71,528.76 284.71,569.43" fill="#f0dba5"/><rect x="284.71" y="528.76" width="40.67" height="40.67" fill="#f2e2f2"/><polygon points="284.71,528.76 325.38,528.76 284.71,569.43" fill="#e1bde1"/><rect x="325.388" y="488.082" width="81.347" height="81.347" fill="#ffffff"/><rect x="325.39" y="488.08" width="40.67" height="40.67" fill="#d8aad8"/><path d="M 325.39 528.75 A 40.67 40.67 0 0 0 366.06 488.08 L 325.39 488.08" fill="#f2e1b4"/><rect x="366.06" y="488.08" width="40.67" height="40.67" fill="#f1e0f1"/><path d="M 366.06 488.08 A 40.67 40.67 0 0 0 406.73 528.75 L 406.73 488.08" fill="#f2dfb0"/><rect x="325.39" y="528.76" width="40.67" height="40.67" fill="#ead1ea"/><path d="M 325.39 528.76 A 40.67 40.67 0 0 1 366.06 569.43 L 325.39 569.43" fill="#f0dba7"/><rect x="366.06" y="528.76" width="40.67" height="40.67" fill="#ebd3eb"/><path d="M 366.06 569.43 A 40.67 40.67 0 0 1  406.73 528.76 L 406.73 569.43" fill="#ecd6ec"/><rect x="406.73" y="488.08" width="81.35" height="81.35" fill="#e3bc59"/><path d="M 406.73 488.08 A 81.35 81.35 0 0 0 488.08000000000004 569.43 L 488.08000000000004 488.08" fill="#f6e8c7"/><rect x="488.082" y="488.082" width="81.347" height="81.347" fill="#ffffff"/><rect x="488.08" y="488.08" width="40.67" height="40.67" fill="#edd392"/><path d="M 488.08 488.08 A 40.67 40.67 0 0 0 528.75 528.75 L 528.75 488.08" fill="#efdcef"/><rect x="528.76" y="488.08" width="40.67" height="40.67" fill="#f9f0da"/><path d="M 528.76 528.75 A 40.67 40.67 0 0 0 569.43 488.08 L 528.76 488.08" fill="#c47ec4"/><rect x="488.08" y="528.76" width="40.67" height="40.67" fill="#f7ecd0"/><path d="M 488.08 569.43 A 40.67 40.67 0 0 1  528.75 528.76 L 528.75 569.43" fill="#c176c1"/><rect x="528.76" y="528.76" width="40.67" height="40.67" fill="#f1dff1"/><path d="M 528.76 528.76 A 40.67 40.67 0 0 1 569.43 569.43 L 528.76 569.43" fill="#a53aa5"/><rect x="569.43" y="488.08" width="81.35" height="81.35" fill="#f1dca8"/><rect x="569.43" y="488.08" width="81.35" height="81.35" fill="#f4e5be"/><rect x="650.776" y="488.082" width="81.347" height="81.347" fill="#ffffff"/><rect x="650.78" y="488.08" width="40.67" height="40.67" fill="#b862b8"/><polygon points="691.4499999999999,488.08 691.4499999999999,528.75 650.78,528.75" fill="#f0dba6"/><rect x="691.45" y="488.08" width="40.67" height="40.67" fill="#aa44aa"/><polygon points="691.45,488.08 732.12,528.75 691.45,528.75" fill="#c580c5"/><rect x="650.78" y="528.76" width="40.67" height="40.67" fill="#dfb13d"/><polygon points="650.78,528.76 691.4499999999999,528.76 650.78,569.43" fill="#f8efd8"/><rect x="691.45" y="528.76" width="40.67" height="40.67" fill="#dfb8df"/><polygon points="691.45,528.76 732.12,528.76 732.12,569.43" fill="#b964b9"/><rect x="732.12" y="488.08" width="81.35" height="81.35" fill="#ebd2eb"/><rect x="732.12" y="488.08" width="81.35" height="81.35" fill="#e3ba54"/><rect x="813.4699999999999" y="488.082" width="81.347" height="81.347" fill="#ffffff"/><rect x="813.47" y="488.08" width="40.67" height="40.67" fill="#dfb8df"/><polygon points="854.14,488.08 854.14,528.75 813.47,528.75" fill="#d19ad1"/><rect x="854.14" y="488.08" width="40.67" height="40.67" fill="#e7c671"/><polygon points="854.14,488.08 894.81,528.75 854.14,528.75" fill="#f8edd2"/><rect x="813.47" y="528.76" width="40.67" height="40.67" fill="#f3e1b4"/><polygon points="813.47,528.76 854.14,528.76 813.47,569.43" fill="#f9efd8"/><rect x="854.14" y="528.76" width="40.67" height="40.67" fill="#e3ba54"/><polygon points="854.14,528.76 894.81,528.76 894.81,569.43" fill="#f4e4bd"/><rect x="894.82" y="488.08" width="81.35" height="81.35" fill="#eed597"/><path d="M 894.82 569.43 A 81.35 81.35 0 0 0 976.1700000000001 488.08 L 894.82 488.08" fill="#d39fd3"/></g></svg>