<?xml version="1.0" standalone="no"?><svg xmlns:xlink="http://www.w3.org/1999/xlink" xmlns="http://www.w3.org/2000/svg" viewBox="0 0 1000 583.335126070392" preserveAspectRatio="xMaxYMax slice"><g transform="scale(1.0244211764247906)"><rect x="0" y="0" width="976.164" height="569.429" fill="#ffffff"/><rect x="0" y="0" width="81.347" height="81.347" fill="#ffffff"/><rect x="0" y="0" width="40.67" height="40.67" fill="#fd763a"/><path d="M 0 0 A 40.67 40.67 0 0 1 40.67 40.67 L 0 40.67" fill="#d7d6e3"/><rect x="40.67" y="0" width="40.67" height="40.67" fill="#ffdfd1"/><path d="M 40.67 40.67 A 40.67 40.67 0 0 1  81.34 0 L 81.34 40.67" fill="#d8d6e3"/><rect x="0" y="40.67" width="40.67" height="40.67" fill="#fd7539"/><path d="M 0 81.34 A 40.67 40.67 0 0 0 40.67 40.67 L 0 40.67" fill="#30286b"/><rect x="40.67" y="40.67" width="40.67" height="40.67" fill="#b9b6cd"/><path d="M 40.67 40.67 A 40.67 40.67 0 0 0 81.34 81.34 L 81.34 40.67" fill="#9490b3"/><rect x="81.347" y="0" width="81.347" height="81.347" fill="#ffffff"/><rect x="81.35" y="0" width="40.67" height="40.67" fill="#fffcfb"/><polygon points="122.02,0 122.02,40.67 81.35,40.67" fill="#a39fbd"/><rect x="122.02" y="0" width="40.67" height="40.67" fill="#a4a0be"/><polygon points="122.02,0 162.69,40.67 122.02,40.67" fill="#fe9d72"/><rect x="81.35" y="40.67" width="40.67" height="40.67" fill="#3c3474"/><polygon points="81.35,40.67 122.02,40.67 81.35,81.34" fill="#fec9b1"/><rect x="122.02" y="40.67" width="40.67" height="40.67" fill="#575087"/><polygon points="122.02,40.67 162.69,40.67 162.69,81.34" fill="#b2aec8"/><rect x="162.69" y="0" width="81.35" height="81.35" fill="#9893b5"/><polygon points="244.04,0 244.04,81.35 162.69,81.35" fill="#ffdfd1"/><rect x="244.04" y="0" width="81.35" height="81.35" fill="#5c558a"/><rect x="244.04" y="0" width="81.35" height="81.35" fill="#9792b5"/><rect x="325.388" y="0" width="81.347" height="81.347" fill="#ffffff"/><rect x="325.39" y="0" width="40.67" height="40.67" fill="#ffe6db"/><polygon points="366.06,0 366.06,40.67 325.39,40.67" fill="#4f4881"/><rect x="366.06" y="0" width="40.67" height="40.67" fill="#ffe9e0"/><polygon points="366.06,0 406.73,40.67 366.06,40.67" fill="#ceccdc"/><rect x="325.39" y="40.67" width="40.67" height="40.67" fill="#a5a1bf"/><polygon points="325.39,40.67 366.06,40.67 325.39,81.34" fill="#726c9a"/><rect x="366.06" y="40.67" width="40.67" height="40.67" fill="#a9a5c1"/><polygon points="366.06,40.67 406.73,40.67 406.73,81.34" fill="#5f598d"/><rect x="406.73" y="0" width="81.35" height="81.35" fill="#fec5ab"/><path d="M 406.73 0 A 81.35 81.35 0 0 0 488.08000000000004 81.35 L 488.08000000000004 0" fill="#fe9465"/><rect x="488.08" y="0" width="81.35" height="81.35" fill="#110855"/><polygon points="569.43,0 569.43,81.35 488.08,81.35" fill="#f2f1f5"/><rect x="569.43" y="0" width="81.35" height="81.35" fill="#f0eff4"/><rect x="569.43" y="0" width="81.35" height="81.35" fill="#221961"/><rect x="650.78" y="0" width="81.35" height="81.35" fill="#565087"/><rect x="650.78" y="0" width="81.35" height="81.35" fill="#605a8e"/><rect x="732.12" y="0" width="81.35" height="81.35" fill="#9692b4"/><rect x="732.12" y="0" width="81.35" height="81.35" fill="#fd6b29"/><rect x="813.4699999999999" y="0" width="81.347" height="81.347" fill="#ffffff"/><rect x="813.47" y="0" width="40.67" height="40.67" fill="#a9a5c1"/><path d="M 813.47 0 A 40.67 40.67 0 0 1 854.14 40.67 L 813.47 40.67" fill="#a39fbd"/><rect x="854.14" y="0" width="40.67" height="40.67" fill="#fd6b2a"/><path d="M 854.14 40.67 A 40.67 40.67 0 0 1  894.81 0 L 894.81 40.67" fill="#fd7538"/><rect x="813.47" y="40.67" width="40.67" height="40.67" fill="#b3b0c9"/><path d="M 813.47 81.34 A 40.67 40.67 0 0 0 854.14 40.67 L 813.47 40.67" fill="#fd621e"/><rect x="854.14" y="40.67" width="40.67" height="40.67" fill="#fd6521"/><path d="M 854.14 40.67 A 40.67 40.67 0 0 0 894.81 81.34 L 894.81 40.67" fill="#fd6f2f"/><rect x="894.8169999999999" y="0" width="81.347" height="81.347" fill="#ffffff"/><rect x="894.82" y="0" width="40.67" height="40.67" fill="#fe9263"/><path d="M 894.82 0 A 40.67 40.67 0 0 0 935.49 40.67 L 935.49 0" fill="#fd7b42"/><rect x="935.49" y="0" width="40.67" height="40.67" fill="#fd6f30"/><path d="M 935.49 40.67 A 40.67 40.67 0 0 0 976.16 0 L 935.49 0" fill="#908bb0"/><rect x="894.82" y="40.67" width="40.67" height="40.67" fill="#0a0050"/><path d="M 894.82 81.34 A 40.67 40.67 0 0 1  935.49 40.67 L 935.49 81.34" fill="#79739f"/><rect x="935.49" y="40.67" width="40.67" height="40.67" fill="#9893b5"/><path d="M 935.49 40.67 A 40.67 40.67 0 0 1 976.16 81.34 L 935.49 81.34" fill="#ffd4c1"/><rect x="0" y="81.347" width="81.347" height="81.347" fill="#ffffff"/><rect x="0" y="81.35" width="40.67" height="40.67" fill="#fea279"/><polygon points="40.67,81.35 40.67,122.02 0,122.02" fill="#feb08e"/><rect x="40.67" y="81.35" width="40.67" height="40.67" fill="#7a74a0"/><polygon points="40.67,81.35 81.34,122.02 40.67,122.02" fill="#fd6927"/><rect x="0" y="122.02" width="40.67" height="40.67" fill="#f1f1f5"/><polygon points="0,122.02 40.67,122.02 40.67,162.69" fill="#77719e"/><rect x="40.67" y="122.02" width="40.67" height="40.67" fill="#fe9b6f"/><polygon points="40.67,122.02 81.34,122.02 40.67,162.69" fill="#b7b4cb"/><rect x="81.35" y="81.35" width="81.35" height="81.35" fill="#fd5c14"/><path d="M 81.35 162.7 A 81.35 81.35 0 0 1  162.7 81.35 L 81.35 162.7 A 81.35 81.35 0 0 0 162.7 81.35" fill="#554e86"/><rect x="162.694" y="81.347" width="81.347" height="81.347" fill="#ffffff"/><rect x="162.69" y="81.35" width="40.67" height="40.67" fill="#febda0"/><path d="M 162.69 122.02 A 40.67 40.67 0 0 0 203.36 81.35 L 162.69 81.35" fill="#fff8f4"/><rect x="203.37" y="81.35" width="40.67" height="40.67" fill="#fe8a57"/><path d="M 203.37 81.35 A 40.67 40.67 0 0 0 244.04000000000002 122.02 L 244.04000000000002 81.35" fill="#feb18f"/><rect x="162.69" y="122.02" width="40.67" height="40.67" fill="#fd560c"/><path d="M 162.69 122.02 A 40.67 40.67 0 0 1 203.36 162.69 L 162.69 162.69" fill="#3b3373"/><rect x="203.37" y="122.02" width="40.67" height="40.67" fill="#6a6495"/><path d="M 203.37 162.69 A 40.67 40.67 0 0 1  244.04000000000002 122.02 L 244.04000000000002 162.69" fill="#fe8a57"/><rect x="244.041" y="81.347" width="81.347" height="81.347" fill="#ffffff"/><rect x="244.04" y="81.35" width="40.67" height="40.67" fill="#fff9f6"/><polygon points="284.71,81.35 284.71,122.02 244.04,122.02" fill="#d6d5e2"/><rect x="284.71" y="81.35" width="40.67" height="40.67" fill="#bab8ce"/><polygon points="284.71,81.35 325.38,122.02 284.71,122.02" fill="#c6c4d7"/><rect x="244.04" y="122.02" width="40.67" height="40.67" fill="#585188"/><polygon points="244.04,122.02 284.71,122.02 244.04,162.69" fill="#ebeaf1"/><rect x="284.71" y="122.02" width="40.67" height="40.67" fill="#d6d5e2"/><polygon points="284.71,122.02 325.38,122.02 325.38,162.69" fill="#fd7133"/><rect x="325.39" y="81.35" width="81.35" height="81.35" fill="#fe8955"/><polygon points="325.39,81.35 406.74,162.7 325.39,162.7" fill="#ffebe2"/><rect x="406.73499999999996" y="81.347" width="81.347" height="81.347" fill="#ffffff"/><rect x="406.73" y="81.35" width="40.67" height="40.67" fill="#bfbcd1"/><path d="M 406.73 81.35 A 40.67 40.67 0 0 1 447.40000000000003 122.02 L 406.73 122.02" fill="#ffd9c8"/><rect x="447.41" y="81.35" width="40.67" height="40.67" fill="#fe8e5d"/><path d="M 447.41 122.02 A 40.67 40.67 0 0 1  488.08000000000004 81.35 L 488.08000000000004 122.02" fill="#686293"/><rect x="406.73" y="122.02" width="40.67" height="40.67" fill="#bab7ce"/><path d="M 406.73 162.69 A 40.67 40.67 0 0 0 447.40000000000003 122.02 L 406.73 122.02" fill="#f0eff4"/><rect x="447.41" y="122.02" width="40.67" height="40.67" fill="#fd773b"/><path d="M 447.41 122.02 A 40.67 40.67 0 0 0 488.08000000000004 162.69 L 488.08000000000004 122.02" fill="#fd6521"/><rect x="488.08" y="81.35" width="81.35" height="81.35" fill="#6a6495"/><path d="M 488.08 162.7 A 81.35 81.35 0 0 0 569.43 81.35 L 488.08 81.35" fill="#fff8f5"/><rect x="569.429" y="81.347" width="81.347" height="81.347" fill="#ffffff"/><rect x="569.43" y="81.35" width="40.67" height="40.67" fill="#a7a3c0"/><path d="M 569.43 122.02 A 40.67 40.67 0 0 1  610.0999999999999 81.35 L 610.0999999999999 122.02" fill="#8d89ae"/><rect x="610.1" y="81.35" width="40.67" height="40.67" fill="#78729f"/><path d="M 610.1 81.35 A 40.67 40.67 0 0 1 650.77 122.02 L 610.1 122.02" fill="#fe854f"/><rect x="569.43" y="122.02" width="40.67" height="40.67" fill="#feb18f"/><path d="M 569.43 122.02 A 40.67 40.67 0 0 0 610.0999999999999 162.69 L 610.0999999999999 122.02" fill="#7d77a2"/><rect x="610.1" y="122.02" width="40.67" height="40.67" fill="#a9a6c2"/><path d="M 610.1 162.69 A 40.67 40.67 0 0 0 650.77 122.02 L 610.1 122.02" fill="#fd5b14"/><rect x="650.78" y="81.35" width="81.35" height="81.35" fill="#fd5003"/><polygon points="732.13,81.35 732.13,162.7 650.78,162.7" fill="#221961"/><rect x="732.1229999999999" y="81.347" width="81.347" height="81.347" fill="#ffffff"/><rect x="732.12" y="81.35" width="40.67" height="40.67" fill="#fec1a6"/><polygon points="772.79,81.35 772.79,122.02 732.12,122.02" fill="#ffe8de"/><rect x="772.8" y="81.35" width="40.67" height="40.67" fill="#ffddcd"/><polygon points="772.8,81.35 813.4699999999999,122.02 772.8,122.02" fill="#e1e0ea"/><rect x="732.12" y="122.02" width="40.67" height="40.67" fill="#cccada"/><polygon points="732.12,122.02 772.79,122.02 772.79,162.69" fill="#4a427e"/><rect x="772.8" y="122.02" width="40.67" height="40.67" fill="#febea1"/><polygon points="772.8,122.02 813.4699999999999,122.02 772.8,162.69" fill="#75709d"/><rect x="813.47" y="81.35" width="81.35" height="81.35" fill="#150c58"/><polygon points="813.47,81.35 894.82,81.35 894.82,162.7" fill="#bab7ce"/><rect x="894.8169999999999" y="81.347" width="81.347" height="81.347" fill="#ffffff"/><rect x="894.82" y="81.35" width="40.67" height="40.67" fill="#fff6f2"/><path d="M 894.82 81.35 A 40.67 40.67 0 0 0 935.49 122.02 L 935.49 81.35" fill="#fff6f2"/><rect x="935.49" y="81.35" width="40.67" height="40.67" fill="#fe844d"/><path d="M 935.49 122.02 A 40.67 40.67 0 0 0 976.16 81.35 L 935.49 81.35" fill="#c9c7d9"/><rect x="894.82" y="122.02" width="40.67" height="40.67" fill="#fd5f19"/><path d="M 894.82 162.69 A 40.67 40.67 0 0 1  935.49 122.02 L 935.49 162.69" fill="#1b125c"/><rect x="935.49" y="122.02" width="40.67" height="40.67" fill="#403977"/><path d="M 935.49 122.02 A 40.67 40.67 0 0 1 976.16 162.69 L 935.49 162.69" fill="#d3d1df"/><rect x="0" y="162.69" width="81.35" height="81.35" fill="#fe986b"/><rect x="0" y="162.69" width="81.35" height="81.35" fill="#fd7a40"/><rect x="81.347" y="162.694" width="81.347" height="81.347" fill="#ffffff"/><rect x="81.35" y="162.69" width="40.67" height="40.67" fill="#6c6696"/><polygon points="122.02,162.69 122.02,203.36 81.35,203.36" fill="#8c87ad"/><rect x="122.02" y="162.69" width="40.67" height="40.67" fill="#2d2569"/><polygon points="122.02,162.69 162.69,203.36 122.02,203.36" fill="#201760"/><rect x="81.35" y="203.37" width="40.67" height="40.67" fill="#fe814a"/><polygon points="81.35,203.37 122.02,203.37 81.35,244.04000000000002" fill="#5d568b"/><rect x="122.02" y="203.37" width="40.67" height="40.67" fill="#fec9b1"/><polygon points="122.02,203.37 162.69,203.37 162.69,244.04000000000002" fill="#fd6019"/><rect x="162.694" y="162.694" width="81.347" height="81.347" fill="#ffffff"/><rect x="162.69" y="162.69" width="40.67" height="40.67" fill="#b1aec8"/><polygon points="203.36,162.69 203.36,203.36 162.69,203.36" fill="#fe8a57"/><rect x="203.37" y="162.69" width="40.67" height="40.67" fill="#79749f"/><polygon points="203.37,162.69 244.04000000000002,162.69 203.37,203.36" fill="#feb18e"/><rect x="162.69" y="203.37" width="40.67" height="40.67" fill="#ffede5"/><polygon points="162.69,203.37 203.36,203.37 203.36,244.04000000000002" fill="#aaa7c2"/><rect x="203.37" y="203.37" width="40.67" height="40.67" fill="#feb696"/><polygon points="203.37,203.37 244.04000000000002,244.04000000000002 203.37,244.04000000000002" fill="#b1aec8"/><rect x="244.041" y="162.694" width="81.347" height="81.347" fill="#ffffff"/><rect x="244.04" y="162.69" width="40.67" height="40.67" fill="#625c8f"/><path d="M 244.04 162.69 A 40.67 40.67 0 0 1 284.71 203.36 L 244.04 203.36" fill="#fea47c"/><rect x="284.71" y="162.69" width="40.67" height="40.67" fill="#a19dbc"/><path d="M 284.71 203.36 A 40.67 40.67 0 0 1  325.38 162.69 L 325.38 203.36" fill="#efeef4"/><rect x="244.04" y="203.37" width="40.67" height="40.67" fill="#fe854f"/><path d="M 244.04 244.04000000000002 A 40.67 40.67 0 0 0 284.71 203.37 L 244.04 203.37" fill="#9490b3"/><rect x="284.71" y="203.37" width="40.67" height="40.67" fill="#403877"/><path d="M 284.71 203.37 A 40.67 40.67 0 0 0 325.38 244.04000000000002 L 325.38 203.37" fill="#75709d"/><rect x="325.39" y="162.69" width="81.35" height="81.35" fill="#595289"/><path d="M 325.39 162.69 A 81.35 81.35 0 0 1  406.74 244.04 L 325.39 162.69 A 81.35 81.35 0 0 0 406.74 244.04" fill="#ffd4c1"/><rect x="406.73499999999996" y="162.694" width="81.347" height="81.347" fill="#ffffff"/><rect x="406.73" y="162.69" width="40.67" height="40.67" fill="#fd5a11"/><polygon points="447.40000000000003,162.69 447.40000000000003,203.36 406.73,203.36" fill="#aba8c3"/><rect x="447.41" y="162.69" width="40.67" height="40.67" fill="#fd6927"/><polygon points="447.41,162.69 488.08000000000004,203.36 447.41,203.36" fill="#fe8d5b"/><rect x="406.73" y="203.37" width="40.67" height="40.67" fill="#fec6ad"/><polygon points="406.73,203.37 447.40000000000003,203.37 406.73,244.04000000000002" fill="#ffd7c6"/><rect x="447.41" y="203.37" width="40.67" height="40.67" fill="#feab85"/><polygon points="447.41,203.37 488.08000000000004,203.37 488.08000000000004,244.04000000000002" fill="#564f86"/><rect x="488.08" y="162.69" width="81.35" height="81.35" fill="#fd6521"/><rect x="488.08" y="162.69" width="81.35" height="81.35" fill="#d3d2e0"/><rect x="569.429" y="162.694" width="81.347" height="81.347" fill="#ffffff"/><rect x="569.43" y="162.69" width="40.67" height="40.67" fill="#feab86"/><path d="M 569.43 203.36 A 40.67 40.67 0 0 1  610.0999999999999 162.69 L 610.0999999999999 203.36" fill="#e9e8ef"/><rect x="610.1" y="162.69" width="40.67" height="40.67" fill="#fecbb4"/><path d="M 610.1 162.69 A 40.67 40.67 0 0 1 650.77 203.36 L 610.1 203.36" fill="#ffe7dd"/><rect x="569.43" y="203.37" width="40.67" height="40.67" fill="#342c6e"/><path d="M 569.43 203.37 A 40.67 40.67 0 0 0 610.0999999999999 244.04000000000002 L 610.0999999999999 203.37" fill="#544d85"/><rect x="610.1" y="203.37" width="40.67" height="40.67" fill="#fe844d"/><path d="M 610.1 244.04000000000002 A 40.67 40.67 0 0 0 650.77 203.37 L 610.1 203.37" fill="#ffeae0"/><rect x="650.78" y="162.69" width="81.35" height="81.35" fill="#4b447e"/><polygon points="650.78,162.69 732.13,162.69 650.78,244.04" fill="#fec8b0"/><rect x="732.12" y="162.69" width="81.35" height="81.35" fill="#fff0ea"/><rect x="732.12" y="162.69" width="81.35" height="81.35" fill="#afacc6"/><rect x="813.47" y="162.69" width="81.35" height="81.35" fill="#7a75a0"/><rect x="813.47" y="162.69" width="81.35" height="81.35" fill="#fd631e"/><rect x="894.8169999999999" y="162.694" width="81.347" height="81.347" fill="#ffffff"/><rect x="894.82" y="162.69" width="40.67" height="40.67" fill="#fec5ac"/><path d="M 894.82 162.69 A 40.67 40.67 0 0 1 935.49 203.36 L 894.82 203.36" fill="#78739f"/><rect x="935.49" y="162.69" width="40.67" height="40.67" fill="#fe7c42"/><path d="M 935.49 203.36 A 40.67 40.67 0 0 1  976.16 162.69 L 976.16 203.36" fill="#e3e2eb"/><rect x="894.82" y="203.37" width="40.67" height="40.67" fill="#b7b4cc"/><path d="M 894.82 244.04000000000002 A 40.67 40.67 0 0 0 935.49 203.37 L 894.82 203.37" fill="#fd6b2a"/><rect x="935.49" y="203.37" width="40.67" height="40.67" fill="#fd7b40"/><path d="M 935.49 203.37 A 40.67 40.67 0 0 0 976.16 244.04000000000002 L 976.16 203.37" fill="#6c6696"/><rect x="0" y="244.04" width="81.35" height="81.35" fill="#fd7234"/><rect x="0" y="244.04" width="81.35" height="81.35" fill="#fe9262"/><rect x="81.347" y="244.041" width="81.347" height="81.347" fill="#ffffff"/><rect x="81.35" y="244.04" width="40.67" height="40.67" fill="#fead89"/><polygon points="122.02,244.04 122.02,284.71 81.35,284.71" fill="#feb493"/><rect x="122.02" y="244.04" width="40.67" height="40.67" fill="#feac88"/><polygon points="122.02,244.04 162.69,284.71 122.02,284.71" fill="#fed1bd"/><rect x="81.35" y="284.71" width="40.67" height="40.67" fill="#fea177"/><polygon points="81.35,284.71 122.02,284.71 81.35,325.38" fill="#fd6f2f"/><rect x="122.02" y="284.71" width="40.67" height="40.67" fill="#afabc6"/><polygon points="122.02,284.71 162.69,284.71 162.69,325.38" fill="#fd6f30"/><rect x="162.69" y="244.04" width="81.35" height="81.35" fill="#b6b3cb"/><polygon points="162.69,244.04 244.04,325.39 162.69,325.39" fill="#fea47d"/><rect x="244.041" y="244.041" width="81.347" height="81.347" fill="#ffffff"/><rect x="244.04" y="244.04" width="40.67" height="40.67" fill="#fd7c42"/><path d="M 244.04 284.71 A 40.67 40.67 0 0 1  284.71 244.04 L 284.71 284.71" fill="#443c79"/><rect x="284.71" y="244.04" width="40.67" height="40.67" fill="#b8b6cd"/><path d="M 284.71 244.04 A 40.67 40.67 0 0 1 325.38 284.71 L 284.71 284.71" fill="#fffefe"/><rect x="244.04" y="284.71" width="40.67" height="40.67" fill="#c5c3d6"/><path d="M 244.04 284.71 A 40.67 40.67 0 0 0 284.71 325.38 L 284.71 284.71" fill="#1b125c"/><rect x="284.71" y="284.71" width="40.67" height="40.67" fill="#d8d6e3"/><path d="M 284.71 325.38 A 40.67 40.67 0 0 0 325.38 284.71 L 284.71 284.71" fill="#fe9769"/><rect x="325.388" y="244.041" width="81.347" height="81.347" fill="#ffffff"/><rect x="325.39" y="244.04" width="40.67" height="40.67" fill="#cac8d9"/><polygon points="366.06,244.04 366.06,284.71 325.39,284.71" fill="#febea1"/><rect x="366.06" y="244.04" width="40.67" height="40.67" fill="#fe9465"/><polygon points="366.06,244.04 406.73,244.04 366.06,284.71" fill="#fe996c"/><rect x="325.39" y="284.71" width="40.67" height="40.67" fill="#2b2368"/><polygon points="325.39,284.71 366.06,284.71 366.06,325.38" fill="#a4a1be"/><rect x="366.06" y="284.71" width="40.67" height="40.67" fill="#f4f4f7"/><polygon points="366.06,284.71 406.73,325.38 366.06,325.38" fill="#fea077"/><rect x="406.73" y="244.04" width="81.35" height="81.35" fill="#fe8954"/><polygon points="406.73,244.04 488.08000000000004,244.04 406.73,325.39" fill="#7b75a0"/><rect x="488.082" y="244.041" width="81.347" height="81.347" fill="#ffffff"/><rect x="488.08" y="244.04" width="40.67" height="40.67" fill="#fd6c2c"/><path d="M 488.08 244.04 A 40.67 40.67 0 0 1 528.75 284.71 L 488.08 284.71" fill="#3d3575"/><rect x="528.76" y="244.04" width="40.67" height="40.67" fill="#fecdb6"/><path d="M 528.76 284.71 A 40.67 40.67 0 0 1  569.43 244.04 L 569.43 284.71" fill="#9c98b8"/><rect x="488.08" y="284.71" width="40.67" height="40.67" fill="#676193"/><path d="M 488.08 325.38 A 40.67 40.67 0 0 0 528.75 284.71 L 488.08 284.71" fill="#ffd7c6"/><rect x="528.76" y="284.71" width="40.67" height="40.67" fill="#b5b1ca"/><path d="M 528.76 284.71 A 40.67 40.67 0 0 0 569.43 325.38 L 569.43 284.71" fill="#fffcfb"/><rect x="569.429" y="244.041" width="81.347" height="81.347" fill="#ffffff"/><rect x="569.43" y="244.04" width="40.67" height="40.67" fill="#322a6d"/><polygon points="610.0999999999999,244.04 610.0999999999999,284.71 569.43,284.71" fill="#fe9a6e"/><rect x="610.1" y="244.04" width="40.67" height="40.67" fill="#362e6f"/><polygon points="610.1,244.04 650.77,284.71 610.1,284.71" fill="#fd7031"/><rect x="569.43" y="284.71" width="40.67" height="40.67" fill="#8f8baf"/><polygon points="569.43,284.71 610.0999999999999,284.71 569.43,325.38" fill="#dbdae5"/><rect x="610.1" y="284.71" width="40.67" height="40.67" fill="#9490b3"/><polygon points="610.1,284.71 650.77,284.71 650.77,325.38" fill="#f4f4f7"/><rect x="650.776" y="244.041" width="81.347" height="81.347" fill="#ffffff"/><rect x="650.78" y="244.04" width="40.67" height="40.67" fill="#fd580f"/><path d="M 650.78 284.71 A 40.67 40.67 0 0 1 691.4499999999999 244.04 L 691.4499999999999 254.20749999999998 A 30.5025 30.5025 0 0 0 660.9475 284.71" fill="#fe9466"/><rect x="691.45" y="244.04" width="40.67" height="40.67" fill="#fd6622"/><path d="M 691.45 244.04 A 40.67 40.67 0 0 1 732.12 284.71 L 721.9525000000001 284.71 A 30.5025 30.5025 0 0 0 691.45 254.20749999999998" fill="#fec5ab"/><rect x="650.78" y="284.71" width="40.67" height="40.67" fill="#feae8a"/><path d="M 650.78 284.71 A 40.67 40.67 0 0 0 691.4499999999999 325.38 L 691.4499999999999 315.2125 A 30.5025 30.5025 0 0 1 660.9475 284.71" fill="#feba9c"/><rect x="691.45" y="284.71" width="40.67" height="40.67" fill="#fd6622"/><path d="M 691.45 325.38 A 40.67 40.67 0 0 0 732.12 284.71 L 721.9525000000001 284.71 A 30.5025 30.5025 0 0 1 691.45 315.2125" fill="#fe905f"/><rect x="732.12" y="244.04" width="81.35" height="81.35" fill="#fe9668"/><rect x="732.12" y="244.04" width="81.35" height="81.35" fill="#fd5d15"/><rect x="813.4699999999999" y="244.041" width="81.347" height="81.347" fill="#ffffff"/><rect x="813.47" y="244.04" width="40.67" height="40.67" fill="#fd6e2f"/><path d="M 813.47 284.71 A 40.67 40.67 0 0 1 854.14 244.04 L 854.14 254.20749999999998 A 30.5025 30.5025 0 0 0 823.6375 284.71" fill="#1f165f"/><rect x="854.14" y="244.04" width="40.67" height="40.67" fill="#8b86ac"/><path d="M 854.14 244.04 A 40.67 40.67 0 0 1 894.81 284.71 L 884.6425 284.71 A 30.5025 30.5025 0 0 0 854.14 254.20749999999998" fill="#736d9b"/><rect x="813.47" y="284.71" width="40.67" height="40.67" fill="#938eb2"/><path d="M 813.47 284.71 A 40.67 40.67 0 0 0 854.14 325.38 L 854.14 315.2125 A 30.5025 30.5025 0 0 1 823.6375 284.71" fill="#ffdbcb"/><rect x="854.14" y="284.71" width="40.67" height="40.67" fill="#dad8e4"/><path d="M 854.14 325.38 A 40.67 40.67 0 0 0 894.81 284.71 L 884.6425 284.71 A 30.5025 30.5025 0 0 1 854.14 315.2125" fill="#fd6e2e"/><rect x="894.82" y="244.04" width="81.35" height="81.35" fill="#372f70"/><path d="M 894.82 325.39 A 81.35 81.35 0 0 1  976.1700000000001 244.04 L 894.82 325.39 A 81.35 81.35 0 0 0 976.1700000000001 244.04" fill="#554e86"/><rect x="0" y="325.388" width="81.347" height="81.347" fill="#ffffff"/><rect x="0" y="325.39" width="40.67" height="40.67" fill="#feb493"/><path d="M 0 325.39 A 40.67 40.67 0 0 1 40.67 366.06 L 0 366.06" fill="#686293"/><rect x="40.67" y="325.39" width="40.67" height="40.67" fill="#9591b4"/><path d="M 40.67 366.06 A 40.67 40.67 0 0 1  81.34 325.39 L 81.34 366.06" fill="#fd6724"/><rect x="0" y="366.06" width="40.67" height="40.67" fill="#fe8955"/><path d="M 0 406.73 A 40.67 40.67 0 0 0 40.67 366.06 L 0 366.06" fill="#feba9c"/><rect x="40.67" y="366.06" width="40.67" height="40.67" fill="#281f65"/><path d="M 40.67 366.06 A 40.67 40.67 0 0 0 81.34 406.73 L 81.34 366.06" fill="#fff5f0"/><rect x="81.35" y="325.39" width="81.35" height="81.35" fill="#b5b2ca"/><path d="M 81.35 406.74 A 81.35 81.35 0 0 1  162.7 325.39 L 162.7 406.74" fill="#746f9c"/><rect x="162.694" y="325.388" width="81.347" height="81.347" fill="#ffffff"/><rect x="162.69" y="325.39" width="40.67" height="40.67" fill="#f3f2f6"/><path d="M 162.69 325.39 A 40.67 40.67 0 0 1 203.36 366.06 L 162.69 366.06" fill="#ffede6"/><rect x="203.37" y="325.39" width="40.67" height="40.67" fill="#fefefe"/><path d="M 203.37 366.06 A 40.67 40.67 0 0 1  244.04000000000002 325.39 L 244.04000000000002 366.06" fill="#fcfcfd"/><rect x="162.69" y="366.06" width="40.67" height="40.67" fill="#dddbe6"/><path d="M 162.69 406.73 A 40.67 40.67 0 0 0 203.36 366.06 L 162.69 366.06" fill="#9691b4"/><rect x="203.37" y="366.06" width="40.67" height="40.67" fill="#fd5004"/><path d="M 203.37 366.06 A 40.67 40.67 0 0 0 244.04000000000002 406.73 L 244.04000000000002 366.06" fill="#4e4781"/><rect x="244.04" y="325.39" width="81.35" height="81.35" fill="#ffd5c2"/><rect x="244.04" y="325.39" width="81.35" height="81.35" fill="#0e0453"/><rect x="325.39" y="325.39" width="81.35" height="81.35" fill="#fd5910"/><path d="M 325.39 325.39 A 81.35 81.35 0 0 0 406.74 406.74 L 406.74 325.39" fill="#0b0151"/><rect x="406.73499999999996" y="325.388" width="81.347" height="81.347" fill="#ffffff"/><rect x="406.73" y="325.39" width="40.67" height="40.67" fill="#fea983"/><path d="M 406.73 366.06 A 40.67 40.67 0 0 0 447.40000000000003 325.39 L 406.73 325.39" fill="#fe834d"/><rect x="447.41" y="325.39" width="40.67" height="40.67" fill="#e0dee9"/><path d="M 447.41 325.39 A 40.67 40.67 0 0 0 488.08000000000004 366.06 L 488.08000000000004 325.39" fill="#febfa2"/><rect x="406.73" y="366.06" width="40.67" height="40.67" fill="#ffddcd"/><path d="M 406.73 366.06 A 40.67 40.67 0 0 1 447.40000000000003 406.73 L 406.73 406.73" fill="#554e86"/><rect x="447.41" y="366.06" width="40.67" height="40.67" fill="#fe7f47"/><path d="M 447.41 406.73 A 40.67 40.67 0 0 1  488.08000000000004 366.06 L 488.08000000000004 406.73" fill="#fed1bc"/><rect x="488.08" y="325.39" width="81.35" height="81.35" fill="#160c58"/><rect x="488.08" y="325.39" width="81.35" height="81.35" fill="#ffe1d3"/><rect x="569.429" y="325.388" width="81.347" height="81.347" fill="#ffffff"/><rect x="569.43" y="325.39" width="40.67" height="40.67" fill="#fe854f"/><polygon points="610.0999999999999,325.39 610.0999999999999,366.06 569.43,366.06" fill="#fe9d72"/><rect x="610.1" y="325.39" width="40.67" height="40.67" fill="#ffece3"/><polygon points="610.1,325.39 650.77,366.06 610.1,366.06" fill="#fff2ec"/><rect x="569.43" y="366.06" width="40.67" height="40.67" fill="#d5d3e1"/><polygon points="569.43,366.06 610.0999999999999,366.06 610.0999999999999,406.73" fill="#feb290"/><rect x="610.1" y="366.06" width="40.67" height="40.67" fill="#c6c3d6"/><polygon points="610.1,366.06 650.77,366.06 610.1,406.73" fill="#ffe4d8"/><rect x="650.78" y="325.39" width="81.35" height="81.35" fill="#7d78a2"/><path d="M 650.78 406.74 A 81.35 81.35 0 0 0 732.13 325.39 L 650.78 325.39" fill="#fec1a5"/><rect x="732.12" y="325.39" width="81.35" height="81.35" fill="#140a57"/><rect x="732.12" y="325.39" width="81.35" height="81.35" fill="#fd7c42"/><rect x="813.47" y="325.39" width="81.35" height="81.35" fill="#fe8956"/><path d="M 813.47 406.74 A 81.35 81.35 0 0 0 894.82 325.39 L 813.47 325.39" fill="#fe9a6d"/><rect x="894.8169999999999" y="325.388" width="81.347" height="81.347" fill="#ffffff"/><rect x="894.82" y="325.39" width="40.67" height="40.67" fill="#fffefe"/><path d="M 894.82 325.39 A 40.67 40.67 0 0 1 935.49 366.06 L 894.82 366.06" fill="#0d0352"/><rect x="935.49" y="325.39" width="40.67" height="40.67" fill="#fff6f2"/><path d="M 935.49 366.06 A 40.67 40.67 0 0 1  976.16 325.39 L 976.16 366.06" fill="#7b76a1"/><rect x="894.82" y="366.06" width="40.67" height="40.67" fill="#6d6897"/><path d="M 894.82 406.73 A 40.67 40.67 0 0 0 935.49 366.06 L 894.82 366.06" fill="#c8c6d8"/><rect x="935.49" y="366.06" width="40.67" height="40.67" fill="#504982"/><path d="M 935.49 366.06 A 40.67 40.67 0 0 0 976.16 406.73 L 976.16 366.06" fill="#fd6e2d"/><rect x="0" y="406.73" width="81.35" height="81.35" fill="#362d6f"/><rect x="0" y="406.73" width="81.35" height="81.35" fill="#201760"/><rect x="81.347" y="406.73499999999996" width="81.347" height="81.347" fill="#ffffff"/><rect x="81.35" y="406.73" width="40.67" height="40.67" fill="#8f8baf"/><polygon points="122.02,406.73 122.02,447.40000000000003 81.35,447.40000000000003" fill="#3e3675"/><rect x="122.02" y="406.73" width="40.67" height="40.67" fill="#fe9262"/><polygon points="122.02,406.73 162.69,447.40000000000003 122.02,447.40000000000003" fill="#60598d"/><rect x="81.35" y="447.41" width="40.67" height="40.67" fill="#fe9a6d"/><polygon points="81.35,447.41 122.02,447.41 81.35,488.08000000000004" fill="#ffdbcc"/><rect x="122.02" y="447.41" width="40.67" height="40.67" fill="#fff3ee"/><polygon points="122.02,447.41 162.69,447.41 162.69,488.08000000000004" fill="#feb18f"/><rect x="162.694" y="406.73499999999996" width="81.347" height="81.347" fill="#ffffff"/><rect x="162.69" y="406.73" width="40.67" height="40.67" fill="#ffd8c7"/><circle cx="183.025" cy="427.065" r="20.335" fill="#221961"/><rect x="203.37" y="406.73" width="40.67" height="40.67" fill="#fd631f"/><rect x="203.37" y="406.73" width="40.67" height="40.67" fill="#fe7e45"/><rect x="162.69" y="447.41" width="40.67" height="40.67" fill="#a19dbc"/><circle cx="183.025" cy="467.745" r="20.335" fill="#ffe2d5"/><rect x="203.37" y="447.41" width="40.67" height="40.67" fill="#febb9c"/><rect x="203.37" y="447.41" width="40.67" height="40.67" fill="#f8f7fa"/><rect x="244.04" y="406.73" width="81.35" height="81.35" fill="#fead89"/><path d="M 244.04 488.08000000000004 A 81.35 81.35 0 0 1  325.39 406.73 L 244.04 488.08000000000004 A 81.35 81.35 0 0 0 325.39 406.73" fill="#726d9b"/><rect x="325.388" y="406.73499999999996" width="81.347" height="81.347" fill="#ffffff"/><rect x="325.39" y="406.73" width="40.67" height="40.67" fill="#fea67f"/><polygon points="366.06,406.73 366.06,447.40000000000003 325.39,447.40000000000003" fill="#9691b4"/><rect x="366.06" y="406.73" width="40.67" height="40.67" fill="#fff0ea"/><polygon points="366.06,406.73 406.73,447.40000000000003 366.06,447.40000000000003" fill="#fd5b13"/><rect x="325.39" y="447.41" width="40.67" height="40.67" fill="#fed2be"/><polygon points="325.39,447.41 366.06,447.41 366.06,488.08000000000004" fill="#feccb6"/><rect x="366.06" y="447.41" width="40.67" height="40.67" fill="#fea882"/><polygon points="366.06,447.41 406.73,447.41 366.06,488.08000000000004" fill="#fffcfb"/><rect x="406.73" y="406.73" width="81.35" height="81.35" fill="#271e64"/><rect x="406.73" y="406.73" width="81.35" height="81.35" fill="#fecdb6"/><rect x="488.082" y="406.73499999999996" width="81.347" height="81.347" fill="#ffffff"/><rect x="488.08" y="406.73" width="40.67" height="40.67" fill="#fec1a6"/><path d="M 488.08 406.73 A 40.67 40.67 0 0 1 528.75 447.40000000000003 L 488.08 447.40000000000003" fill="#a09dbb"/><rect x="528.76" y="406.73" width="40.67" height="40.67" fill="#30276b"/><path d="M 528.76 447.40000000000003 A 40.67 40.67 0 0 1  569.43 406.73 L 569.43 447.40000000000003" fill="#5f598d"/><rect x="488.08" y="447.41" width="40.67" height="40.67" fill="#fe9668"/><path d="M 488.08 488.08000000000004 A 40.67 40.67 0 0 0 528.75 447.41 L 488.08 447.41" fill="#5d568b"/><rect x="528.76" y="447.41" width="40.67" height="40.67" fill="#fd6622"/><path d="M 528.76 447.41 A 40.67 40.67 0 0 0 569.43 488.08000000000004 L 569.43 447.41" fill="#b4b1ca"/><rect x="569.429" y="406.73499999999996" width="81.347" height="81.347" fill="#ffffff"/><rect x="569.43" y="406.73" width="40.67" height="40.67" fill="#bfbcd1"/><path d="M 569.43 447.40000000000003 A 40.67 40.67 0 0 1  610.0999999999999 406.73 L 610.0999999999999 447.40000000000003" fill="#ebeaf1"/><rect x="610.1" y="406.73" width="40.67" height="40.67" fill="#fe8955"/><path d="M 610.1 406.73 A 40.67 40.67 0 0 1 650.77 447.40000000000003 L 610.1 447.40000000000003" fill="#feaa84"/><rect x="569.43" y="447.41" width="40.67" height="40.67" fill="#f0eff4"/><path d="M 569.43 447.41 A 40.67 40.67 0 0 0 610.0999999999999 488.08000000000004 L 610.0999999999999 447.41" fill="#645d90"/><rect x="610.1" y="447.41" width="40.67" height="40.67" fill="#feb898"/><path d="M 610.1 488.08000000000004 A 40.67 40.67 0 0 0 650.77 447.41 L 610.1 447.41" fill="#fff5f0"/><rect x="650.776" y="406.73499999999996" width="81.347" height="81.347" fill="#ffffff"/><rect x="650.78" y="406.73" width="40.67" height="40.67" fill="#201760"/><polygon points="691.4499999999999,406.73 691.4499999999999,447.40000000000003 650.78,447.40000000000003" fill="#fecdb7"/><rect x="691.45" y="406.73" width="40.67" height="40.67" fill="#928eb1"/><polygon points="691.45,406.73 732.12,447.40000000000003 691.45,447.40000000000003" fill="#fd570e"/><rect x="650.78" y="447.41" width="40.67" height="40.67" fill="#fe8956"/><polygon points="650.78,447.41 691.4499999999999,447.41 691.4499999999999,488.08000000000004" fill="#fd601a"/><rect x="691.45" y="447.41" width="40.67" height="40.67" fill="#cccada"/><polygon points="691.45,447.41 732.12,447.41 691.45,488.08000000000004" fill="#fffcfa"/><rect x="732.1229999999999" y="406.73499999999996" width="81.347" height="81.347" fill="#ffffff"/><rect x="732.12" y="406.73" width="40.67" height="40.67" fill="#504982"/><polygon points="772.79,406.73 772.79,447.40000000000003 732.12,447.40000000000003" fill="#281f65"/><rect x="772.8" y="406.73" width="40.67" height="40.67" fill="#aaa7c2"/><polygon points="772.8,406.73 813.4699999999999,406.73 772.8,447.40000000000003" fill="#fea47c"/><rect x="732.12" y="447.41" width="40.67" height="40.67" fill="#615a8e"/><polygon points="732.12,447.41 772.79,447.41 772.79,488.08000000000004" fill="#3a3272"/><rect x="772.8" y="447.41" width="40.67" height="40.67" fill="#fd7639"/><polygon points="772.8,447.41 813.4699999999999,488.08000000000004 772.8,488.08000000000004" fill="#fff6f1"/><rect x="813.47" y="406.73" width="81.35" height="81.35" fill="#f1f0f5"/><polygon points="813.47,406.73 894.82,406.73 813.47,488.08000000000004" fill="#fd7132"/><rect x="894.82" y="406.73" width="81.35" height="81.35" fill="#cccadb"/><polygon points="894.82,406.73 976.1700000000001,488.08000000000004 894.82,488.08000000000004" fill="#706a99"/><rect x="0" y="488.082" width="81.347" height="81.347" fill="#ffffff"/><rect x="0" y="488.08" width="40.67" height="40.67" fill="#221961"/><path d="M 0 528.75 A 40.67 40.67 0 0 1 40.67 488.08 L 40.67 498.2475 A 30.5025 30.5025 0 0 0 10.1675 528.75" fill="#2f266a"/><rect x="40.67" y="488.08" width="40.67" height="40.67" fill="#b0adc7"/><path d="M 40.67 488.08 A 40.67 40.67 0 0 1 81.34 528.75 L 71.1725 528.75 A 30.5025 30.5025 0 0 0 40.67 498.2475" fill="#110755"/><rect x="0" y="528.76" width="40.67" height="40.67" fill="#fff9f6"/><path d="M 0 528.76 A 40.67 40.67 0 0 0 40.67 569.43 L 40.67 559.2625 A 30.5025 30.5025 0 0 1 10.1675 528.76" fill="#4c457f"/><rect x="40.67" y="528.76" width="40.67" height="40.67" fill="#ffebe3"/><path d="M 40.67 569.43 A 40.67 40.67 0 0 0 81.34 528.76 L 71.1725 528.76 A 30.5025 30.5025 0 0 1 40.67 559.2625" fill="#fec4aa"/><rect x="81.347" y="488.082" width="81.347" height="81.347" fill="#ffffff"/><rect x="81.35" y="488.08" width="40.67" height="40.67" fill="#9793b5"/><circle cx="101.685" cy="508.41499999999996" r="20.335" fill="#6c6696"/><rect x="122.02" y="488.08" width="40.67" height="40.67" fill="#231a62"/><rect x="122.02" y="488.08" width="40.67" height="40.67" fill="#7c77a2"/><rect x="81.35" y="528.76" width="40.67" height="40.67" fill="#1d145e"/><circle cx="101.685" cy="549.095" r="20.335" fill="#fe8e5d"/><rect x="122.02" y="528.76" width="40.67" height="40.67" fill="#ceccdc"/><rect x="122.02" y="528.76" width="40.67" height="40.67" fill="#fe7d44"/><rect x="162.694" y="488.082" width="81.347" height="81.347" fill="#ffffff"/><rect x="162.69" y="488.08" width="40.67" height="40.67" fill="#fe9160"/><path d="M 162.69 528.75 A 40.67 40.67 0 0 0 203.36 488.08 L 162.69 488.08" fill="#7e79a3"/><rect x="203.37" y="488.08" width="40.67" height="40.67" fill="#feab86"/><path d="M 203.37 488.08 A 40.67 40.67 0 0 0 244.04000000000002 528.75 L 244.04000000000002 488.08" fill="#feb798"/><rect x="162.69" y="528.76" width="40.67" height="40.67" fill="#c9c7d8"/><path d="M 162.69 528.76 A 40.67 40.67 0 0 1 203.36 569.43 L 162.69 569.43" fill="#fbfbfc"/><rect x="203.37" y="528.76" width="40.67" height="40.67" fill="#fe824b"/><path d="M 203.37 569.43 A 40.67 40.67 0 0 1  244.04000000000002 528.76 L 244.04000000000002 569.43" fill="#fea077"/><rect x="244.04" y="488.08" width="81.35" height="81.35" fill="#fd6927"/><rect x="244.04" y="488.08" width="81.35" height="81.35" fill="#febc9f"/><rect x="325.388" y="488.082" width="81.347" height="81.347" fill="#ffffff"/><rect x="325.39" y="488.08" width="40.67" height="40.67" fill="#fe9364"/><path d="M 325.39 488.08 A 40.67 40.67 0 0 0 366.06 528.75 L 366.06 488.08" fill="#fd6826"/><rect x="366.06" y="488.08" width="40.67" height="40.67" fill="#8984aa"/><path d="M 366.06 528.75 A 40.67 40.67 0 0 0 406.73 488.08 L 366.06 488.08" fill="#fec5ab"/><rect x="325.39" y="528.76" width="40.67" height="40.67" fill="#281f65"/><path d="M 325.39 569.43 A 40.67 40.67 0 0 1  366.06 528.76 L 366.06 569.43" fill="#160c58"/><rect x="366.06" y="528.76" width="40.67" height="40.67" fill="#534c84"/><path d="M 366.06 528.76 A 40.67 40.67 0 0 1 406.73 569.43 L 366.06 569.43" fill="#fd5c15"/><rect x="406.73499999999996" y="488.082" width="81.347" height="81.347" fill="#ffffff"/><rect x="406.73" y="488.08" width="40.67" height="40.67" fill="#fe9a6d"/><path d="M 406.73 528.75 A 40.67 40.67 0 0 1  447.40000000000003 488.08 L 447.40000000000003 528.75" fill="#feb798"/><rect x="447.41" y="488.08" width="40.67" height="40.67" fill="#fec1a6"/><path d="M 447.41 488.08 A 40.67 40.67 0 0 1 488.08000000000004 528.75 L 447.41 528.75" fill="#716b9a"/><rect x="406.73" y="528.76" width="40.67" height="40.67" fill="#d0cedd"/><path d="M 406.73 528.76 A 40.67 40.67 0 0 0 447.40000000000003 569.43 L 447.40000000000003 528.76" fill="#fec9b2"/><rect x="447.41" y="528.76" width="40.67" height="40.67" fill="#fe9d72"/><path d="M 447.41 569.43 A 40.67 40.67 0 0 0 488.08000000000004 528.76 L 447.41 528.76" fill="#0b0151"/><rect x="488.082" y="488.082" width="81.347" height="81.347" fill="#ffffff"/><rect x="488.08" y="488.08" width="40.67" height="40.67" fill="#4c457f"/><path d="M 488.08 528.75 A 40.67 40.67 0 0 1 528.75 488.08 L 528.75 498.2475 A 30.5025 30.5025 0 0 0 498.2475 528.75" fill="#feb18f"/><rect x="528.76" y="488.08" width="40.67" height="40.67" fill="#f4f3f7"/><path d="M 528.76 488.08 A 40.67 40.67 0 0 1 569.43 528.75 L 559.2625 528.75 A 30.5025 30.5025 0 0 0 528.76 498.2475" fill="#fe9161"/><rect x="488.08" y="528.76" width="40.67" height="40.67" fill="#fe8752"/><path d="M 488.08 528.76 A 40.67 40.67 0 0 0 528.75 569.43 L 528.75 559.2625 A 30.5025 30.5025 0 0 1 498.2475 528.76" fill="#372f70"/><rect x="528.76" y="528.76" width="40.67" height="40.67" fill="#c4c1d5"/><path d="M 528.76 569.43 A 40.67 40.67 0 0 0 569.43 528.76 L 559.2625 528.76 A 30.5025 30.5025 0 0 1 528.76 559.2625" fill="#ffefe8"/><rect x="569.43" y="488.08" width="81.35" height="81.35" fill="#fe8550"/><rect x="569.43" y="488.08" width="81.35" height="81.35" fill="#a9a6c2"/><rect x="650.776" y="488.082" width="81.347" height="81.347" fill="#ffffff"/><rect x="650.78" y="488.08" width="40.67" height="40.67" fill="#8580a8"/><path d="M 650.78 528.75 A 40.67 40.67 0 0 1  691.4499999999999 488.08 L 691.4499999999999 528.75" fill="#4e4781"/><rect x="691.45" y="488.08" width="40.67" height="40.67" fill="#feccb5"/><path d="M 691.45 488.08 A 40.67 40.67 0 0 1 732.12 528.75 L 691.45 528.75" fill="#1b115c"/><rect x="650.78" y="528.76" width="40.67" height="40.67" fill="#fe844e"/><path d="M 650.78 528.76 A 40.67 40.67 0 0 0 691.4499999999999 569.43 L 691.4499999999999 528.76" fill="#fffcfa"/><rect x="691.45" y="528.76" width="40.67" height="40.67" fill="#706a99"/><path d="M 691.45 569.43 A 40.67 40.67 0 0 0 732.12 528.76 L 691.45 528.76" fill="#fe9060"/><rect x="732.12" y="488.08" width="81.35" height="81.35" fill="#9691b4"/><polygon points="813.47,488.08 813.47,569.43 732.12,569.43" fill="#fe9d72"/><rect x="813.47" y="488.08" width="81.35" height="81.35" fill="#febea2"/><rect x="813.47" y="488.08" width="81.35" height="81.35" fill="#fe976a"/><rect x="894.8169999999999" y="488.082" width="81.347" height="81.347" fill="#ffffff"/><rect x="894.82" y="488.08" width="40.67" height="40.67" fill="#595288"/><path d="M 894.82 528.75 A 40.67 40.67 0 0 1  935.49 488.08 L 935.49 528.75" fill="#fe8e5c"/><rect x="935.49" y="488.08" width="40.67" height="40.67" fill="#625c8f"/><path d="M 935.49 488.08 A 40.67 40.67 0 0 1 976.16 528.75 L 935.49 528.75" fill="#feb18e"/><rect x="894.82" y="528.76" width="40.67" height="40.67" fill="#4b437e"/><path d="M 894.82 528.76 A 40.67 40.67 0 0 0 935.49 569.43 L 935.49 528.76" fill="#ffd9c9"/><rect x="935.49" y="528.76" width="40.67" height="40.67" fill="#fe9667"/><path d="M 935.49 569.43 A 40.67 40.67 0 0 0 976.16 528.76 L 935.49 528.76" fill="#e7e6ee"/></g></svg>