<?xml version="1.0" standalone="no"?><svg xmlns:xlink="http://www.w3.org/1999/xlink" xmlns="http://www.w3.org/2000/svg" viewBox="0 0 1000 583.3390268231692" preserveAspectRatio="xMaxYMax slice"><g transform="scale(1.1386979671963888)"><rect x="0" y="0" width="878.2045714285713" height="512.286" fill="#ffffff"/><path d="M 439.1 73.18 A 73.18 73.18 0 0 1  512.28 0 L 439.1 73.18 A 73.18 73.18 0 0 0 512.28 0" fill="#f5e6c0"/><path d="M 805.02 0 A 73.18 73.18 0 0 1  878.2 73.18 L 805.02 0 A 73.18 73.18 0 0 0 878.2 73.18" fill="#961896"/><rect x="292.7348571428571" y="73.18371428571427" width="73.18371428571427" height="73.18371428571427" fill="#ffffff"/><path d="M 329.33 73.18 A 36.59 36.59 0 0 1  365.91999999999996 109.77000000000001 L 329.33 73.18 A 36.59 36.59 0 0 0 365.91999999999996 109.77000000000001" fill="#ddad35"/><path d="M 329.33 146.37 A 36.59 36.59 0 0 1  365.91999999999996 109.78 L 329.33 146.37 A 36.59 36.59 0 0 0 365.91999999999996 109.78" fill="#992099"/><rect x="73.18371428571427" y="146.36742857142855" width="73.18371428571427" height="73.18371428571427" fill="#ffffff"/><path d="M 73.18 182.96 A 36.59 36.59 0 0 1  109.77000000000001 219.55 L 73.18 182.96 A 36.59 36.59 0 0 0 109.77000000000001 219.55" fill="#a233a2"/><path d="M 109.78 219.55 A 36.59 36.59 0 0 1  146.37 182.96 L 109.78 219.55 A 36.59 36.59 0 0 0 146.37 182.96" fill="#a02da0"/><path d="M 439.1 219.55 A 73.18 73.18 0 0 1  512.28 146.37 L 439.1 219.55 A 73.18 73.18 0 0 0 512.28 146.37" fill="#c885c8"/><rect x="512.286" y="146.36742857142855" width="73.18371428571427" height="73.18371428571427" fill="#ffffff"/><path d="M 548.88 146.37 A 36.59 36.59 0 0 1  585.47 182.96 L 548.88 146.37 A 36.59 36.59 0 0 0 585.47 182.96" fill="#ba68ba"/><rect x="585.4697142857142" y="146.36742857142855" width="73.18371428571427" height="73.18371428571427" fill="#ffffff"/><path d="M 622.06 146.37 A 36.59 36.59 0 0 1  658.65 182.96 L 622.06 146.37 A 36.59 36.59 0 0 0 658.65 182.96" fill="#c37cc3"/><path d="M 585.47 219.55 A 36.59 36.59 0 0 1  622.0600000000001 182.96 L 585.47 219.55 A 36.59 36.59 0 0 0 622.0600000000001 182.96" fill="#e2b951"/><path d="M 658.65 219.55 A 73.18 73.18 0 0 1  731.8299999999999 146.37 L 658.65 219.55 A 73.18 73.18 0 0 0 731.8299999999999 146.37" fill="#c37cc3"/><rect x="0" y="219.55114285714282" width="73.18371428571427" height="73.18371428571427" fill="#ffffff"/><path d="M 439.1 292.73 A 73.18 73.18 0 0 1  512.28 219.55 L 439.1 292.73 A 73.18 73.18 0 0 0 512.28 219.55" fill="#ddad33"/><rect x="731.8371428571427" y="219.55114285714282" width="73.18371428571427" height="73.18371428571427" fill="#ffffff"/><path d="M 731.84 219.55 A 36.59 36.59 0 0 1  768.4300000000001 256.14 L 731.84 219.55 A 36.59 36.59 0 0 0 768.4300000000001 256.14" fill="#dba828"/><path d="M 768.43 219.55 A 36.59 36.59 0 0 1  805.02 256.14 L 768.43 219.55 A 36.59 36.59 0 0 0 805.02 256.14" fill="#f4e5bf"/><path d="M 768.43 256.14 A 36.59 36.59 0 0 1  805.02 292.73 L 768.43 256.14 A 36.59 36.59 0 0 0 805.02 292.73" fill="#951695"/><path d="M 585.47 365.91 A 73.18 73.18 0 0 1  658.6500000000001 292.73 L 585.47 365.91 A 73.18 73.18 0 0 0 658.6500000000001 292.73" fill="#a73ea7"/><path d="M 731.84 292.73 A 73.18 73.18 0 0 1  805.02 365.91 L 731.84 292.73 A 73.18 73.18 0 0 0 805.02 365.91" fill="#e0b241"/><path d="M 73.18 365.92 A 73.18 73.18 0 0 1  146.36 439.1 L 73.18 365.92 A 73.18 73.18 0 0 0 146.36 439.1" fill="#f9f1dc"/><rect x="146.36742857142855" y="365.91857142857134" width="73.18371428571427" height="73.18371428571427" fill="#ffffff"/><path d="M 365.92 365.92 A 73.18 73.18 0 0 1  439.1 439.1 L 365.92 365.92 A 73.18 73.18 0 0 0 439.1 439.1" fill="#edd7ed"/><rect x="805.020857142857" y="365.91857142857134" width="73.18371428571427" height="73.18371428571427" fill="#ffffff"/><path d="M 805.02 402.51 A 36.59 36.59 0 0 1  841.61 365.92 L 805.02 402.51 A 36.59 36.59 0 0 0 841.61 365.92" fill="#e8cee8"/><rect x="0" y="439.10228571428564" width="73.18371428571427" height="73.18371428571427" fill="#ffffff"/><path d="M 36.59 512.28 A 36.59 36.59 0 0 1  73.18 475.69 L 36.59 512.28 A 36.59 36.59 0 0 0 73.18 475.69" fill="#dfb241"/><rect x="73.18371428571427" y="439.10228571428564" width="73.18371428571427" height="73.18371428571427" fill="#ffffff"/><path d="M 73.18 512.28 A 36.59 36.59 0 0 1  109.77000000000001 475.69 L 73.18 512.28 A 36.59 36.59 0 0 0 109.77000000000001 475.69" fill="#d7a7d7"/><rect x="219.55114285714282" y="439.10228571428564" width="73.18371428571427" height="73.18371428571427" fill="#ffffff"/><path d="M 256.14 475.69 A 36.59 36.59 0 0 1  292.73 512.28 L 256.14 475.69 A 36.59 36.59 0 0 0 292.73 512.28" fill="#921092"/><rect x="292.7348571428571" y="439.10228571428564" width="73.18371428571427" height="73.18371428571427" fill="#ffffff"/><path d="M 329.33 475.69000000000005 A 36.59 36.59 0 0 1  365.91999999999996 439.1 L 329.33 475.69000000000005 A 36.59 36.59 0 0 0 365.91999999999996 439.1" fill="#e4c4e4"/><path d="M 292.73 512.28 A 36.59 36.59 0 0 1  329.32000000000005 475.69 L 292.73 512.28 A 36.59 36.59 0 0 0 329.32000000000005 475.69" fill="#d7a7d7"/><rect x="585.4697142857142" y="439.10228571428564" width="73.18371428571427" height="73.18371428571427" fill="#ffffff"/><path d="M 585.47 475.69000000000005 A 36.59 36.59 0 0 1  622.0600000000001 439.1 L 585.47 475.69000000000005 A 36.59 36.59 0 0 0 622.0600000000001 439.1" fill="#f4e3ba"/><path d="M 622.06 439.1 A 36.59 36.59 0 0 1  658.65 475.69000000000005 L 622.06 439.1 A 36.59 36.59 0 0 0 658.65 475.69000000000005" fill="#e0bbe0"/><path d="M 622.06 512.28 A 36.59 36.59 0 0 1  658.65 475.69 L 622.06 512.28 A 36.59 36.59 0 0 0 658.65 475.69" fill="#d6a5d6"/><rect x="731.8371428571427" y="439.10228571428564" width="73.18371428571427" height="73.18371428571427" fill="#ffffff"/><path d="M 731.84 475.69000000000005 A 36.59 36.59 0 0 1  768.4300000000001 439.1 L 731.84 475.69000000000005 A 36.59 36.59 0 0 0 768.4300000000001 439.1" fill="#ecd28f"/><path d="M 768.43 512.28 A 36.59 36.59 0 0 1  805.02 475.69 L 768.43 512.28 A 36.59 36.59 0 0 0 805.02 475.69" fill="#edd496"/><path d="M 805.02 439.1 A 73.18 73.18 0 0 1  878.2 512.28 L 805.02 439.1 A 73.18 73.18 0 0 0 878.2 512.28" fill="#d9acd9"/></g></svg>