<?xml version="1.0" standalone="no"?><svg xmlns:xlink="http://www.w3.org/1999/xlink" xmlns="http://www.w3.org/2000/svg" viewBox="0 0 1000 583.3390268231692" preserveAspectRatio="xMaxYMax slice"><g transform="scale(1.1386979671963888)"><rect x="0" y="0" width="878.2045714285713" height="512.286" fill="#ffffff"/><rect x="0" y="0" width="73.18" height="73.18" fill="#fd5003"/><rect x="0" y="0" width="73.18" height="73.18" fill="#fd5003"/><rect x="73.18" y="0" width="73.18" height="73.18" fill="#0a0050"/><rect x="73.18" y="0" width="73.18" height="73.18" fill="#fd5003"/><rect x="146.37" y="0" width="73.18" height="73.18" fill="#0a0050"/><rect x="146.37" y="0" width="73.18" height="73.18" fill="#fd5003"/><rect x="219.55" y="0" width="73.18" height="73.18" fill="#fd5003"/><path d="M 219.55 73.18 A 73.18 73.18 0 0 0 292.73 0 L 219.55 0" fill="#fd5003"/><rect x="292.7348571428571" y="0" width="73.18371428571427" height="73.18371428571427" fill="#ffffff"/><rect x="292.73" y="0" width="36.59" height="36.59" fill="#0a0050"/><path d="M 292.73 36.59 A 36.59 36.59 0 0 1  329.32000000000005 0 L 329.32000000000005 36.59" fill="#0a0050"/><rect x="329.33" y="0" width="36.59" height="36.59" fill="#0a0050"/><path d="M 329.33 0 A 36.59 36.59 0 0 1 365.91999999999996 36.59 L 329.33 36.59" fill="#0a0050"/><rect x="292.73" y="36.59" width="36.59" height="36.59" fill="#0a0050"/><path d="M 292.73 36.59 A 36.59 36.59 0 0 0 329.32000000000005 73.18 L 329.32000000000005 36.59" fill="#fd5003"/><rect x="329.33" y="36.59" width="36.59" height="36.59" fill="#fd5003"/><path d="M 329.33 73.18 A 36.59 36.59 0 0 0 365.91999999999996 36.59 L 329.33 36.59" fill="#fd5003"/><rect x="365.91857142857134" y="0" width="73.18371428571427" height="73.18371428571427" fill="#ffffff"/><rect x="365.92" y="0" width="36.59" height="36.59" fill="#fd5003"/><circle cx="384.21500000000003" cy="18.295" r="18.295" fill="#0a0050"/><rect x="402.51" y="0" width="36.59" height="36.59" fill="#0a0050"/><rect x="402.51" y="0" width="36.59" height="36.59" fill="#fd5003"/><rect x="365.92" y="36.59" width="36.59" height="36.59" fill="#0a0050"/><circle cx="384.21500000000003" cy="54.885000000000005" r="18.295" fill="#fd5003"/><rect x="402.51" y="36.59" width="36.59" height="36.59" fill="#fd5003"/><rect x="402.51" y="36.59" width="36.59" height="36.59" fill="#0a0050"/><rect x="439.1" y="0" width="73.18" height="73.18" fill="#0a0050"/><polygon points="439.1,0 512.28,0 512.28,73.18" fill="#0a0050"/><rect x="512.29" y="0" width="73.18" height="73.18" fill="#0a0050"/><rect x="512.29" y="0" width="73.18" height="73.18" fill="#fd5003"/><rect x="585.4697142857142" y="0" width="73.18371428571427" height="73.18371428571427" fill="#ffffff"/><rect x="585.47" y="0" width="36.59" height="36.59" fill="#fd5003"/><path d="M 585.47 36.59 A 36.59 36.59 0 0 0 622.0600000000001 0 L 585.47 0" fill="#fd5003"/><rect x="622.06" y="0" width="36.59" height="36.59" fill="#fd5003"/><path d="M 622.06 0 A 36.59 36.59 0 0 0 658.65 36.59 L 658.65 0" fill="#0a0050"/><rect x="585.47" y="36.59" width="36.59" height="36.59" fill="#fd5003"/><path d="M 585.47 36.59 A 36.59 36.59 0 0 1 622.0600000000001 73.18 L 585.47 73.18" fill="#0a0050"/><rect x="622.06" y="36.59" width="36.59" height="36.59" fill="#0a0050"/><path d="M 622.06 73.18 A 36.59 36.59 0 0 1  658.65 36.59 L 658.65 73.18" fill="#fd5003"/><rect x="658.65" y="0" width="73.18" height="73.18" fill="#0a0050"/><polygon points="658.65,0 731.8299999999999,0 658.65,73.18" fill="#0a0050"/><rect x="731.84" y="0" width="73.18" height="73.18" fill="#0a0050"/><rect x="731.84" y="0" width="73.18" height="73.18" fill="#0a0050"/><rect x="805.020857142857" y="0" width="73.18371428571427" height="73.18371428571427" fill="#ffffff"/><rect x="805.02" y="0" width="36.59" height="36.59" fill="#0a0050"/><path d="M 805.02 0 A 36.59 36.59 0 0 1 841.61 36.59 L 805.02 36.59" fill="#fd5003"/><rect x="841.61" y="0" width="36.59" height="36.59" fill="#fd5003"/><path d="M 841.61 36.59 A 36.59 36.59 0 0 1  878.2 0 L 878.2 36.59" fill="#fd5003"/><rect x="805.02" y="36.59" width="36.59" height="36.59" fill="#0a0050"/><path d="M 805.02 73.18 A 36.59 36.59 0 0 0 841.61 36.59 L 805.02 36.59" fill="#fd5003"/><rect x="841.61" y="36.59" width="36.59" height="36.59" fill="#0a0050"/><path d="M 841.61 36.59 A 36.59 36.59 0 0 0 878.2 73.18 L 878.2 36.59" fill="#fd5003"/><rect x="0" y="73.18371428571427" width="73.18371428571427" height="73.18371428571427" fill="#ffffff"/><rect x="0" y="73.18" width="36.59" height="36.59" fill="#0a0050"/><path d="M 0 73.18 A 36.59 36.59 0 0 0 36.59 109.77000000000001 L 36.59 73.18" fill="#fd5003"/><rect x="36.59" y="73.18" width="36.59" height="36.59" fill="#fd5003"/><path d="M 36.59 109.77000000000001 A 36.59 36.59 0 0 0 73.18 73.18 L 36.59 73.18" fill="#0a0050"/><rect x="0" y="109.78" width="36.59" height="36.59" fill="#0a0050"/><path d="M 0 146.37 A 36.59 36.59 0 0 1  36.59 109.78 L 36.59 146.37" fill="#0a0050"/><rect x="36.59" y="109.78" width="36.59" height="36.59" fill="#fd5003"/><path d="M 36.59 109.78 A 36.59 36.59 0 0 1 73.18 146.37 L 36.59 146.37" fill="#fd5003"/><rect x="73.18371428571427" y="73.18371428571427" width="73.18371428571427" height="73.18371428571427" fill="#ffffff"/><rect x="73.18" y="73.18" width="36.59" height="36.59" fill="#fd5003"/><path d="M 73.18 73.18 A 36.59 36.59 0 0 1 109.77000000000001 109.77000000000001 L 73.18 109.77000000000001" fill="#0a0050"/><rect x="109.78" y="73.18" width="36.59" height="36.59" fill="#fd5003"/><path d="M 109.78 109.77000000000001 A 36.59 36.59 0 0 1  146.37 73.18 L 146.37 109.77000000000001" fill="#0a0050"/><rect x="73.18" y="109.78" width="36.59" height="36.59" fill="#0a0050"/><path d="M 73.18 146.37 A 36.59 36.59 0 0 0 109.77000000000001 109.78 L 73.18 109.78" fill="#0a0050"/><rect x="109.78" y="109.78" width="36.59" height="36.59" fill="#0a0050"/><path d="M 109.78 109.78 A 36.59 36.59 0 0 0 146.37 146.37 L 146.37 109.78" fill="#fd5003"/><rect x="146.36742857142855" y="73.18371428571427" width="73.18371428571427" height="73.18371428571427" fill="#ffffff"/><rect x="146.37" y="73.18" width="36.59" height="36.59" fill="#fd5003"/><path d="M 146.37 73.18 A 36.59 36.59 0 0 1 182.96 109.77000000000001 L 146.37 109.77000000000001" fill="#0a0050"/><rect x="182.96" y="73.18" width="36.59" height="36.59" fill="#0a0050"/><path d="M 182.96 109.77000000000001 A 36.59 36.59 0 0 1  219.55 73.18 L 219.55 109.77000000000001" fill="#0a0050"/><rect x="146.37" y="109.78" width="36.59" height="36.59" fill="#fd5003"/><path d="M 146.37 146.37 A 36.59 36.59 0 0 0 182.96 109.78 L 146.37 109.78" fill="#0a0050"/><rect x="182.96" y="109.78" width="36.59" height="36.59" fill="#fd5003"/><path d="M 182.96 109.78 A 36.59 36.59 0 0 0 219.55 146.37 L 219.55 109.78" fill="#0a0050"/><rect x="219.55114285714282" y="73.18371428571427" width="73.18371428571427" height="73.18371428571427" fill="#ffffff"/><rect x="219.55" y="73.18" width="36.59" height="36.59" fill="#0a0050"/><polygon points="256.14,73.18 256.14,109.77000000000001 219.55,109.77000000000001" fill="#fd5003"/><rect x="256.14" y="73.18" width="36.59" height="36.59" fill="#fd5003"/><polygon points="256.14,73.18 292.73,109.77000000000001 256.14,109.77000000000001" fill="#fd5003"/><rect x="219.55" y="109.78" width="36.59" height="36.59" fill="#fd5003"/><polygon points="219.55,109.78 256.14,109.78 256.14,146.37" fill="#0a0050"/><rect x="256.14" y="109.78" width="36.59" height="36.59" fill="#fd5003"/><polygon points="256.14,109.78 292.73,109.78 256.14,146.37" fill="#fd5003"/><rect x="292.73" y="73.18" width="73.18" height="73.18" fill="#fd5003"/><path d="M 292.73 146.36 A 73.18 73.18 0 0 1  365.91 73.18 L 365.91 146.36" fill="#fd5003"/><rect x="365.92" y="73.18" width="73.18" height="73.18" fill="#0a0050"/><rect x="365.92" y="73.18" width="73.18" height="73.18" fill="#fd5003"/><rect x="439.10228571428564" y="73.18371428571427" width="73.18371428571427" height="73.18371428571427" fill="#ffffff"/><rect x="439.1" y="73.18" width="36.59" height="36.59" fill="#0a0050"/><polygon points="475.69000000000005,73.18 475.69000000000005,109.77000000000001 439.1,109.77000000000001" fill="#fd5003"/><rect x="475.69" y="73.18" width="36.59" height="36.59" fill="#fd5003"/><polygon points="475.69,73.18 512.28,109.77000000000001 475.69,109.77000000000001" fill="#fd5003"/><rect x="439.1" y="109.78" width="36.59" height="36.59" fill="#0a0050"/><polygon points="439.1,109.78 475.69000000000005,109.78 475.69000000000005,146.37" fill="#0a0050"/><rect x="475.69" y="109.78" width="36.59" height="36.59" fill="#fd5003"/><polygon points="475.69,109.78 512.28,109.78 475.69,146.37" fill="#fd5003"/><rect x="512.29" y="73.18" width="73.18" height="73.18" fill="#fd5003"/><path d="M 512.29 146.36 A 73.18 73.18 0 0 0 585.47 73.18 L 512.29 73.18" fill="#fd5003"/><rect x="585.4697142857142" y="73.18371428571427" width="73.18371428571427" height="73.18371428571427" fill="#ffffff"/><rect x="585.47" y="73.18" width="36.59" height="36.59" fill="#0a0050"/><path d="M 585.47 73.18 A 36.59 36.59 0 0 1 622.0600000000001 109.77000000000001 L 585.47 109.77000000000001" fill="#fd5003"/><rect x="622.06" y="73.18" width="36.59" height="36.59" fill="#fd5003"/><path d="M 622.06 109.77000000000001 A 36.59 36.59 0 0 1  658.65 73.18 L 658.65 109.77000000000001" fill="#fd5003"/><rect x="585.47" y="109.78" width="36.59" height="36.59" fill="#0a0050"/><path d="M 585.47 146.37 A 36.59 36.59 0 0 0 622.0600000000001 109.78 L 585.47 109.78" fill="#0a0050"/><rect x="622.06" y="109.78" width="36.59" height="36.59" fill="#fd5003"/><path d="M 622.06 109.78 A 36.59 36.59 0 0 0 658.65 146.37 L 658.65 109.78" fill="#0a0050"/><rect x="658.6534285714284" y="73.18371428571427" width="73.18371428571427" height="73.18371428571427" fill="#ffffff"/><rect x="658.65" y="73.18" width="36.59" height="36.59" fill="#0a0050"/><path d="M 658.65 73.18 A 36.59 36.59 0 0 0 695.24 109.77000000000001 L 695.24 73.18" fill="#fd5003"/><rect x="695.25" y="73.18" width="36.59" height="36.59" fill="#0a0050"/><path d="M 695.25 109.77000000000001 A 36.59 36.59 0 0 0 731.84 73.18 L 695.25 73.18" fill="#0a0050"/><rect x="658.65" y="109.78" width="36.59" height="36.59" fill="#fd5003"/><path d="M 658.65 146.37 A 36.59 36.59 0 0 1  695.24 109.78 L 695.24 146.37" fill="#0a0050"/><rect x="695.25" y="109.78" width="36.59" height="36.59" fill="#0a0050"/><path d="M 695.25 109.78 A 36.59 36.59 0 0 1 731.84 146.37 L 695.25 146.37" fill="#fd5003"/><rect x="731.84" y="73.18" width="73.18" height="73.18" fill="#fd5003"/><rect x="731.84" y="73.18" width="73.18" height="73.18" fill="#fd5003"/><rect x="805.02" y="73.18" width="73.18" height="73.18" fill="#0a0050"/><path d="M 805.02 73.18 A 73.18 73.18 0 0 1  878.2 146.36 L 805.02 73.18 A 73.18 73.18 0 0 0 878.2 146.36" fill="#fd5003"/><rect x="0" y="146.36742857142855" width="73.18371428571427" height="73.18371428571427" fill="#ffffff"/><rect x="0" y="146.37" width="36.59" height="36.59" fill="#fd5003"/><path d="M 0 182.96 A 36.59 36.59 0 0 1 36.59 146.37 L 36.59 155.5175 A 27.442500000000003 27.442500000000003 0 0 0 9.1475 182.96" fill="#fd5003"/><rect x="36.59" y="146.37" width="36.59" height="36.59" fill="#fd5003"/><path d="M 36.59 146.37 A 36.59 36.59 0 0 1 73.18 182.96 L 64.0325 182.96 A 27.442500000000003 27.442500000000003 0 0 0 36.59 155.5175" fill="#0a0050"/><rect x="0" y="182.96" width="36.59" height="36.59" fill="#fd5003"/><path d="M 0 182.96 A 36.59 36.59 0 0 0 36.59 219.55 L 36.59 210.4025 A 27.442500000000003 27.442500000000003 0 0 1 9.1475 182.96" fill="#0a0050"/><rect x="36.59" y="182.96" width="36.59" height="36.59" fill="#fd5003"/><path d="M 36.59 219.55 A 36.59 36.59 0 0 0 73.18 182.96 L 64.0325 182.96 A 27.442500000000003 27.442500000000003 0 0 1 36.59 210.4025" fill="#fd5003"/><rect x="73.18" y="146.37" width="73.18" height="73.18" fill="#fd5003"/><polygon points="146.36,146.37 146.36,219.55 73.18,219.55" fill="#0a0050"/><rect x="146.36742857142855" y="146.36742857142855" width="73.18371428571427" height="73.18371428571427" fill="#ffffff"/><rect x="146.37" y="146.37" width="36.59" height="36.59" fill="#0a0050"/><path d="M 146.37 182.96 A 36.59 36.59 0 0 1  182.96 146.37 L 182.96 182.96" fill="#0a0050"/><rect x="182.96" y="146.37" width="36.59" height="36.59" fill="#0a0050"/><path d="M 182.96 146.37 A 36.59 36.59 0 0 1 219.55 182.96 L 182.96 182.96" fill="#0a0050"/><rect x="146.37" y="182.96" width="36.59" height="36.59" fill="#0a0050"/><path d="M 146.37 182.96 A 36.59 36.59 0 0 0 182.96 219.55 L 182.96 182.96" fill="#fd5003"/><rect x="182.96" y="182.96" width="36.59" height="36.59" fill="#0a0050"/><path d="M 182.96 219.55 A 36.59 36.59 0 0 0 219.55 182.96 L 182.96 182.96" fill="#0a0050"/><rect x="219.55" y="146.37" width="73.18" height="73.18" fill="#fd5003"/><path d="M 219.55 146.37 A 73.18 73.18 0 0 1  292.73 219.55 L 219.55 146.37 A 73.18 73.18 0 0 0 292.73 219.55" fill="#0a0050"/><rect x="292.73" y="146.37" width="73.18" height="73.18" fill="#fd5003"/><path d="M 292.73 219.55 A 73.18 73.18 0 0 1  365.91 146.37 L 365.91 219.55" fill="#0a0050"/><rect x="365.91857142857134" y="146.36742857142855" width="73.18371428571427" height="73.18371428571427" fill="#ffffff"/><rect x="365.92" y="146.37" width="36.59" height="36.59" fill="#0a0050"/><path d="M 365.92 182.96 A 36.59 36.59 0 0 1 402.51 146.37 L 402.51 155.5175 A 27.442500000000003 27.442500000000003 0 0 0 375.0675 182.96" fill="#0a0050"/><rect x="402.51" y="146.37" width="36.59" height="36.59" fill="#fd5003"/><path d="M 402.51 146.37 A 36.59 36.59 0 0 1 439.1 182.96 L 429.9525 182.96 A 27.442500000000003 27.442500000000003 0 0 0 402.51 155.5175" fill="#0a0050"/><rect x="365.92" y="182.96" width="36.59" height="36.59" fill="#fd5003"/><path d="M 365.92 182.96 A 36.59 36.59 0 0 0 402.51 219.55 L 402.51 210.4025 A 27.442500000000003 27.442500000000003 0 0 1 375.0675 182.96" fill="#0a0050"/><rect x="402.51" y="182.96" width="36.59" height="36.59" fill="#0a0050"/><path d="M 402.51 219.55 A 36.59 36.59 0 0 0 439.1 182.96 L 429.9525 182.96 A 27.442500000000003 27.442500000000003 0 0 1 402.51 210.4025" fill="#fd5003"/><rect x="439.1" y="146.37" width="73.18" height="73.18" fill="#0a0050"/><polygon points="512.28,146.37 512.28,219.55 439.1,219.55" fill="#0a0050"/><rect x="512.286" y="146.36742857142855" width="73.18371428571427" height="73.18371428571427" fill="#ffffff"/><rect x="512.29" y="146.37" width="36.59" height="36.59" fill="#0a0050"/><path d="M 512.29 182.96 A 36.59 36.59 0 0 1  548.88 146.37 L 548.88 182.96" fill="#fd5003"/><rect x="548.88" y="146.37" width="36.59" height="36.59" fill="#fd5003"/><path d="M 548.88 146.37 A 36.59 36.59 0 0 1 585.47 182.96 L 548.88 182.96" fill="#0a0050"/><rect x="512.29" y="182.96" width="36.59" height="36.59" fill="#fd5003"/><path d="M 512.29 182.96 A 36.59 36.59 0 0 0 548.88 219.55 L 548.88 182.96" fill="#0a0050"/><rect x="548.88" y="182.96" width="36.59" height="36.59" fill="#0a0050"/><path d="M 548.88 219.55 A 36.59 36.59 0 0 0 585.47 182.96 L 548.88 182.96" fill="#0a0050"/><rect x="585.4697142857142" y="146.36742857142855" width="73.18371428571427" height="73.18371428571427" fill="#ffffff"/><rect x="585.47" y="146.37" width="36.59" height="36.59" fill="#fd5003"/><path d="M 585.47 146.37 A 36.59 36.59 0 0 0 622.0600000000001 182.96 L 622.0600000000001 146.37" fill="#0a0050"/><rect x="622.06" y="146.37" width="36.59" height="36.59" fill="#fd5003"/><path d="M 622.06 182.96 A 36.59 36.59 0 0 0 658.65 146.37 L 622.06 146.37" fill="#0a0050"/><rect x="585.47" y="182.96" width="36.59" height="36.59" fill="#0a0050"/><path d="M 585.47 219.55 A 36.59 36.59 0 0 1  622.0600000000001 182.96 L 622.0600000000001 219.55" fill="#fd5003"/><rect x="622.06" y="182.96" width="36.59" height="36.59" fill="#fd5003"/><path d="M 622.06 182.96 A 36.59 36.59 0 0 1 658.65 219.55 L 622.06 219.55" fill="#fd5003"/><rect x="658.65" y="146.37" width="73.18" height="73.18" fill="#fd5003"/><rect x="658.65" y="146.37" width="73.18" height="73.18" fill="#0a0050"/><rect x="731.8371428571427" y="146.36742857142855" width="73.18371428571427" height="73.18371428571427" fill="#ffffff"/><rect x="731.84" y="146.37" width="36.59" height="36.59" fill="#fd5003"/><circle cx="750.135" cy="164.66500000000002" r="18.295" fill="#fd5003"/><rect x="768.43" y="146.37" width="36.59" height="36.59" fill="#0a0050"/><rect x="768.43" y="146.37" width="36.59" height="36.59" fill="#fd5003"/><rect x="731.84" y="182.96" width="36.59" height="36.59" fill="#fd5003"/><circle cx="750.135" cy="201.255" r="18.295" fill="#fd5003"/><rect x="768.43" y="182.96" width="36.59" height="36.59" fill="#0a0050"/><rect x="768.43" y="182.96" width="36.59" height="36.59" fill="#0a0050"/><rect x="805.02" y="146.37" width="73.18" height="73.18" fill="#fd5003"/><polygon points="805.02,146.37 878.2,146.37 878.2,219.55" fill="#fd5003"/><rect x="0" y="219.55114285714282" width="73.18371428571427" height="73.18371428571427" fill="#ffffff"/><rect x="0" y="219.55" width="36.59" height="36.59" fill="#0a0050"/><path d="M 0 219.55 A 36.59 36.59 0 0 1 36.59 256.14 L 0 256.14" fill="#fd5003"/><rect x="36.59" y="219.55" width="36.59" height="36.59" fill="#0a0050"/><path d="M 36.59 256.14 A 36.59 36.59 0 0 1  73.18 219.55 L 73.18 256.14" fill="#fd5003"/><rect x="0" y="256.14" width="36.59" height="36.59" fill="#0a0050"/><path d="M 0 292.73 A 36.59 36.59 0 0 0 36.59 256.14 L 0 256.14" fill="#0a0050"/><rect x="36.59" y="256.14" width="36.59" height="36.59" fill="#fd5003"/><path d="M 36.59 256.14 A 36.59 36.59 0 0 0 73.18 292.73 L 73.18 256.14" fill="#fd5003"/><rect x="73.18" y="219.55" width="73.18" height="73.18" fill="#fd5003"/><path d="M 73.18 292.73 A 73.18 73.18 0 0 0 146.36 219.55 L 73.18 219.55" fill="#0a0050"/><rect x="146.36742857142855" y="219.55114285714282" width="73.18371428571427" height="73.18371428571427" fill="#ffffff"/><rect x="146.37" y="219.55" width="36.59" height="36.59" fill="#0a0050"/><circle cx="164.66500000000002" cy="237.84500000000003" r="18.295" fill="#0a0050"/><rect x="182.96" y="219.55" width="36.59" height="36.59" fill="#0a0050"/><rect x="182.96" y="219.55" width="36.59" height="36.59" fill="#fd5003"/><rect x="146.37" y="256.14" width="36.59" height="36.59" fill="#fd5003"/><circle cx="164.66500000000002" cy="274.435" r="18.295" fill="#0a0050"/><rect x="182.96" y="256.14" width="36.59" height="36.59" fill="#fd5003"/><rect x="182.96" y="256.14" width="36.59" height="36.59" fill="#fd5003"/><rect x="219.55114285714282" y="219.55114285714282" width="73.18371428571427" height="73.18371428571427" fill="#ffffff"/><rect x="219.55" y="219.55" width="36.59" height="36.59" fill="#fd5003"/><polygon points="256.14,219.55 256.14,256.14 219.55,256.14" fill="#fd5003"/><rect x="256.14" y="219.55" width="36.59" height="36.59" fill="#fd5003"/><polygon points="256.14,219.55 292.73,256.14 256.14,256.14" fill="#0a0050"/><rect x="219.55" y="256.14" width="36.59" height="36.59" fill="#0a0050"/><polygon points="219.55,256.14 256.14,256.14 219.55,292.73" fill="#0a0050"/><rect x="256.14" y="256.14" width="36.59" height="36.59" fill="#fd5003"/><polygon points="256.14,256.14 292.73,256.14 292.73,292.73" fill="#0a0050"/><rect x="292.7348571428571" y="219.55114285714282" width="73.18371428571427" height="73.18371428571427" fill="#ffffff"/><rect x="292.73" y="219.55" width="36.59" height="36.59" fill="#0a0050"/><polygon points="329.32000000000005,219.55 329.32000000000005,256.14 292.73,256.14" fill="#fd5003"/><rect x="329.33" y="219.55" width="36.59" height="36.59" fill="#0a0050"/><polygon points="329.33,219.55 365.91999999999996,256.14 329.33,256.14" fill="#0a0050"/><rect x="292.73" y="256.14" width="36.59" height="36.59" fill="#0a0050"/><polygon points="292.73,256.14 329.32000000000005,256.14 329.32000000000005,292.73" fill="#0a0050"/><rect x="329.33" y="256.14" width="36.59" height="36.59" fill="#fd5003"/><polygon points="329.33,256.14 365.91999999999996,256.14 329.33,292.73" fill="#fd5003"/><rect x="365.92" y="219.55" width="73.18" height="73.18" fill="#0a0050"/><polygon points="365.92,219.55 439.1,292.73 365.92,292.73" fill="#fd5003"/><rect x="439.10228571428564" y="219.55114285714282" width="73.18371428571427" height="73.18371428571427" fill="#ffffff"/><rect x="439.1" y="219.55" width="36.59" height="36.59" fill="#0a0050"/><path d="M 439.1 256.14 A 36.59 36.59 0 0 1 475.69000000000005 219.55 L 475.69000000000005 228.69750000000002 A 27.442500000000003 27.442500000000003 0 0 0 448.2475 256.14" fill="#0a0050"/><rect x="475.69" y="219.55" width="36.59" height="36.59" fill="#0a0050"/><path d="M 475.69 219.55 A 36.59 36.59 0 0 1 512.28 256.14 L 503.1325 256.14 A 27.442500000000003 27.442500000000003 0 0 0 475.69 228.69750000000002" fill="#0a0050"/><rect x="439.1" y="256.14" width="36.59" height="36.59" fill="#fd5003"/><path d="M 439.1 256.14 A 36.59 36.59 0 0 0 475.69000000000005 292.73 L 475.69000000000005 283.5825 A 27.442500000000003 27.442500000000003 0 0 1 448.2475 256.14" fill="#fd5003"/><rect x="475.69" y="256.14" width="36.59" height="36.59" fill="#0a0050"/><path d="M 475.69 292.73 A 36.59 36.59 0 0 0 512.28 256.14 L 503.1325 256.14 A 27.442500000000003 27.442500000000003 0 0 1 475.69 283.5825" fill="#fd5003"/><rect x="512.286" y="219.55114285714282" width="73.18371428571427" height="73.18371428571427" fill="#ffffff"/><rect x="512.29" y="219.55" width="36.59" height="36.59" fill="#0a0050"/><polygon points="548.88,219.55 548.88,256.14 512.29,256.14" fill="#0a0050"/><rect x="548.88" y="219.55" width="36.59" height="36.59" fill="#fd5003"/><polygon points="548.88,219.55 585.47,219.55 548.88,256.14" fill="#fd5003"/><rect x="512.29" y="256.14" width="36.59" height="36.59" fill="#0a0050"/><polygon points="512.29,256.14 548.88,256.14 548.88,292.73" fill="#0a0050"/><rect x="548.88" y="256.14" width="36.59" height="36.59" fill="#0a0050"/><polygon points="548.88,256.14 585.47,292.73 548.88,292.73" fill="#fd5003"/><rect x="585.47" y="219.55" width="73.18" height="73.18" fill="#fd5003"/><path d="M 585.47 219.55 A 73.18 73.18 0 0 1 658.6500000000001 292.73 L 585.47 292.73" fill="#0a0050"/><rect x="658.65" y="219.55" width="73.18" height="73.18" fill="#fd5003"/><polygon points="731.8299999999999,219.55 731.8299999999999,292.73 658.65,292.73" fill="#fd5003"/><rect x="731.84" y="219.55" width="73.18" height="73.18" fill="#0a0050"/><rect x="731.84" y="219.55" width="73.18" height="73.18" fill="#fd5003"/><rect x="805.02" y="219.55" width="73.18" height="73.18" fill="#fd5003"/><polygon points="878.2,219.55 878.2,292.73 805.02,292.73" fill="#0a0050"/><rect x="0" y="292.73" width="73.18" height="73.18" fill="#0a0050"/><rect x="0" y="292.73" width="73.18" height="73.18" fill="#0a0050"/><rect x="73.18" y="292.73" width="73.18" height="73.18" fill="#fd5003"/><rect x="73.18" y="292.73" width="73.18" height="73.18" fill="#0a0050"/><rect x="146.37" y="292.73" width="73.18" height="73.18" fill="#0a0050"/><rect x="146.37" y="292.73" width="73.18" height="73.18" fill="#0a0050"/><rect x="219.55" y="292.73" width="73.18" height="73.18" fill="#0a0050"/><rect x="219.55" y="292.73" width="73.18" height="73.18" fill="#fd5003"/><rect x="292.73" y="292.73" width="73.18" height="73.18" fill="#0a0050"/><path d="M 292.73 292.73 A 73.18 73.18 0 0 0 365.91 365.91 L 365.91 292.73" fill="#fd5003"/><rect x="365.91857142857134" y="292.7348571428571" width="73.18371428571427" height="73.18371428571427" fill="#ffffff"/><rect x="365.92" y="292.73" width="36.59" height="36.59" fill="#fd5003"/><path d="M 365.92 329.32000000000005 A 36.59 36.59 0 0 1  402.51 292.73 L 402.51 329.32000000000005" fill="#fd5003"/><rect x="402.51" y="292.73" width="36.59" height="36.59" fill="#0a0050"/><path d="M 402.51 292.73 A 36.59 36.59 0 0 1 439.1 329.32000000000005 L 402.51 329.32000000000005" fill="#0a0050"/><rect x="365.92" y="329.33" width="36.59" height="36.59" fill="#fd5003"/><path d="M 365.92 329.33 A 36.59 36.59 0 0 0 402.51 365.91999999999996 L 402.51 329.33" fill="#0a0050"/><rect x="402.51" y="329.33" width="36.59" height="36.59" fill="#0a0050"/><path d="M 402.51 365.91999999999996 A 36.59 36.59 0 0 0 439.1 329.33 L 402.51 329.33" fill="#0a0050"/><rect x="439.10228571428564" y="292.7348571428571" width="73.18371428571427" height="73.18371428571427" fill="#ffffff"/><rect x="439.1" y="292.73" width="36.59" height="36.59" fill="#0a0050"/><polygon points="475.69000000000005,292.73 475.69000000000005,329.32000000000005 439.1,329.32000000000005" fill="#0a0050"/><rect x="475.69" y="292.73" width="36.59" height="36.59" fill="#0a0050"/><polygon points="475.69,292.73 512.28,292.73 475.69,329.32000000000005" fill="#fd5003"/><rect x="439.1" y="329.33" width="36.59" height="36.59" fill="#0a0050"/><polygon points="439.1,329.33 475.69000000000005,329.33 475.69000000000005,365.91999999999996" fill="#fd5003"/><rect x="475.69" y="329.33" width="36.59" height="36.59" fill="#fd5003"/><polygon points="475.69,329.33 512.28,365.91999999999996 475.69,365.91999999999996" fill="#0a0050"/><rect x="512.29" y="292.73" width="73.18" height="73.18" fill="#0a0050"/><path d="M 512.29 292.73 A 73.18 73.18 0 0 0 585.47 365.91 L 585.47 292.73" fill="#0a0050"/><rect x="585.4697142857142" y="292.7348571428571" width="73.18371428571427" height="73.18371428571427" fill="#ffffff"/><rect x="585.47" y="292.73" width="36.59" height="36.59" fill="#fd5003"/><path d="M 585.47 292.73 A 36.59 36.59 0 0 1 622.0600000000001 329.32000000000005 L 585.47 329.32000000000005" fill="#fd5003"/><rect x="622.06" y="292.73" width="36.59" height="36.59" fill="#fd5003"/><path d="M 622.06 329.32000000000005 A 36.59 36.59 0 0 1  658.65 292.73 L 658.65 329.32000000000005" fill="#fd5003"/><rect x="585.47" y="329.33" width="36.59" height="36.59" fill="#0a0050"/><path d="M 585.47 365.91999999999996 A 36.59 36.59 0 0 0 622.0600000000001 329.33 L 585.47 329.33" fill="#fd5003"/><rect x="622.06" y="329.33" width="36.59" height="36.59" fill="#fd5003"/><path d="M 622.06 329.33 A 36.59 36.59 0 0 0 658.65 365.91999999999996 L 658.65 329.33" fill="#fd5003"/><rect x="658.65" y="292.73" width="73.18" height="73.18" fill="#0a0050"/><path d="M 658.65 292.73 A 73.18 73.18 0 0 0 731.8299999999999 365.91 L 731.8299999999999 292.73" fill="#0a0050"/><rect x="731.84" y="292.73" width="73.18" height="73.18" fill="#fd5003"/><path d="M 731.84 292.73 A 73.18 73.18 0 0 1 805.02 365.91 L 731.84 365.91" fill="#fd5003"/><rect x="805.020857142857" y="292.7348571428571" width="73.18371428571427" height="73.18371428571427" fill="#ffffff"/><rect x="805.02" y="292.73" width="36.59" height="36.59" fill="#fd5003"/><polygon points="841.61,292.73 841.61,329.32000000000005 805.02,329.32000000000005" fill="#0a0050"/><rect x="841.61" y="292.73" width="36.59" height="36.59" fill="#fd5003"/><polygon points="841.61,292.73 878.2,329.32000000000005 841.61,329.32000000000005" fill="#0a0050"/><rect x="805.02" y="329.33" width="36.59" height="36.59" fill="#fd5003"/><polygon points="805.02,329.33 841.61,329.33 841.61,365.91999999999996" fill="#fd5003"/><rect x="841.61" y="329.33" width="36.59" height="36.59" fill="#fd5003"/><polygon points="841.61,329.33 878.2,329.33 841.61,365.91999999999996" fill="#0a0050"/><rect x="0" y="365.92" width="73.18" height="73.18" fill="#0a0050"/><rect x="0" y="365.92" width="73.18" height="73.18" fill="#fd5003"/><rect x="73.18371428571427" y="365.91857142857134" width="73.18371428571427" height="73.18371428571427" fill="#ffffff"/><rect x="73.18" y="365.92" width="36.59" height="36.59" fill="#0a0050"/><polygon points="109.77000000000001,365.92 109.77000000000001,402.51 73.18,402.51" fill="#0a0050"/><rect x="109.78" y="365.92" width="36.59" height="36.59" fill="#0a0050"/><polygon points="109.78,365.92 146.37,402.51 109.78,402.51" fill="#0a0050"/><rect x="73.18" y="402.51" width="36.59" height="36.59" fill="#0a0050"/><polygon points="73.18,402.51 109.77000000000001,402.51 109.77000000000001,439.1" fill="#fd5003"/><rect x="109.78" y="402.51" width="36.59" height="36.59" fill="#0a0050"/><polygon points="109.78,402.51 146.37,402.51 109.78,439.1" fill="#fd5003"/><rect x="146.37" y="365.92" width="73.18" height="73.18" fill="#0a0050"/><rect x="146.37" y="365.92" width="73.18" height="73.18" fill="#fd5003"/><rect x="219.55114285714282" y="365.91857142857134" width="73.18371428571427" height="73.18371428571427" fill="#ffffff"/><rect x="219.55" y="365.92" width="36.59" height="36.59" fill="#fd5003"/><path d="M 219.55 402.51 A 36.59 36.59 0 0 1  256.14 365.92 L 256.14 402.51" fill="#fd5003"/><rect x="256.14" y="365.92" width="36.59" height="36.59" fill="#fd5003"/><path d="M 256.14 365.92 A 36.59 36.59 0 0 1 292.73 402.51 L 256.14 402.51" fill="#0a0050"/><rect x="219.55" y="402.51" width="36.59" height="36.59" fill="#0a0050"/><path d="M 219.55 402.51 A 36.59 36.59 0 0 0 256.14 439.1 L 256.14 402.51" fill="#fd5003"/><rect x="256.14" y="402.51" width="36.59" height="36.59" fill="#fd5003"/><path d="M 256.14 439.1 A 36.59 36.59 0 0 0 292.73 402.51 L 256.14 402.51" fill="#fd5003"/><rect x="292.7348571428571" y="365.91857142857134" width="73.18371428571427" height="73.18371428571427" fill="#ffffff"/><rect x="292.73" y="365.92" width="36.59" height="36.59" fill="#0a0050"/><circle cx="311.02500000000003" cy="384.21500000000003" r="18.295" fill="#fd5003"/><rect x="329.33" y="365.92" width="36.59" height="36.59" fill="#0a0050"/><rect x="329.33" y="365.92" width="36.59" height="36.59" fill="#fd5003"/><rect x="292.73" y="402.51" width="36.59" height="36.59" fill="#0a0050"/><circle cx="311.02500000000003" cy="420.805" r="18.295" fill="#fd5003"/><rect x="329.33" y="402.51" width="36.59" height="36.59" fill="#fd5003"/><rect x="329.33" y="402.51" width="36.59" height="36.59" fill="#fd5003"/><rect x="365.92" y="365.92" width="73.18" height="73.18" fill="#fd5003"/><path d="M 365.92 365.92 A 73.18 73.18 0 0 1 439.1 439.1 L 365.92 439.1" fill="#fd5003"/><rect x="439.10228571428564" y="365.91857142857134" width="73.18371428571427" height="73.18371428571427" fill="#ffffff"/><rect x="439.1" y="365.92" width="36.59" height="36.59" fill="#fd5003"/><path d="M 439.1 365.92 A 36.59 36.59 0 0 0 475.69000000000005 402.51 L 475.69000000000005 365.92" fill="#fd5003"/><rect x="475.69" y="365.92" width="36.59" height="36.59" fill="#fd5003"/><path d="M 475.69 402.51 A 36.59 36.59 0 0 0 512.28 365.92 L 475.69 365.92" fill="#fd5003"/><rect x="439.1" y="402.51" width="36.59" height="36.59" fill="#0a0050"/><path d="M 439.1 439.1 A 36.59 36.59 0 0 1  475.69000000000005 402.51 L 475.69000000000005 439.1" fill="#0a0050"/><rect x="475.69" y="402.51" width="36.59" height="36.59" fill="#0a0050"/><path d="M 475.69 402.51 A 36.59 36.59 0 0 1 512.28 439.1 L 475.69 439.1" fill="#fd5003"/><rect x="512.29" y="365.92" width="73.18" height="73.18" fill="#0a0050"/><polygon points="585.47,365.92 585.47,439.1 512.29,439.1" fill="#fd5003"/><rect x="585.4697142857142" y="365.91857142857134" width="73.18371428571427" height="73.18371428571427" fill="#ffffff"/><rect x="585.47" y="365.92" width="36.59" height="36.59" fill="#fd5003"/><path d="M 585.47 402.51 A 36.59 36.59 0 0 1  622.0600000000001 365.92 L 622.0600000000001 402.51" fill="#fd5003"/><rect x="622.06" y="365.92" width="36.59" height="36.59" fill="#fd5003"/><path d="M 622.06 365.92 A 36.59 36.59 0 0 1 658.65 402.51 L 622.06 402.51" fill="#fd5003"/><rect x="585.47" y="402.51" width="36.59" height="36.59" fill="#0a0050"/><path d="M 585.47 402.51 A 36.59 36.59 0 0 0 622.0600000000001 439.1 L 622.0600000000001 402.51" fill="#0a0050"/><rect x="622.06" y="402.51" width="36.59" height="36.59" fill="#0a0050"/><path d="M 622.06 439.1 A 36.59 36.59 0 0 0 658.65 402.51 L 622.06 402.51" fill="#0a0050"/><rect x="658.65" y="365.92" width="73.18" height="73.18" fill="#0a0050"/><rect x="658.65" y="365.92" width="73.18" height="73.18" fill="#fd5003"/><rect x="731.8371428571427" y="365.91857142857134" width="73.18371428571427" height="73.18371428571427" fill="#ffffff"/><rect x="731.84" y="365.92" width="36.59" height="36.59" fill="#fd5003"/><polygon points="768.4300000000001,365.92 768.4300000000001,402.51 731.84,402.51" fill="#0a0050"/><rect x="768.43" y="365.92" width="36.59" height="36.59" fill="#fd5003"/><polygon points="768.43,365.92 805.02,402.51 768.43,402.51" fill="#fd5003"/><rect x="731.84" y="402.51" width="36.59" height="36.59" fill="#fd5003"/><polygon points="731.84,402.51 768.4300000000001,402.51 731.84,439.1" fill="#0a0050"/><rect x="768.43" y="402.51" width="36.59" height="36.59" fill="#0a0050"/><polygon points="768.43,402.51 805.02,402.51 805.02,439.1" fill="#0a0050"/><rect x="805.02" y="365.92" width="73.18" height="73.18" fill="#fd5003"/><path d="M 805.02 439.1 A 73.18 73.18 0 0 0 878.2 365.92 L 805.02 365.92" fill="#fd5003"/><rect x="0" y="439.10228571428564" width="73.18371428571427" height="73.18371428571427" fill="#ffffff"/><rect x="0" y="439.1" width="36.59" height="36.59" fill="#0a0050"/><path d="M 0 475.69000000000005 A 36.59 36.59 0 0 0 36.59 439.1 L 0 439.1" fill="#fd5003"/><rect x="36.59" y="439.1" width="36.59" height="36.59" fill="#fd5003"/><path d="M 36.59 439.1 A 36.59 36.59 0 0 0 73.18 475.69000000000005 L 73.18 439.1" fill="#fd5003"/><rect x="0" y="475.69" width="36.59" height="36.59" fill="#fd5003"/><path d="M 0 475.69 A 36.59 36.59 0 0 1 36.59 512.28 L 0 512.28" fill="#fd5003"/><rect x="36.59" y="475.69" width="36.59" height="36.59" fill="#fd5003"/><path d="M 36.59 512.28 A 36.59 36.59 0 0 1  73.18 475.69 L 73.18 512.28" fill="#fd5003"/><rect x="73.18" y="439.1" width="73.18" height="73.18" fill="#0a0050"/><polygon points="146.36,439.1 146.36,512.28 73.18,512.28" fill="#fd5003"/><rect x="146.37" y="439.1" width="73.18" height="73.18" fill="#0a0050"/><rect x="146.37" y="439.1" width="73.18" height="73.18" fill="#fd5003"/><rect x="219.55114285714282" y="439.10228571428564" width="73.18371428571427" height="73.18371428571427" fill="#ffffff"/><rect x="219.55" y="439.1" width="36.59" height="36.59" fill="#0a0050"/><polygon points="256.14,439.1 256.14,475.69000000000005 219.55,475.69000000000005" fill="#0a0050"/><rect x="256.14" y="439.1" width="36.59" height="36.59" fill="#fd5003"/><polygon points="256.14,439.1 292.73,475.69000000000005 256.14,475.69000000000005" fill="#fd5003"/><rect x="219.55" y="475.69" width="36.59" height="36.59" fill="#0a0050"/><polygon points="219.55,475.69 256.14,475.69 256.14,512.28" fill="#0a0050"/><rect x="256.14" y="475.69" width="36.59" height="36.59" fill="#0a0050"/><polygon points="256.14,475.69 292.73,475.69 256.14,512.28" fill="#fd5003"/><rect x="292.7348571428571" y="439.10228571428564" width="73.18371428571427" height="73.18371428571427" fill="#ffffff"/><rect x="292.73" y="439.1" width="36.59" height="36.59" fill="#0a0050"/><polygon points="329.32000000000005,439.1 329.32000000000005,475.69000000000005 292.73,475.69000000000005" fill="#0a0050"/><rect x="329.33" y="439.1" width="36.59" height="36.59" fill="#0a0050"/><polygon points="329.33,439.1 365.91999999999996,475.69000000000005 329.33,475.69000000000005" fill="#fd5003"/><rect x="292.73" y="475.69" width="36.59" height="36.59" fill="#0a0050"/><polygon points="292.73,475.69 329.32000000000005,475.69 329.32000000000005,512.28" fill="#fd5003"/><rect x="329.33" y="475.69" width="36.59" height="36.59" fill="#0a0050"/><polygon points="329.33,475.69 365.91999999999996,475.69 329.33,512.28" fill="#fd5003"/><rect x="365.92" y="439.1" width="73.18" height="73.18" fill="#0a0050"/><rect x="365.92" y="439.1" width="73.18" height="73.18" fill="#fd5003"/><rect x="439.10228571428564" y="439.10228571428564" width="73.18371428571427" height="73.18371428571427" fill="#ffffff"/><rect x="439.1" y="439.1" width="36.59" height="36.59" fill="#0a0050"/><polygon points="475.69000000000005,439.1 475.69000000000005,475.69000000000005 439.1,475.69000000000005" fill="#fd5003"/><rect x="475.69" y="439.1" width="36.59" height="36.59" fill="#fd5003"/><polygon points="475.69,439.1 512.28,475.69000000000005 475.69,475.69000000000005" fill="#0a0050"/><rect x="439.1" y="475.69" width="36.59" height="36.59" fill="#0a0050"/><polygon points="439.1,475.69 475.69000000000005,475.69 439.1,512.28" fill="#fd5003"/><rect x="475.69" y="475.69" width="36.59" height="36.59" fill="#fd5003"/><polygon points="475.69,475.69 512.28,475.69 512.28,512.28" fill="#fd5003"/><rect x="512.286" y="439.10228571428564" width="73.18371428571427" height="73.18371428571427" fill="#ffffff"/><rect x="512.29" y="439.1" width="36.59" height="36.59" fill="#fd5003"/><path d="M 512.29 439.1 A 36.59 36.59 0 0 0 548.88 475.69000000000005 L 548.88 439.1" fill="#0a0050"/><rect x="548.88" y="439.1" width="36.59" height="36.59" fill="#fd5003"/><path d="M 548.88 475.69000000000005 A 36.59 36.59 0 0 0 585.47 439.1 L 548.88 439.1" fill="#fd5003"/><rect x="512.29" y="475.69" width="36.59" height="36.59" fill="#fd5003"/><path d="M 512.29 512.28 A 36.59 36.59 0 0 1  548.88 475.69 L 548.88 512.28" fill="#fd5003"/><rect x="548.88" y="475.69" width="36.59" height="36.59" fill="#fd5003"/><path d="M 548.88 475.69 A 36.59 36.59 0 0 1 585.47 512.28 L 548.88 512.28" fill="#fd5003"/><rect x="585.47" y="439.1" width="73.18" height="73.18" fill="#0a0050"/><path d="M 585.47 439.1 A 73.18 73.18 0 0 0 658.6500000000001 512.28 L 658.6500000000001 439.1" fill="#0a0050"/><rect x="658.6534285714284" y="439.10228571428564" width="73.18371428571427" height="73.18371428571427" fill="#ffffff"/><rect x="658.65" y="439.1" width="36.59" height="36.59" fill="#fd5003"/><polygon points="695.24,439.1 695.24,475.69000000000005 658.65,475.69000000000005" fill="#fd5003"/><rect x="695.25" y="439.1" width="36.59" height="36.59" fill="#fd5003"/><polygon points="695.25,439.1 731.84,475.69000000000005 695.25,475.69000000000005" fill="#0a0050"/><rect x="658.65" y="475.69" width="36.59" height="36.59" fill="#fd5003"/><polygon points="658.65,475.69 695.24,475.69 658.65,512.28" fill="#0a0050"/><rect x="695.25" y="475.69" width="36.59" height="36.59" fill="#0a0050"/><polygon points="695.25,475.69 731.84,475.69 731.84,512.28" fill="#0a0050"/><rect x="731.8371428571427" y="439.10228571428564" width="73.18371428571427" height="73.18371428571427" fill="#ffffff"/><rect x="731.84" y="439.1" width="36.59" height="36.59" fill="#0a0050"/><path d="M 731.84 439.1 A 36.59 36.59 0 0 1 768.4300000000001 475.69000000000005 L 731.84 475.69000000000005" fill="#0a0050"/><rect x="768.43" y="439.1" width="36.59" height="36.59" fill="#fd5003"/><path d="M 768.43 475.69000000000005 A 36.59 36.59 0 0 1  805.02 439.1 L 805.02 475.69000000000005" fill="#fd5003"/><rect x="731.84" y="475.69" width="36.59" height="36.59" fill="#fd5003"/><path d="M 731.84 512.28 A 36.59 36.59 0 0 0 768.4300000000001 475.69 L 731.84 475.69" fill="#0a0050"/><rect x="768.43" y="475.69" width="36.59" height="36.59" fill="#fd5003"/><path d="M 768.43 475.69 A 36.59 36.59 0 0 0 805.02 512.28 L 805.02 475.69" fill="#0a0050"/><rect x="805.02" y="439.1" width="73.18" height="73.18" fill="#0a0050"/><rect x="805.02" y="439.1" width="73.18" height="73.18" fill="#fd5003"/></g></svg>