<?xml version="1.0" standalone="no"?><svg xmlns:xlink="http://www.w3.org/1999/xlink" xmlns="http://www.w3.org/2000/svg" viewBox="0 0 1000 583.3390268231692" preserveAspectRatio="xMaxYMax slice"><g transform="scale(1.1386979671963888)"><rect x="0" y="0" width="878.2045714285713" height="512.286" fill="#ffffff"/><rect x="0" y="0" width="73.18371428571427" height="73.18371428571427" fill="#ffffff"/><rect x="0" y="0" width="36.59" height="36.59" fill="#8B008B"/><path d="M 0 0 A 36.59 36.59 0 0 1 36.59 36.59 L 0 36.59" fill="#8B008B"/><rect x="36.59" y="0" width="36.59" height="36.59" fill="#8B008B"/><path d="M 36.59 36.59 A 36.59 36.59 0 0 1  73.18 0 L 36.59 36.59 A 36.59 36.59 0 0 0 73.18 0" fill="#DAA520"/><rect x="0" y="36.59" width="36.59" height="36.59" fill="#DAA520"/><path d="M 0 36.59 A 36.59 36.59 0 0 1 36.59 73.18 L 0 73.18" fill="#DAA520"/><rect x="36.59" y="36.59" width="36.59" height="36.59" fill="#8B008B"/><path d="M 36.59 73.18 A 36.59 36.59 0 0 1  73.18 36.59 L 73.18 73.18" fill="#DAA520"/><rect x="73.18" y="0" width="73.18" height="73.18" fill="#8B008B"/><path d="M 73.18 0 A 73.18 73.18 0 0 0 146.36 73.18 L 146.36 0" fill="#DAA520"/><rect x="146.37" y="0" width="73.18" height="73.18" fill="#DAA520"/><path d="M 146.37 0 A 73.18 73.18 0 0 1 219.55 73.18 L 146.37 73.18" fill="#8B008B"/><rect x="219.55" y="0" width="73.18" height="73.18" fill="#8B008B"/><path d="M 219.55 0 A 73.18 73.18 0 0 1 292.73 73.18 L 219.55 73.18" fill="#8B008B"/><rect x="292.73" y="0" width="73.18" height="73.18" fill="#DAA520"/><path d="M 292.73 73.18 A 73.18 73.18 0 0 1  365.91 0 L 292.73 73.18 A 73.18 73.18 0 0 0 365.91 0" fill="#DAA520"/><rect x="365.91857142857134" y="0" width="73.18371428571427" height="73.18371428571427" fill="#ffffff"/><rect x="365.92" y="0" width="36.59" height="36.59" fill="#8B008B"/><path d="M 365.92 36.59 A 36.59 36.59 0 0 1  402.51 0 L 402.51 36.59" fill="#DAA520"/><rect x="402.51" y="0" width="36.59" height="36.59" fill="#DAA520"/><path d="M 402.51 0 A 36.59 36.59 0 0 1 439.1 36.59 L 402.51 36.59" fill="#8B008B"/><rect x="365.92" y="36.59" width="36.59" height="36.59" fill="#DAA520"/><path d="M 365.92 36.59 A 36.59 36.59 0 0 1  402.51 73.18 L 365.92 36.59 A 36.59 36.59 0 0 0 402.51 73.18" fill="#8B008B"/><rect x="402.51" y="36.59" width="36.59" height="36.59" fill="#DAA520"/><path d="M 402.51 73.18 A 36.59 36.59 0 0 0 439.1 36.59 L 402.51 36.59" fill="#8B008B"/><rect x="439.10228571428564" y="0" width="73.18371428571427" height="73.18371428571427" fill="#ffffff"/><rect x="439.1" y="0" width="36.59" height="36.59" fill="#8B008B"/><path d="M 439.1 36.59 A 36.59 36.59 0 0 1  475.69000000000005 0 L 475.69000000000005 36.59" fill="#8B008B"/><rect x="475.69" y="0" width="36.59" height="36.59" fill="#DAA520"/><path d="M 475.69 0 A 36.59 36.59 0 0 1 512.28 36.59 L 475.69 36.59" fill="#DAA520"/><rect x="439.1" y="36.59" width="36.59" height="36.59" fill="#8B008B"/><path d="M 439.1 73.18 A 36.59 36.59 0 0 0 475.69000000000005 36.59 L 439.1 36.59" fill="#DAA520"/><rect x="475.69" y="36.59" width="36.59" height="36.59" fill="#DAA520"/><path d="M 475.69 73.18 A 36.59 36.59 0 0 1  512.28 36.59 L 475.69 73.18 A 36.59 36.59 0 0 0 512.28 36.59" fill="#8B008B"/><rect x="512.286" y="0" width="73.18371428571427" height="73.18371428571427" fill="#ffffff"/><rect x="512.29" y="0" width="36.59" height="36.59" fill="#DAA520"/><path d="M 512.29 36.59 A 36.59 36.59 0 0 1  548.88 0 L 548.88 36.59" fill="#8B008B"/><rect x="548.88" y="0" width="36.59" height="36.59" fill="#DAA520"/><path d="M 548.88 0 A 36.59 36.59 0 0 0 585.47 36.59 L 585.47 0" fill="#DAA520"/><rect x="512.29" y="36.59" width="36.59" height="36.59" fill="#DAA520"/><path d="M 512.29 73.18 A 36.59 36.59 0 0 1  548.88 36.59 L 548.88 73.18" fill="#8B008B"/><rect x="548.88" y="36.59" width="36.59" height="36.59" fill="#DAA520"/><path d="M 548.88 73.18 A 36.59 36.59 0 0 1  585.47 36.59 L 548.88 73.18 A 36.59 36.59 0 0 0 585.47 36.59" fill="#DAA520"/><rect x="585.4697142857142" y="0" width="73.18371428571427" height="73.18371428571427" fill="#ffffff"/><rect x="585.47" y="0" width="36.59" height="36.59" fill="#8B008B"/><path d="M 585.47 0 A 36.59 36.59 0 0 1  622.0600000000001 36.59 L 585.47 0 A 36.59 36.59 0 0 0 622.0600000000001 36.59" fill="#8B008B"/><rect x="622.06" y="0" width="36.59" height="36.59" fill="#DAA520"/><path d="M 622.06 0 A 36.59 36.59 0 0 0 658.65 36.59 L 658.65 0" fill="#8B008B"/><rect x="585.47" y="36.59" width="36.59" height="36.59" fill="#DAA520"/><path d="M 585.47 73.18 A 36.59 36.59 0 0 1  622.0600000000001 36.59 L 585.47 73.18 A 36.59 36.59 0 0 0 622.0600000000001 36.59" fill="#8B008B"/><rect x="622.06" y="36.59" width="36.59" height="36.59" fill="#DAA520"/><path d="M 622.06 36.59 A 36.59 36.59 0 0 0 658.65 73.18 L 658.65 36.59" fill="#DAA520"/><rect x="658.65" y="0" width="73.18" height="73.18" fill="#DAA520"/><path d="M 658.65 73.18 A 73.18 73.18 0 0 0 731.8299999999999 0 L 658.65 0" fill="#8B008B"/><rect x="731.84" y="0" width="73.18" height="73.18" fill="#DAA520"/><path d="M 731.84 73.18 A 73.18 73.18 0 0 0 805.02 0 L 731.84 0" fill="#8B008B"/><rect x="805.02" y="0" width="73.18" height="73.18" fill="#DAA520"/><path d="M 805.02 0 A 73.18 73.18 0 0 1 878.2 73.18 L 805.02 73.18" fill="#DAA520"/><rect x="0" y="73.18" width="73.18" height="73.18" fill="#8B008B"/><path d="M 0 146.36 A 73.18 73.18 0 0 0 73.18 73.18 L 0 73.18" fill="#8B008B"/><rect x="73.18371428571427" y="73.18371428571427" width="73.18371428571427" height="73.18371428571427" fill="#ffffff"/><rect x="73.18" y="73.18" width="36.59" height="36.59" fill="#8B008B"/><path d="M 73.18 109.77000000000001 A 36.59 36.59 0 0 0 109.77000000000001 73.18 L 73.18 73.18" fill="#8B008B"/><rect x="109.78" y="73.18" width="36.59" height="36.59" fill="#DAA520"/><path d="M 109.78 109.77000000000001 A 36.59 36.59 0 0 0 146.37 73.18 L 109.78 73.18" fill="#DAA520"/><rect x="73.18" y="109.78" width="36.59" height="36.59" fill="#8B008B"/><path d="M 73.18 146.37 A 36.59 36.59 0 0 1  109.77000000000001 109.78 L 109.77000000000001 146.37" fill="#8B008B"/><rect x="109.78" y="109.78" width="36.59" height="36.59" fill="#DAA520"/><path d="M 109.78 109.78 A 36.59 36.59 0 0 1  146.37 146.37 L 109.78 109.78 A 36.59 36.59 0 0 0 146.37 146.37" fill="#DAA520"/><rect x="146.37" y="73.18" width="73.18" height="73.18" fill="#DAA520"/><path d="M 146.37 73.18 A 73.18 73.18 0 0 1  219.55 146.36 L 146.37 73.18 A 73.18 73.18 0 0 0 219.55 146.36" fill="#DAA520"/><rect x="219.55" y="73.18" width="73.18" height="73.18" fill="#DAA520"/><path d="M 219.55 73.18 A 73.18 73.18 0 0 1  292.73 146.36 L 219.55 73.18 A 73.18 73.18 0 0 0 292.73 146.36" fill="#8B008B"/><rect x="292.73" y="73.18" width="73.18" height="73.18" fill="#DAA520"/><path d="M 292.73 73.18 A 73.18 73.18 0 0 1  365.91 146.36 L 292.73 73.18 A 73.18 73.18 0 0 0 365.91 146.36" fill="#8B008B"/><rect x="365.92" y="73.18" width="73.18" height="73.18" fill="#8B008B"/><path d="M 365.92 146.36 A 73.18 73.18 0 0 0 439.1 73.18 L 365.92 73.18" fill="#DAA520"/><rect x="439.10228571428564" y="73.18371428571427" width="73.18371428571427" height="73.18371428571427" fill="#ffffff"/><rect x="439.1" y="73.18" width="36.59" height="36.59" fill="#DAA520"/><path d="M 439.1 109.77000000000001 A 36.59 36.59 0 0 1  475.69000000000005 73.18 L 475.69000000000005 109.77000000000001" fill="#DAA520"/><rect x="475.69" y="73.18" width="36.59" height="36.59" fill="#8B008B"/><path d="M 475.69 109.77000000000001 A 36.59 36.59 0 0 1  512.28 73.18 L 512.28 109.77000000000001" fill="#8B008B"/><rect x="439.1" y="109.78" width="36.59" height="36.59" fill="#DAA520"/><path d="M 439.1 146.37 A 36.59 36.59 0 0 1  475.69000000000005 109.78 L 475.69000000000005 146.37" fill="#DAA520"/><rect x="475.69" y="109.78" width="36.59" height="36.59" fill="#DAA520"/><path d="M 475.69 146.37 A 36.59 36.59 0 0 1  512.28 109.78 L 475.69 146.37 A 36.59 36.59 0 0 0 512.28 109.78" fill="#DAA520"/><rect x="512.286" y="73.18371428571427" width="73.18371428571427" height="73.18371428571427" fill="#ffffff"/><rect x="512.29" y="73.18" width="36.59" height="36.59" fill="#8B008B"/><path d="M 512.29 109.77000000000001 A 36.59 36.59 0 0 1  548.88 73.18 L 548.88 109.77000000000001" fill="#DAA520"/><rect x="548.88" y="73.18" width="36.59" height="36.59" fill="#DAA520"/><path d="M 548.88 73.18 A 36.59 36.59 0 0 1 585.47 109.77000000000001 L 548.88 109.77000000000001" fill="#8B008B"/><rect x="512.29" y="109.78" width="36.59" height="36.59" fill="#8B008B"/><path d="M 512.29 146.37 A 36.59 36.59 0 0 0 548.88 109.78 L 512.29 109.78" fill="#DAA520"/><rect x="548.88" y="109.78" width="36.59" height="36.59" fill="#DAA520"/><path d="M 548.88 109.78 A 36.59 36.59 0 0 0 585.47 146.37 L 585.47 109.78" fill="#8B008B"/><rect x="585.47" y="73.18" width="73.18" height="73.18" fill="#8B008B"/><path d="M 585.47 73.18 A 73.18 73.18 0 0 1 658.6500000000001 146.36 L 585.47 146.36" fill="#DAA520"/><rect x="658.65" y="73.18" width="73.18" height="73.18" fill="#8B008B"/><path d="M 658.65 73.18 A 73.18 73.18 0 0 1 731.8299999999999 146.36 L 658.65 146.36" fill="#DAA520"/><rect x="731.8371428571427" y="73.18371428571427" width="73.18371428571427" height="73.18371428571427" fill="#ffffff"/><rect x="731.84" y="73.18" width="36.59" height="36.59" fill="#DAA520"/><path d="M 731.84 109.77000000000001 A 36.59 36.59 0 0 0 768.4300000000001 73.18 L 731.84 73.18" fill="#DAA520"/><rect x="768.43" y="73.18" width="36.59" height="36.59" fill="#8B008B"/><path d="M 768.43 73.18 A 36.59 36.59 0 0 0 805.02 109.77000000000001 L 805.02 73.18" fill="#DAA520"/><rect x="731.84" y="109.78" width="36.59" height="36.59" fill="#DAA520"/><path d="M 731.84 109.78 A 36.59 36.59 0 0 1  768.4300000000001 146.37 L 731.84 109.78 A 36.59 36.59 0 0 0 768.4300000000001 146.37" fill="#8B008B"/><rect x="768.43" y="109.78" width="36.59" height="36.59" fill="#8B008B"/><path d="M 768.43 109.78 A 36.59 36.59 0 0 0 805.02 146.37 L 805.02 109.78" fill="#DAA520"/><rect x="805.02" y="73.18" width="73.18" height="73.18" fill="#8B008B"/><path d="M 805.02 146.36 A 73.18 73.18 0 0 0 878.2 73.18 L 805.02 73.18" fill="#8B008B"/><rect x="0" y="146.37" width="73.18" height="73.18" fill="#DAA520"/><path d="M 0 146.37 A 73.18 73.18 0 0 1 73.18 219.55 L 0 219.55" fill="#8B008B"/><rect x="73.18" y="146.37" width="73.18" height="73.18" fill="#8B008B"/><path d="M 73.18 146.37 A 73.18 73.18 0 0 1 146.36 219.55 L 73.18 219.55" fill="#8B008B"/><rect x="146.37" y="146.37" width="73.18" height="73.18" fill="#8B008B"/><path d="M 146.37 146.37 A 73.18 73.18 0 0 1  219.55 219.55 L 146.37 146.37 A 73.18 73.18 0 0 0 219.55 219.55" fill="#DAA520"/><rect x="219.55" y="146.37" width="73.18" height="73.18" fill="#DAA520"/><path d="M 219.55 219.55 A 73.18 73.18 0 0 1  292.73 146.37 L 219.55 219.55 A 73.18 73.18 0 0 0 292.73 146.37" fill="#DAA520"/><rect x="292.73" y="146.37" width="73.18" height="73.18" fill="#DAA520"/><path d="M 292.73 219.55 A 73.18 73.18 0 0 0 365.91 146.37 L 292.73 146.37" fill="#DAA520"/><rect x="365.91857142857134" y="146.36742857142855" width="73.18371428571427" height="73.18371428571427" fill="#ffffff"/><rect x="365.92" y="146.37" width="36.59" height="36.59" fill="#DAA520"/><path d="M 365.92 146.37 A 36.59 36.59 0 0 1  402.51 182.96 L 365.92 146.37 A 36.59 36.59 0 0 0 402.51 182.96" fill="#DAA520"/><rect x="402.51" y="146.37" width="36.59" height="36.59" fill="#8B008B"/><path d="M 402.51 182.96 A 36.59 36.59 0 0 1  439.1 146.37 L 402.51 182.96 A 36.59 36.59 0 0 0 439.1 146.37" fill="#8B008B"/><rect x="365.92" y="182.96" width="36.59" height="36.59" fill="#DAA520"/><path d="M 365.92 182.96 A 36.59 36.59 0 0 1  402.51 219.55 L 365.92 182.96 A 36.59 36.59 0 0 0 402.51 219.55" fill="#8B008B"/><rect x="402.51" y="182.96" width="36.59" height="36.59" fill="#8B008B"/><path d="M 402.51 182.96 A 36.59 36.59 0 0 1  439.1 219.55 L 402.51 182.96 A 36.59 36.59 0 0 0 439.1 219.55" fill="#DAA520"/><rect x="439.1" y="146.37" width="73.18" height="73.18" fill="#8B008B"/><path d="M 439.1 146.37 A 73.18 73.18 0 0 0 512.28 219.55 L 512.28 146.37" fill="#DAA520"/><rect x="512.29" y="146.37" width="73.18" height="73.18" fill="#DAA520"/><path d="M 512.29 219.55 A 73.18 73.18 0 0 0 585.47 146.37 L 512.29 146.37" fill="#DAA520"/><rect x="585.47" y="146.37" width="73.18" height="73.18" fill="#8B008B"/><path d="M 585.47 146.37 A 73.18 73.18 0 0 0 658.6500000000001 219.55 L 658.6500000000001 146.37" fill="#8B008B"/><rect x="658.6534285714284" y="146.36742857142855" width="73.18371428571427" height="73.18371428571427" fill="#ffffff"/><rect x="658.65" y="146.37" width="36.59" height="36.59" fill="#8B008B"/><path d="M 658.65 146.37 A 36.59 36.59 0 0 0 695.24 182.96 L 695.24 146.37" fill="#8B008B"/><rect x="695.25" y="146.37" width="36.59" height="36.59" fill="#8B008B"/><path d="M 695.25 182.96 A 36.59 36.59 0 0 1  731.84 146.37 L 695.25 182.96 A 36.59 36.59 0 0 0 731.84 146.37" fill="#DAA520"/><rect x="658.65" y="182.96" width="36.59" height="36.59" fill="#8B008B"/><path d="M 658.65 219.55 A 36.59 36.59 0 0 0 695.24 182.96 L 658.65 182.96" fill="#DAA520"/><rect x="695.25" y="182.96" width="36.59" height="36.59" fill="#DAA520"/><path d="M 695.25 219.55 A 36.59 36.59 0 0 1  731.84 182.96 L 731.84 219.55" fill="#DAA520"/><rect x="731.8371428571427" y="146.36742857142855" width="73.18371428571427" height="73.18371428571427" fill="#ffffff"/><rect x="731.84" y="146.37" width="36.59" height="36.59" fill="#DAA520"/><path d="M 731.84 146.37 A 36.59 36.59 0 0 1  768.4300000000001 182.96 L 731.84 146.37 A 36.59 36.59 0 0 0 768.4300000000001 182.96" fill="#8B008B"/><rect x="768.43" y="146.37" width="36.59" height="36.59" fill="#DAA520"/><path d="M 768.43 182.96 A 36.59 36.59 0 0 0 805.02 146.37 L 768.43 146.37" fill="#8B008B"/><rect x="731.84" y="182.96" width="36.59" height="36.59" fill="#8B008B"/><path d="M 731.84 219.55 A 36.59 36.59 0 0 1  768.4300000000001 182.96 L 731.84 219.55 A 36.59 36.59 0 0 0 768.4300000000001 182.96" fill="#DAA520"/><rect x="768.43" y="182.96" width="36.59" height="36.59" fill="#DAA520"/><path d="M 768.43 219.55 A 36.59 36.59 0 0 1  805.02 182.96 L 768.43 219.55 A 36.59 36.59 0 0 0 805.02 182.96" fill="#DAA520"/><rect x="805.020857142857" y="146.36742857142855" width="73.18371428571427" height="73.18371428571427" fill="#ffffff"/><rect x="805.02" y="146.37" width="36.59" height="36.59" fill="#DAA520"/><path d="M 805.02 182.96 A 36.59 36.59 0 0 1  841.61 146.37 L 841.61 182.96" fill="#DAA520"/><rect x="841.61" y="146.37" width="36.59" height="36.59" fill="#DAA520"/><path d="M 841.61 182.96 A 36.59 36.59 0 0 1  878.2 146.37 L 878.2 182.96" fill="#8B008B"/><rect x="805.02" y="182.96" width="36.59" height="36.59" fill="#DAA520"/><path d="M 805.02 219.55 A 36.59 36.59 0 0 1  841.61 182.96 L 805.02 219.55 A 36.59 36.59 0 0 0 841.61 182.96" fill="#DAA520"/><rect x="841.61" y="182.96" width="36.59" height="36.59" fill="#8B008B"/><path d="M 841.61 182.96 A 36.59 36.59 0 0 1 878.2 219.55 L 841.61 219.55" fill="#DAA520"/><rect x="0" y="219.55114285714282" width="73.18371428571427" height="73.18371428571427" fill="#ffffff"/><rect x="0" y="219.55" width="36.59" height="36.59" fill="#DAA520"/><path d="M 0 256.14 A 36.59 36.59 0 0 0 36.59 219.55 L 0 219.55" fill="#DAA520"/><rect x="36.59" y="219.55" width="36.59" height="36.59" fill="#DAA520"/><path d="M 36.59 256.14 A 36.59 36.59 0 0 1  73.18 219.55 L 73.18 256.14" fill="#8B008B"/><rect x="0" y="256.14" width="36.59" height="36.59" fill="#DAA520"/><path d="M 0 256.14 A 36.59 36.59 0 0 1  36.59 292.73 L 0 256.14 A 36.59 36.59 0 0 0 36.59 292.73" fill="#8B008B"/><rect x="36.59" y="256.14" width="36.59" height="36.59" fill="#8B008B"/><path d="M 36.59 256.14 A 36.59 36.59 0 0 1  73.18 292.73 L 36.59 256.14 A 36.59 36.59 0 0 0 73.18 292.73" fill="#DAA520"/><rect x="73.18" y="219.55" width="73.18" height="73.18" fill="#DAA520"/><path d="M 73.18 292.73 A 73.18 73.18 0 0 0 146.36 219.55 L 73.18 219.55" fill="#8B008B"/><rect x="146.37" y="219.55" width="73.18" height="73.18" fill="#DAA520"/><path d="M 146.37 219.55 A 73.18 73.18 0 0 1  219.55 292.73 L 146.37 219.55 A 73.18 73.18 0 0 0 219.55 292.73" fill="#8B008B"/><rect x="219.55114285714282" y="219.55114285714282" width="73.18371428571427" height="73.18371428571427" fill="#ffffff"/><rect x="219.55" y="219.55" width="36.59" height="36.59" fill="#8B008B"/><path d="M 219.55 219.55 A 36.59 36.59 0 0 1  256.14 256.14 L 219.55 219.55 A 36.59 36.59 0 0 0 256.14 256.14" fill="#DAA520"/><rect x="256.14" y="219.55" width="36.59" height="36.59" fill="#8B008B"/><path d="M 256.14 219.55 A 36.59 36.59 0 0 1  292.73 256.14 L 256.14 219.55 A 36.59 36.59 0 0 0 292.73 256.14" fill="#8B008B"/><rect x="219.55" y="256.14" width="36.59" height="36.59" fill="#DAA520"/><path d="M 219.55 256.14 A 36.59 36.59 0 0 0 256.14 292.73 L 256.14 256.14" fill="#8B008B"/><rect x="256.14" y="256.14" width="36.59" height="36.59" fill="#8B008B"/><path d="M 256.14 292.73 A 36.59 36.59 0 0 1  292.73 256.14 L 292.73 292.73" fill="#DAA520"/><rect x="292.73" y="219.55" width="73.18" height="73.18" fill="#DAA520"/><path d="M 292.73 219.55 A 73.18 73.18 0 0 1  365.91 292.73 L 292.73 219.55 A 73.18 73.18 0 0 0 365.91 292.73" fill="#DAA520"/><rect x="365.91857142857134" y="219.55114285714282" width="73.18371428571427" height="73.18371428571427" fill="#ffffff"/><rect x="365.92" y="219.55" width="36.59" height="36.59" fill="#DAA520"/><path d="M 365.92 219.55 A 36.59 36.59 0 0 1  402.51 256.14 L 365.92 219.55 A 36.59 36.59 0 0 0 402.51 256.14" fill="#DAA520"/><rect x="402.51" y="219.55" width="36.59" height="36.59" fill="#DAA520"/><path d="M 402.51 256.14 A 36.59 36.59 0 0 1  439.1 219.55 L 439.1 256.14" fill="#DAA520"/><rect x="365.92" y="256.14" width="36.59" height="36.59" fill="#8B008B"/><path d="M 365.92 292.73 A 36.59 36.59 0 0 1  402.51 256.14 L 365.92 292.73 A 36.59 36.59 0 0 0 402.51 256.14" fill="#8B008B"/><rect x="402.51" y="256.14" width="36.59" height="36.59" fill="#DAA520"/><path d="M 402.51 256.14 A 36.59 36.59 0 0 0 439.1 292.73 L 439.1 256.14" fill="#8B008B"/><rect x="439.1" y="219.55" width="73.18" height="73.18" fill="#DAA520"/><path d="M 439.1 219.55 A 73.18 73.18 0 0 1  512.28 292.73 L 439.1 219.55 A 73.18 73.18 0 0 0 512.28 292.73" fill="#DAA520"/><rect x="512.286" y="219.55114285714282" width="73.18371428571427" height="73.18371428571427" fill="#ffffff"/><rect x="512.29" y="219.55" width="36.59" height="36.59" fill="#DAA520"/><path d="M 512.29 256.14 A 36.59 36.59 0 0 0 548.88 219.55 L 512.29 219.55" fill="#8B008B"/><rect x="548.88" y="219.55" width="36.59" height="36.59" fill="#8B008B"/><path d="M 548.88 219.55 A 36.59 36.59 0 0 1 585.47 256.14 L 548.88 256.14" fill="#DAA520"/><rect x="512.29" y="256.14" width="36.59" height="36.59" fill="#8B008B"/><path d="M 512.29 292.73 A 36.59 36.59 0 0 1  548.88 256.14 L 512.29 292.73 A 36.59 36.59 0 0 0 548.88 256.14" fill="#DAA520"/><rect x="548.88" y="256.14" width="36.59" height="36.59" fill="#8B008B"/><path d="M 548.88 292.73 A 36.59 36.59 0 0 1  585.47 256.14 L 548.88 292.73 A 36.59 36.59 0 0 0 585.47 256.14" fill="#8B008B"/><rect x="585.47" y="219.55" width="73.18" height="73.18" fill="#8B008B"/><path d="M 585.47 219.55 A 73.18 73.18 0 0 1  658.6500000000001 292.73 L 585.47 219.55 A 73.18 73.18 0 0 0 658.6500000000001 292.73" fill="#DAA520"/><rect x="658.65" y="219.55" width="73.18" height="73.18" fill="#DAA520"/><path d="M 658.65 292.73 A 73.18 73.18 0 0 0 731.8299999999999 219.55 L 658.65 219.55" fill="#8B008B"/><rect x="731.84" y="219.55" width="73.18" height="73.18" fill="#DAA520"/><path d="M 731.84 219.55 A 73.18 73.18 0 0 0 805.02 292.73 L 805.02 219.55" fill="#DAA520"/><rect x="805.02" y="219.55" width="73.18" height="73.18" fill="#DAA520"/><path d="M 805.02 292.73 A 73.18 73.18 0 0 0 878.2 219.55 L 805.02 219.55" fill="#8B008B"/><rect x="0" y="292.73" width="73.18" height="73.18" fill="#8B008B"/><path d="M 0 292.73 A 73.18 73.18 0 0 1  73.18 365.91 L 0 292.73 A 73.18 73.18 0 0 0 73.18 365.91" fill="#DAA520"/><rect x="73.18" y="292.73" width="73.18" height="73.18" fill="#8B008B"/><path d="M 73.18 365.91 A 73.18 73.18 0 0 0 146.36 292.73 L 73.18 292.73" fill="#8B008B"/><rect x="146.37" y="292.73" width="73.18" height="73.18" fill="#8B008B"/><path d="M 146.37 292.73 A 73.18 73.18 0 0 1 219.55 365.91 L 146.37 365.91" fill="#DAA520"/><rect x="219.55" y="292.73" width="73.18" height="73.18" fill="#8B008B"/><path d="M 219.55 292.73 A 73.18 73.18 0 0 0 292.73 365.91 L 292.73 292.73" fill="#DAA520"/><rect x="292.73" y="292.73" width="73.18" height="73.18" fill="#8B008B"/><path d="M 292.73 292.73 A 73.18 73.18 0 0 1  365.91 365.91 L 292.73 292.73 A 73.18 73.18 0 0 0 365.91 365.91" fill="#DAA520"/><rect x="365.91857142857134" y="292.7348571428571" width="73.18371428571427" height="73.18371428571427" fill="#ffffff"/><rect x="365.92" y="292.73" width="36.59" height="36.59" fill="#8B008B"/><path d="M 365.92 292.73 A 36.59 36.59 0 0 1  402.51 329.32000000000005 L 365.92 292.73 A 36.59 36.59 0 0 0 402.51 329.32000000000005" fill="#8B008B"/><rect x="402.51" y="292.73" width="36.59" height="36.59" fill="#DAA520"/><path d="M 402.51 292.73 A 36.59 36.59 0 0 1 439.1 329.32000000000005 L 402.51 329.32000000000005" fill="#8B008B"/><rect x="365.92" y="329.33" width="36.59" height="36.59" fill="#8B008B"/><path d="M 365.92 329.33 A 36.59 36.59 0 0 1 402.51 365.91999999999996 L 365.92 365.91999999999996" fill="#8B008B"/><rect x="402.51" y="329.33" width="36.59" height="36.59" fill="#DAA520"/><path d="M 402.51 365.91999999999996 A 36.59 36.59 0 0 1  439.1 329.33 L 402.51 365.91999999999996 A 36.59 36.59 0 0 0 439.1 329.33" fill="#DAA520"/><rect x="439.10228571428564" y="292.7348571428571" width="73.18371428571427" height="73.18371428571427" fill="#ffffff"/><rect x="439.1" y="292.73" width="36.59" height="36.59" fill="#8B008B"/><path d="M 439.1 292.73 A 36.59 36.59 0 0 1  475.69000000000005 329.32000000000005 L 439.1 292.73 A 36.59 36.59 0 0 0 475.69000000000005 329.32000000000005" fill="#8B008B"/><rect x="475.69" y="292.73" width="36.59" height="36.59" fill="#DAA520"/><path d="M 475.69 329.32000000000005 A 36.59 36.59 0 0 1  512.28 292.73 L 512.28 329.32000000000005" fill="#8B008B"/><rect x="439.1" y="329.33" width="36.59" height="36.59" fill="#DAA520"/><path d="M 439.1 329.33 A 36.59 36.59 0 0 1  475.69000000000005 365.91999999999996 L 439.1 329.33 A 36.59 36.59 0 0 0 475.69000000000005 365.91999999999996" fill="#8B008B"/><rect x="475.69" y="329.33" width="36.59" height="36.59" fill="#DAA520"/><path d="M 475.69 365.91999999999996 A 36.59 36.59 0 0 0 512.28 329.33 L 475.69 329.33" fill="#8B008B"/><rect x="512.29" y="292.73" width="73.18" height="73.18" fill="#DAA520"/><path d="M 512.29 292.73 A 73.18 73.18 0 0 0 585.47 365.91 L 585.47 292.73" fill="#DAA520"/><rect x="585.4697142857142" y="292.7348571428571" width="73.18371428571427" height="73.18371428571427" fill="#ffffff"/><rect x="585.47" y="292.73" width="36.59" height="36.59" fill="#DAA520"/><path d="M 585.47 329.32000000000005 A 36.59 36.59 0 0 0 622.0600000000001 292.73 L 585.47 292.73" fill="#DAA520"/><rect x="622.06" y="292.73" width="36.59" height="36.59" fill="#DAA520"/><path d="M 622.06 329.32000000000005 A 36.59 36.59 0 0 1  658.65 292.73 L 658.65 329.32000000000005" fill="#DAA520"/><rect x="585.47" y="329.33" width="36.59" height="36.59" fill="#DAA520"/><path d="M 585.47 329.33 A 36.59 36.59 0 0 0 622.0600000000001 365.91999999999996 L 622.0600000000001 329.33" fill="#DAA520"/><rect x="622.06" y="329.33" width="36.59" height="36.59" fill="#DAA520"/><path d="M 622.06 329.33 A 36.59 36.59 0 0 0 658.65 365.91999999999996 L 658.65 329.33" fill="#8B008B"/><rect x="658.6534285714284" y="292.7348571428571" width="73.18371428571427" height="73.18371428571427" fill="#ffffff"/><rect x="658.65" y="292.73" width="36.59" height="36.59" fill="#8B008B"/><path d="M 658.65 292.73 A 36.59 36.59 0 0 1  695.24 329.32000000000005 L 658.65 292.73 A 36.59 36.59 0 0 0 695.24 329.32000000000005" fill="#DAA520"/><rect x="695.25" y="292.73" width="36.59" height="36.59" fill="#8B008B"/><path d="M 695.25 329.32000000000005 A 36.59 36.59 0 0 1  731.84 292.73 L 695.25 329.32000000000005 A 36.59 36.59 0 0 0 731.84 292.73" fill="#DAA520"/><rect x="658.65" y="329.33" width="36.59" height="36.59" fill="#DAA520"/><path d="M 658.65 329.33 A 36.59 36.59 0 0 1 695.24 365.91999999999996 L 658.65 365.91999999999996" fill="#8B008B"/><rect x="695.25" y="329.33" width="36.59" height="36.59" fill="#8B008B"/><path d="M 695.25 329.33 A 36.59 36.59 0 0 0 731.84 365.91999999999996 L 731.84 329.33" fill="#8B008B"/><rect x="731.84" y="292.73" width="73.18" height="73.18" fill="#8B008B"/><path d="M 731.84 292.73 A 73.18 73.18 0 0 1  805.02 365.91 L 731.84 292.73 A 73.18 73.18 0 0 0 805.02 365.91" fill="#DAA520"/><rect x="805.020857142857" y="292.7348571428571" width="73.18371428571427" height="73.18371428571427" fill="#ffffff"/><rect x="805.02" y="292.73" width="36.59" height="36.59" fill="#8B008B"/><path d="M 805.02 329.32000000000005 A 36.59 36.59 0 0 0 841.61 292.73 L 805.02 292.73" fill="#DAA520"/><rect x="841.61" y="292.73" width="36.59" height="36.59" fill="#DAA520"/><path d="M 841.61 329.32000000000005 A 36.59 36.59 0 0 1  878.2 292.73 L 878.2 329.32000000000005" fill="#DAA520"/><rect x="805.02" y="329.33" width="36.59" height="36.59" fill="#DAA520"/><path d="M 805.02 329.33 A 36.59 36.59 0 0 0 841.61 365.91999999999996 L 841.61 329.33" fill="#8B008B"/><rect x="841.61" y="329.33" width="36.59" height="36.59" fill="#8B008B"/><path d="M 841.61 329.33 A 36.59 36.59 0 0 1  878.2 365.91999999999996 L 841.61 329.33 A 36.59 36.59 0 0 0 878.2 365.91999999999996" fill="#8B008B"/><rect x="0" y="365.92" width="73.18" height="73.18" fill="#8B008B"/><path d="M 0 439.1 A 73.18 73.18 0 0 1  73.18 365.92 L 73.18 439.1" fill="#DAA520"/><rect x="73.18371428571427" y="365.91857142857134" width="73.18371428571427" height="73.18371428571427" fill="#ffffff"/><rect x="73.18" y="365.92" width="36.59" height="36.59" fill="#DAA520"/><path d="M 73.18 402.51 A 36.59 36.59 0 0 1  109.77000000000001 365.92 L 73.18 402.51 A 36.59 36.59 0 0 0 109.77000000000001 365.92" fill="#8B008B"/><rect x="109.78" y="365.92" width="36.59" height="36.59" fill="#8B008B"/><path d="M 109.78 365.92 A 36.59 36.59 0 0 1 146.37 402.51 L 109.78 402.51" fill="#DAA520"/><rect x="73.18" y="402.51" width="36.59" height="36.59" fill="#8B008B"/><path d="M 73.18 402.51 A 36.59 36.59 0 0 1 109.77000000000001 439.1 L 73.18 439.1" fill="#DAA520"/><rect x="109.78" y="402.51" width="36.59" height="36.59" fill="#DAA520"/><path d="M 109.78 402.51 A 36.59 36.59 0 0 1  146.37 439.1 L 109.78 402.51 A 36.59 36.59 0 0 0 146.37 439.1" fill="#8B008B"/><rect x="146.37" y="365.92" width="73.18" height="73.18" fill="#8B008B"/><path d="M 146.37 365.92 A 73.18 73.18 0 0 1  219.55 439.1 L 146.37 365.92 A 73.18 73.18 0 0 0 219.55 439.1" fill="#8B008B"/><rect x="219.55" y="365.92" width="73.18" height="73.18" fill="#8B008B"/><path d="M 219.55 365.92 A 73.18 73.18 0 0 1  292.73 439.1 L 219.55 365.92 A 73.18 73.18 0 0 0 292.73 439.1" fill="#DAA520"/><rect x="292.73" y="365.92" width="73.18" height="73.18" fill="#DAA520"/><path d="M 292.73 365.92 A 73.18 73.18 0 0 0 365.91 439.1 L 365.91 365.92" fill="#8B008B"/><rect x="365.92" y="365.92" width="73.18" height="73.18" fill="#DAA520"/><path d="M 365.92 439.1 A 73.18 73.18 0 0 1  439.1 365.92 L 439.1 439.1" fill="#8B008B"/><rect x="439.10228571428564" y="365.91857142857134" width="73.18371428571427" height="73.18371428571427" fill="#ffffff"/><rect x="439.1" y="365.92" width="36.59" height="36.59" fill="#8B008B"/><path d="M 439.1 365.92 A 36.59 36.59 0 0 1 475.69000000000005 402.51 L 439.1 402.51" fill="#DAA520"/><rect x="475.69" y="365.92" width="36.59" height="36.59" fill="#DAA520"/><path d="M 475.69 402.51 A 36.59 36.59 0 0 0 512.28 365.92 L 475.69 365.92" fill="#8B008B"/><rect x="439.1" y="402.51" width="36.59" height="36.59" fill="#8B008B"/><path d="M 439.1 402.51 A 36.59 36.59 0 0 1 475.69000000000005 439.1 L 439.1 439.1" fill="#DAA520"/><rect x="475.69" y="402.51" width="36.59" height="36.59" fill="#8B008B"/><path d="M 475.69 439.1 A 36.59 36.59 0 0 0 512.28 402.51 L 475.69 402.51" fill="#8B008B"/><rect x="512.29" y="365.92" width="73.18" height="73.18" fill="#DAA520"/><path d="M 512.29 439.1 A 73.18 73.18 0 0 0 585.47 365.92 L 512.29 365.92" fill="#DAA520"/><rect x="585.47" y="365.92" width="73.18" height="73.18" fill="#DAA520"/><path d="M 585.47 439.1 A 73.18 73.18 0 0 1  658.6500000000001 365.92 L 585.47 439.1 A 73.18 73.18 0 0 0 658.6500000000001 365.92" fill="#8B008B"/><rect x="658.6534285714284" y="365.91857142857134" width="73.18371428571427" height="73.18371428571427" fill="#ffffff"/><rect x="658.65" y="365.92" width="36.59" height="36.59" fill="#8B008B"/><path d="M 658.65 402.51 A 36.59 36.59 0 0 0 695.24 365.92 L 658.65 365.92" fill="#8B008B"/><rect x="695.25" y="365.92" width="36.59" height="36.59" fill="#DAA520"/><path d="M 695.25 402.51 A 36.59 36.59 0 0 1  731.84 365.92 L 695.25 402.51 A 36.59 36.59 0 0 0 731.84 365.92" fill="#8B008B"/><rect x="658.65" y="402.51" width="36.59" height="36.59" fill="#DAA520"/><path d="M 658.65 439.1 A 36.59 36.59 0 0 0 695.24 402.51 L 658.65 402.51" fill="#8B008B"/><rect x="695.25" y="402.51" width="36.59" height="36.59" fill="#8B008B"/><path d="M 695.25 439.1 A 36.59 36.59 0 0 1  731.84 402.51 L 731.84 439.1" fill="#DAA520"/><rect x="731.8371428571427" y="365.91857142857134" width="73.18371428571427" height="73.18371428571427" fill="#ffffff"/><rect x="731.84" y="365.92" width="36.59" height="36.59" fill="#8B008B"/><path d="M 731.84 402.51 A 36.59 36.59 0 0 1  768.4300000000001 365.92 L 768.4300000000001 402.51" fill="#8B008B"/><rect x="768.43" y="365.92" width="36.59" height="36.59" fill="#8B008B"/><path d="M 768.43 402.51 A 36.59 36.59 0 0 0 805.02 365.92 L 768.43 365.92" fill="#DAA520"/><rect x="731.84" y="402.51" width="36.59" height="36.59" fill="#8B008B"/><path d="M 731.84 402.51 A 36.59 36.59 0 0 1  768.4300000000001 439.1 L 731.84 402.51 A 36.59 36.59 0 0 0 768.4300000000001 439.1" fill="#8B008B"/><rect x="768.43" y="402.51" width="36.59" height="36.59" fill="#DAA520"/><path d="M 768.43 439.1 A 36.59 36.59 0 0 0 805.02 402.51 L 768.43 402.51" fill="#DAA520"/><rect x="805.02" y="365.92" width="73.18" height="73.18" fill="#8B008B"/><path d="M 805.02 365.92 A 73.18 73.18 0 0 0 878.2 439.1 L 878.2 365.92" fill="#DAA520"/><rect x="0" y="439.1" width="73.18" height="73.18" fill="#8B008B"/><path d="M 0 512.28 A 73.18 73.18 0 0 1  73.18 439.1 L 0 512.28 A 73.18 73.18 0 0 0 73.18 439.1" fill="#8B008B"/><rect x="73.18" y="439.1" width="73.18" height="73.18" fill="#DAA520"/><path d="M 73.18 439.1 A 73.18 73.18 0 0 1  146.36 512.28 L 73.18 439.1 A 73.18 73.18 0 0 0 146.36 512.28" fill="#DAA520"/><rect x="146.37" y="439.1" width="73.18" height="73.18" fill="#8B008B"/><path d="M 146.37 439.1 A 73.18 73.18 0 0 0 219.55 512.28 L 219.55 439.1" fill="#8B008B"/><rect x="219.55" y="439.1" width="73.18" height="73.18" fill="#8B008B"/><path d="M 219.55 512.28 A 73.18 73.18 0 0 1  292.73 439.1 L 219.55 512.28 A 73.18 73.18 0 0 0 292.73 439.1" fill="#8B008B"/><rect x="292.7348571428571" y="439.10228571428564" width="73.18371428571427" height="73.18371428571427" fill="#ffffff"/><rect x="292.73" y="439.1" width="36.59" height="36.59" fill="#8B008B"/><path d="M 292.73 475.69000000000005 A 36.59 36.59 0 0 1  329.32000000000005 439.1 L 329.32000000000005 475.69000000000005" fill="#DAA520"/><rect x="329.33" y="439.1" width="36.59" height="36.59" fill="#DAA520"/><path d="M 329.33 475.69000000000005 A 36.59 36.59 0 0 1  365.91999999999996 439.1 L 365.91999999999996 475.69000000000005" fill="#8B008B"/><rect x="292.73" y="475.69" width="36.59" height="36.59" fill="#8B008B"/><path d="M 292.73 512.28 A 36.59 36.59 0 0 0 329.32000000000005 475.69 L 292.73 475.69" fill="#8B008B"/><rect x="329.33" y="475.69" width="36.59" height="36.59" fill="#8B008B"/><path d="M 329.33 512.28 A 36.59 36.59 0 0 1  365.91999999999996 475.69 L 329.33 512.28 A 36.59 36.59 0 0 0 365.91999999999996 475.69" fill="#DAA520"/><rect x="365.91857142857134" y="439.10228571428564" width="73.18371428571427" height="73.18371428571427" fill="#ffffff"/><rect x="365.92" y="439.1" width="36.59" height="36.59" fill="#DAA520"/><path d="M 365.92 475.69000000000005 A 36.59 36.59 0 0 1  402.51 439.1 L 365.92 475.69000000000005 A 36.59 36.59 0 0 0 402.51 439.1" fill="#DAA520"/><rect x="402.51" y="439.1" width="36.59" height="36.59" fill="#8B008B"/><path d="M 402.51 475.69000000000005 A 36.59 36.59 0 0 1  439.1 439.1 L 402.51 475.69000000000005 A 36.59 36.59 0 0 0 439.1 439.1" fill="#8B008B"/><rect x="365.92" y="475.69" width="36.59" height="36.59" fill="#DAA520"/><path d="M 365.92 475.69 A 36.59 36.59 0 0 1  402.51 512.28 L 365.92 475.69 A 36.59 36.59 0 0 0 402.51 512.28" fill="#DAA520"/><rect x="402.51" y="475.69" width="36.59" height="36.59" fill="#DAA520"/><path d="M 402.51 512.28 A 36.59 36.59 0 0 1  439.1 475.69 L 402.51 512.28 A 36.59 36.59 0 0 0 439.1 475.69" fill="#DAA520"/><rect x="439.10228571428564" y="439.10228571428564" width="73.18371428571427" height="73.18371428571427" fill="#ffffff"/><rect x="439.1" y="439.1" width="36.59" height="36.59" fill="#8B008B"/><path d="M 439.1 475.69000000000005 A 36.59 36.59 0 0 1  475.69000000000005 439.1 L 439.1 475.69000000000005 A 36.59 36.59 0 0 0 475.69000000000005 439.1" fill="#8B008B"/><rect x="475.69" y="439.1" width="36.59" height="36.59" fill="#DAA520"/><path d="M 475.69 439.1 A 36.59 36.59 0 0 1 512.28 475.69000000000005 L 475.69 475.69000000000005" fill="#DAA520"/><rect x="439.1" y="475.69" width="36.59" height="36.59" fill="#DAA520"/><path d="M 439.1 475.69 A 36.59 36.59 0 0 0 475.69000000000005 512.28 L 475.69000000000005 475.69" fill="#DAA520"/><rect x="475.69" y="475.69" width="36.59" height="36.59" fill="#8B008B"/><path d="M 475.69 475.69 A 36.59 36.59 0 0 0 512.28 512.28 L 512.28 475.69" fill="#8B008B"/><rect x="512.286" y="439.10228571428564" width="73.18371428571427" height="73.18371428571427" fill="#ffffff"/><rect x="512.29" y="439.1" width="36.59" height="36.59" fill="#8B008B"/><path d="M 512.29 475.69000000000005 A 36.59 36.59 0 0 1  548.88 439.1 L 512.29 475.69000000000005 A 36.59 36.59 0 0 0 548.88 439.1" fill="#8B008B"/><rect x="548.88" y="439.1" width="36.59" height="36.59" fill="#DAA520"/><path d="M 548.88 475.69000000000005 A 36.59 36.59 0 0 0 585.47 439.1 L 548.88 439.1" fill="#8B008B"/><rect x="512.29" y="475.69" width="36.59" height="36.59" fill="#DAA520"/><path d="M 512.29 512.28 A 36.59 36.59 0 0 1  548.88 475.69 L 512.29 512.28 A 36.59 36.59 0 0 0 548.88 475.69" fill="#8B008B"/><rect x="548.88" y="475.69" width="36.59" height="36.59" fill="#8B008B"/><path d="M 548.88 475.69 A 36.59 36.59 0 0 1 585.47 512.28 L 548.88 512.28" fill="#8B008B"/><rect x="585.47" y="439.1" width="73.18" height="73.18" fill="#DAA520"/><path d="M 585.47 512.28 A 73.18 73.18 0 0 1  658.6500000000001 439.1 L 658.6500000000001 512.28" fill="#8B008B"/><rect x="658.6534285714284" y="439.10228571428564" width="73.18371428571427" height="73.18371428571427" fill="#ffffff"/><rect x="658.65" y="439.1" width="36.59" height="36.59" fill="#DAA520"/><path d="M 658.65 439.1 A 36.59 36.59 0 0 1  695.24 475.69000000000005 L 658.65 439.1 A 36.59 36.59 0 0 0 695.24 475.69000000000005" fill="#8B008B"/><rect x="695.25" y="439.1" width="36.59" height="36.59" fill="#DAA520"/><path d="M 695.25 439.1 A 36.59 36.59 0 0 1 731.84 475.69000000000005 L 695.25 475.69000000000005" fill="#DAA520"/><rect x="658.65" y="475.69" width="36.59" height="36.59" fill="#8B008B"/><path d="M 658.65 512.28 A 36.59 36.59 0 0 0 695.24 475.69 L 658.65 475.69" fill="#DAA520"/><rect x="695.25" y="475.69" width="36.59" height="36.59" fill="#DAA520"/><path d="M 695.25 512.28 A 36.59 36.59 0 0 0 731.84 475.69 L 695.25 475.69" fill="#8B008B"/><rect x="731.84" y="439.1" width="73.18" height="73.18" fill="#DAA520"/><path d="M 731.84 512.28 A 73.18 73.18 0 0 0 805.02 439.1 L 731.84 439.1" fill="#8B008B"/><rect x="805.02" y="439.1" width="73.18" height="73.18" fill="#DAA520"/><path d="M 805.02 439.1 A 73.18 73.18 0 0 0 878.2 512.28 L 878.2 439.1" fill="#DAA520"/></g></svg>